<svg xmlns="http://www.w3.org/2000/svg" width="760" height="1100" viewBox="0 0 760 1100"><title></title><defs><clipPath id="tl"><rect width="760" height="1100" rx="76"/></clipPath></defs><g clip-path="url(#tl)"><rect width="760" height="1100" fill="#04070B"/><g opacity="0.9"><path d="M 406.36 374.00 C 406.40 374.77 406.42 375.54 406.40 376.31 C 406.38 377.08 406.33 377.86 406.24 378.63 C 406.15 379.40 406.03 380.17 405.86 380.93 C 405.69 381.69 405.49 382.45 405.24 383.19 C 405.00 383.93 404.71 384.66 404.39 385.37 C 404.06 386.08 403.69 386.78 403.29 387.45 C 402.89 388.12 402.44 388.76 401.97 389.38 C 401.50 390.00 400.99 390.60 400.46 391.17 C 399.92 391.73 399.36 392.27 398.78 392.78 C 398.19 393.28 397.58 393.76 396.96 394.21 C 396.34 394.67 395.70 395.09 395.04 395.49 C 394.39 395.88 393.72 396.25 393.05 396.60 C 392.37 396.95 391.69 397.27 390.99 397.57 C 390.30 397.87 389.59 398.14 388.88 398.40 C 388.17 398.65 387.45 398.88 386.72 399.08 C 385.99 399.28 385.26 399.47 384.52 399.62 C 383.78 399.77 383.03 399.90 382.27 399.99 C 381.52 400.08 380.76 400.15 380.00 400.18 C 379.24 400.21 378.47 400.21 377.71 400.17 C 376.95 400.13 376.18 400.06 375.42 399.95 C 374.67 399.84 373.91 399.69 373.16 399.51 C 372.42 399.33 371.68 399.11 370.95 398.86 C 370.23 398.60 369.51 398.31 368.81 397.99 C 368.11 397.67 367.43 397.31 366.76 396.93 C 366.09 396.55 365.44 396.13 364.81 395.69 C 364.18 395.25 363.56 394.79 362.97 394.29 C 362.38 393.80 361.80 393.29 361.25 392.75 C 360.70 392.21 360.17 391.65 359.66 391.07 C 359.16 390.48 358.67 389.88 358.21 389.25 C 357.76 388.63 357.33 387.98 356.93 387.32 C 356.53 386.66 356.16 385.97 355.82 385.28 C 355.49 384.58 355.18 383.86 354.91 383.13 C 354.65 382.40 354.42 381.66 354.23 380.91 C 354.04 380.15 353.89 379.39 353.78 378.62 C 353.67 377.86 353.60 377.08 353.56 376.31 C 353.53 375.54 353.54 374.77 353.59 374.00 C 353.63 373.23 353.71 372.47 353.83 371.71 C 353.94 370.95 354.09 370.20 354.27 369.46 C 354.44 368.72 354.65 367.99 354.88 367.27 C 355.11 366.55 355.37 365.84 355.65 365.14 C 355.93 364.44 356.23 363.75 356.56 363.07 C 356.88 362.39 357.22 361.72 357.59 361.06 C 357.95 360.40 358.33 359.75 358.74 359.11 C 359.15 358.48 359.58 357.85 360.03 357.24 C 360.48 356.63 360.96 356.03 361.46 355.46 C 361.96 354.88 362.49 354.32 363.04 353.79 C 363.59 353.25 364.17 352.74 364.77 352.26 C 365.38 351.77 366.01 351.32 366.66 350.90 C 367.31 350.48 367.99 350.09 368.69 349.74 C 369.38 349.39 370.10 349.08 370.83 348.80 C 371.56 348.53 372.31 348.30 373.06 348.11 C 373.82 347.91 374.58 347.76 375.35 347.64 C 376.12 347.53 376.90 347.46 377.67 347.42 C 378.45 347.38 379.23 347.37 380.00 347.41 C 380.77 347.44 381.55 347.50 382.31 347.60 C 383.07 347.69 383.84 347.82 384.59 347.98 C 385.34 348.13 386.09 348.32 386.82 348.54 C 387.56 348.75 388.29 348.99 389.00 349.26 C 389.72 349.53 390.43 349.83 391.12 350.16 C 391.81 350.49 392.49 350.84 393.15 351.23 C 393.81 351.61 394.46 352.02 395.08 352.46 C 395.70 352.90 396.31 353.37 396.89 353.87 C 397.47 354.36 398.04 354.89 398.57 355.43 C 399.10 355.98 399.61 356.55 400.09 357.14 C 400.57 357.74 401.02 358.35 401.45 358.98 C 401.87 359.62 402.26 360.27 402.63 360.93 C 403.00 361.60 403.34 362.28 403.65 362.97 C 403.96 363.66 404.25 364.37 404.51 365.08 C 404.77 365.79 405.00 366.52 405.21 367.25 C 405.41 367.98 405.59 368.72 405.75 369.46 C 405.91 370.20 406.04 370.96 406.14 371.71 C 406.24 372.47 406.32 373.23 406.36 374.00 Z" fill="none" stroke="#FFFFFF" stroke-width="1.98"  opacity="1.00"/><path d="M 424.12 374.00 C 424.23 375.28 424.29 376.58 424.30 377.88 C 424.30 379.17 424.26 380.48 424.14 381.78 C 424.02 383.08 423.85 384.39 423.59 385.68 C 423.34 386.97 423.02 388.26 422.62 389.51 C 422.22 390.77 421.75 392.01 421.20 393.21 C 420.66 394.41 420.03 395.59 419.34 396.71 C 418.65 397.84 417.89 398.93 417.07 399.96 C 416.26 400.99 415.37 401.97 414.45 402.90 C 413.52 403.83 412.54 404.71 411.53 405.53 C 410.53 406.36 409.47 407.13 408.40 407.85 C 407.34 408.57 406.23 409.25 405.12 409.88 C 404.01 410.51 402.88 411.10 401.74 411.65 C 400.60 412.20 399.44 412.72 398.28 413.20 C 397.11 413.68 395.94 414.13 394.76 414.54 C 393.57 414.96 392.38 415.34 391.17 415.68 C 389.96 416.03 388.74 416.34 387.51 416.61 C 386.28 416.88 385.04 417.11 383.79 417.29 C 382.54 417.47 381.27 417.61 380.00 417.68 C 378.73 417.76 377.45 417.78 376.17 417.74 C 374.90 417.70 373.61 417.60 372.34 417.44 C 371.07 417.27 369.80 417.04 368.55 416.75 C 367.30 416.45 366.05 416.09 364.83 415.67 C 363.61 415.25 362.41 414.77 361.24 414.23 C 360.07 413.70 358.91 413.10 357.80 412.46 C 356.68 411.82 355.58 411.12 354.52 410.39 C 353.46 409.65 352.43 408.87 351.43 408.05 C 350.44 407.22 349.47 406.36 348.54 405.46 C 347.61 404.57 346.71 403.63 345.85 402.66 C 344.99 401.69 344.17 400.68 343.39 399.63 C 342.61 398.59 341.88 397.51 341.19 396.40 C 340.51 395.29 339.88 394.15 339.30 392.98 C 338.73 391.80 338.21 390.60 337.77 389.37 C 337.32 388.15 336.93 386.89 336.62 385.62 C 336.31 384.36 336.07 383.07 335.90 381.78 C 335.73 380.49 335.64 379.18 335.61 377.88 C 335.59 376.59 335.63 375.29 335.74 374.00 C 335.85 372.71 336.03 371.43 336.26 370.17 C 336.48 368.91 336.78 367.66 337.10 366.44 C 337.43 365.21 337.82 364.00 338.23 362.81 C 338.64 361.62 339.10 360.44 339.57 359.29 C 340.05 358.13 340.57 356.99 341.11 355.86 C 341.65 354.74 342.21 353.63 342.81 352.53 C 343.40 351.43 344.02 350.34 344.68 349.27 C 345.34 348.20 346.02 347.13 346.75 346.10 C 347.47 345.06 348.23 344.03 349.04 343.04 C 349.85 342.05 350.70 341.08 351.60 340.15 C 352.50 339.22 353.44 338.32 354.43 337.49 C 355.42 336.65 356.47 335.85 357.55 335.11 C 358.63 334.38 359.77 333.71 360.93 333.10 C 362.09 332.50 363.30 331.96 364.53 331.49 C 365.76 331.03 367.02 330.64 368.30 330.32 C 369.57 330.00 370.87 329.76 372.17 329.58 C 373.47 329.40 374.78 329.30 376.09 329.25 C 377.39 329.21 378.70 329.23 380.00 329.31 C 381.30 329.38 382.59 329.52 383.88 329.70 C 385.16 329.88 386.43 330.12 387.69 330.40 C 388.94 330.68 390.19 331.01 391.42 331.38 C 392.65 331.75 393.86 332.17 395.06 332.63 C 396.25 333.08 397.43 333.59 398.59 334.14 C 399.74 334.69 400.88 335.28 401.98 335.92 C 403.09 336.57 404.17 337.26 405.21 337.99 C 406.26 338.73 407.27 339.52 408.24 340.34 C 409.21 341.17 410.14 342.05 411.03 342.97 C 411.91 343.89 412.76 344.85 413.55 345.85 C 414.34 346.84 415.09 347.88 415.78 348.94 C 416.48 350.01 417.13 351.10 417.73 352.22 C 418.33 353.33 418.89 354.47 419.40 355.63 C 419.91 356.78 420.38 357.96 420.81 359.15 C 421.24 360.33 421.63 361.54 421.99 362.75 C 422.34 363.96 422.66 365.19 422.93 366.43 C 423.21 367.67 423.45 368.92 423.65 370.18 C 423.85 371.44 424.01 372.72 424.12 374.00 Z" fill="none" stroke="#FFFFFF" stroke-width="1.83"  opacity="0.96"/><path d="M 441.86 374.00 C 442.06 375.80 442.21 377.62 442.26 379.45 C 442.32 381.28 442.31 383.13 442.19 384.97 C 442.08 386.81 441.88 388.67 441.56 390.49 C 441.24 392.32 440.82 394.16 440.28 395.94 C 439.74 397.72 439.08 399.49 438.32 401.19 C 437.55 402.89 436.66 404.56 435.67 406.14 C 434.68 407.72 433.58 409.25 432.40 410.69 C 431.22 412.13 429.93 413.49 428.59 414.77 C 427.25 416.05 425.82 417.24 424.36 418.36 C 422.91 419.48 421.38 420.52 419.85 421.49 C 418.31 422.46 416.73 423.35 415.14 424.19 C 413.56 425.03 411.95 425.81 410.33 426.54 C 408.72 427.28 407.10 427.96 405.46 428.61 C 403.83 429.26 402.19 429.86 400.54 430.43 C 398.89 431.00 397.23 431.54 395.55 432.03 C 393.87 432.52 392.18 432.98 390.47 433.38 C 388.76 433.77 387.03 434.13 385.29 434.41 C 383.54 434.69 381.77 434.92 380.00 435.06 C 378.23 435.20 376.43 435.27 374.64 435.24 C 372.85 435.22 371.05 435.11 369.26 434.90 C 367.48 434.69 365.68 434.39 363.92 434.00 C 362.16 433.60 360.41 433.11 358.70 432.53 C 356.98 431.95 355.29 431.27 353.64 430.52 C 351.99 429.78 350.38 428.94 348.80 428.04 C 347.23 427.14 345.69 426.16 344.20 425.13 C 342.71 424.09 341.26 422.99 339.85 421.84 C 338.45 420.69 337.08 419.49 335.77 418.23 C 334.45 416.98 333.18 415.67 331.96 414.31 C 330.74 412.95 329.57 411.55 328.46 410.09 C 327.36 408.63 326.30 407.12 325.32 405.57 C 324.35 404.01 323.44 402.40 322.62 400.76 C 321.81 399.11 321.07 397.41 320.44 395.68 C 319.80 393.95 319.26 392.18 318.83 390.39 C 318.41 388.60 318.08 386.78 317.87 384.95 C 317.66 383.13 317.56 381.29 317.56 379.46 C 317.56 377.64 317.68 375.80 317.88 374.00 C 318.08 372.20 318.39 370.40 318.76 368.64 C 319.13 366.88 319.59 365.14 320.10 363.44 C 320.61 361.73 321.19 360.06 321.81 358.41 C 322.42 356.76 323.09 355.14 323.78 353.54 C 324.47 351.94 325.20 350.36 325.95 348.80 C 326.71 347.23 327.49 345.69 328.30 344.15 C 329.12 342.62 329.95 341.09 330.84 339.58 C 331.73 338.07 332.64 336.56 333.62 335.08 C 334.59 333.60 335.61 332.13 336.70 330.70 C 337.79 329.27 338.93 327.86 340.15 326.51 C 341.38 325.17 342.67 323.86 344.03 322.63 C 345.40 321.41 346.84 320.24 348.35 319.17 C 349.85 318.11 351.44 317.12 353.07 316.25 C 354.70 315.37 356.41 314.59 358.14 313.93 C 359.87 313.27 361.66 312.72 363.46 312.28 C 365.26 311.84 367.10 311.51 368.94 311.28 C 370.78 311.05 372.64 310.94 374.48 310.91 C 376.32 310.87 378.17 310.94 380.00 311.08 C 381.83 311.22 383.65 311.45 385.45 311.74 C 387.25 312.03 389.03 312.39 390.79 312.81 C 392.55 313.22 394.29 313.71 396.01 314.24 C 397.73 314.78 399.43 315.37 401.10 316.03 C 402.77 316.68 404.42 317.39 406.04 318.16 C 407.65 318.94 409.25 319.77 410.79 320.67 C 412.34 321.57 413.85 322.53 415.31 323.57 C 416.77 324.60 418.19 325.70 419.55 326.87 C 420.90 328.04 422.20 329.27 423.43 330.57 C 424.67 331.86 425.84 333.22 426.93 334.62 C 428.03 336.02 429.06 337.48 430.02 338.98 C 430.98 340.47 431.87 342.01 432.69 343.58 C 433.52 345.14 434.28 346.74 434.99 348.36 C 435.69 349.98 436.34 351.62 436.94 353.28 C 437.54 354.93 438.08 356.61 438.59 358.30 C 439.09 359.99 439.55 361.70 439.97 363.43 C 440.38 365.15 440.75 366.89 441.07 368.66 C 441.38 370.42 441.66 372.20 441.86 374.00 Z" fill="none" stroke="#FFFFFF" stroke-width="1.69"  opacity="0.92"/><path d="M 459.58 374.00 C 459.89 376.31 460.16 378.66 460.30 381.03 C 460.44 383.39 460.50 385.79 460.41 388.18 C 460.32 390.57 460.12 392.99 459.76 395.37 C 459.39 397.75 458.89 400.15 458.22 402.47 C 457.55 404.79 456.72 407.10 455.73 409.31 C 454.73 411.52 453.57 413.68 452.27 415.73 C 450.98 417.77 449.51 419.74 447.95 421.58 C 446.38 423.42 444.66 425.15 442.88 426.77 C 441.10 428.38 439.20 429.87 437.27 431.27 C 435.33 432.66 433.31 433.93 431.29 435.12 C 429.26 436.31 427.18 437.39 425.11 438.42 C 423.03 439.44 420.93 440.38 418.84 441.27 C 416.75 442.17 414.65 443.00 412.55 443.80 C 410.45 444.60 408.35 445.35 406.23 446.08 C 404.12 446.80 402.00 447.49 399.86 448.12 C 397.72 448.76 395.57 449.37 393.39 449.91 C 391.20 450.45 389.00 450.95 386.77 451.35 C 384.54 451.75 382.28 452.09 380.00 452.31 C 377.72 452.53 375.42 452.67 373.12 452.68 C 370.81 452.68 368.49 452.58 366.18 452.35 C 363.88 452.11 361.57 451.75 359.30 451.27 C 357.02 450.78 354.76 450.16 352.55 449.42 C 350.34 448.69 348.15 447.82 346.02 446.86 C 343.90 445.90 341.81 444.82 339.78 443.66 C 337.75 442.50 335.77 441.24 333.85 439.91 C 331.92 438.58 330.05 437.17 328.24 435.69 C 326.42 434.21 324.65 432.66 322.95 431.05 C 321.24 429.44 319.58 427.77 318.00 426.03 C 316.41 424.29 314.87 422.48 313.43 420.61 C 311.98 418.74 310.59 416.81 309.32 414.81 C 308.04 412.81 306.84 410.74 305.78 408.61 C 304.71 406.49 303.74 404.29 302.92 402.05 C 302.10 399.82 301.41 397.52 300.87 395.20 C 300.33 392.89 299.93 390.52 299.69 388.16 C 299.45 385.80 299.37 383.41 299.42 381.05 C 299.47 378.69 299.68 376.32 300.00 374.00 C 300.31 371.68 300.78 369.37 301.32 367.12 C 301.87 364.86 302.54 362.64 303.25 360.47 C 303.97 358.29 304.78 356.17 305.62 354.07 C 306.45 351.97 307.35 349.92 308.27 347.89 C 309.18 345.86 310.13 343.86 311.10 341.87 C 312.07 339.88 313.05 337.91 314.07 335.94 C 315.10 333.97 316.13 332.00 317.23 330.05 C 318.32 328.09 319.44 326.13 320.64 324.19 C 321.84 322.25 323.08 320.31 324.43 318.43 C 325.77 316.54 327.19 314.66 328.71 312.88 C 330.24 311.09 331.85 309.33 333.57 307.70 C 335.30 306.06 337.13 304.49 339.05 303.07 C 340.97 301.65 343.01 300.33 345.11 299.17 C 347.21 298.01 349.41 296.98 351.65 296.12 C 353.90 295.25 356.22 294.54 358.56 293.98 C 360.90 293.42 363.29 293.02 365.67 292.76 C 368.06 292.49 370.47 292.38 372.86 292.37 C 375.25 292.37 377.64 292.51 380.00 292.73 C 382.36 292.95 384.71 293.29 387.02 293.71 C 389.34 294.12 391.63 294.62 393.90 295.19 C 396.16 295.76 398.39 296.41 400.60 297.12 C 402.80 297.84 404.98 298.61 407.13 299.47 C 409.27 300.32 411.39 301.23 413.47 302.23 C 415.54 303.23 417.58 304.30 419.57 305.46 C 421.56 306.62 423.51 307.86 425.38 309.19 C 427.25 310.52 429.08 311.94 430.81 313.44 C 432.55 314.95 434.22 316.55 435.79 318.21 C 437.36 319.88 438.85 321.64 440.24 323.45 C 441.64 325.26 442.94 327.15 444.15 329.08 C 445.36 331.01 446.48 333.00 447.52 335.02 C 448.56 337.03 449.51 339.09 450.41 341.17 C 451.30 343.25 452.11 345.35 452.88 347.47 C 453.65 349.60 454.35 351.74 455.01 353.90 C 455.67 356.06 456.29 358.24 456.85 360.45 C 457.41 362.66 457.93 364.88 458.39 367.14 C 458.84 369.40 459.26 371.69 459.58 374.00 Z" fill="none" stroke="#FFFFFF" stroke-width="1.54" stroke-dasharray="12.6 7.5" opacity="0.88"/><path d="M 477.27 374.00 C 477.74 376.83 478.15 379.71 478.40 382.61 C 478.65 385.51 478.82 388.47 478.78 391.42 C 478.75 394.37 478.58 397.36 478.19 400.31 C 477.80 403.26 477.24 406.23 476.44 409.10 C 475.65 411.98 474.65 414.84 473.43 417.57 C 472.22 420.30 470.77 422.96 469.15 425.47 C 467.53 427.98 465.69 430.39 463.72 432.62 C 461.75 434.86 459.58 436.95 457.33 438.89 C 455.08 440.83 452.68 442.60 450.24 444.24 C 447.81 445.89 445.27 447.37 442.73 448.76 C 440.19 450.14 437.59 451.38 435.01 452.56 C 432.43 453.75 429.83 454.81 427.25 455.85 C 424.67 456.88 422.10 457.84 419.53 458.77 C 416.96 459.71 414.41 460.60 411.83 461.46 C 409.26 462.33 406.70 463.17 404.11 463.96 C 401.51 464.75 398.91 465.52 396.26 466.21 C 393.61 466.90 390.94 467.56 388.23 468.10 C 385.52 468.63 382.77 469.11 380.00 469.43 C 377.23 469.76 374.41 469.99 371.60 470.04 C 368.78 470.10 365.93 470.03 363.11 469.78 C 360.29 469.53 357.45 469.12 354.66 468.55 C 351.88 467.98 349.10 467.24 346.39 466.36 C 343.67 465.47 340.99 464.42 338.38 463.25 C 335.77 462.08 333.22 460.75 330.73 459.34 C 328.24 457.92 325.82 456.37 323.46 454.74 C 321.10 453.12 318.81 451.39 316.58 449.58 C 314.35 447.78 312.17 445.89 310.07 443.93 C 307.97 441.97 305.92 439.93 303.96 437.81 C 302.00 435.69 300.09 433.49 298.29 431.21 C 296.50 428.93 294.77 426.57 293.18 424.13 C 291.59 421.68 290.09 419.15 288.77 416.54 C 287.44 413.94 286.24 411.24 285.23 408.49 C 284.22 405.75 283.37 402.92 282.72 400.07 C 282.08 397.21 281.62 394.30 281.36 391.39 C 281.10 388.49 281.05 385.54 281.17 382.65 C 281.30 379.75 281.63 376.84 282.09 374.00 C 282.56 371.16 283.22 368.34 283.96 365.60 C 284.71 362.85 285.62 360.16 286.56 357.52 C 287.51 354.89 288.58 352.32 289.66 349.79 C 290.74 347.26 291.89 344.80 293.03 342.35 C 294.18 339.89 295.35 337.49 296.54 335.08 C 297.72 332.67 298.90 330.28 300.12 327.88 C 301.34 325.48 302.55 323.08 303.84 320.67 C 305.12 318.26 306.41 315.83 307.81 313.43 C 309.21 311.02 310.65 308.60 312.23 306.23 C 313.81 303.87 315.46 301.50 317.27 299.24 C 319.07 296.98 320.99 294.75 323.06 292.68 C 325.13 290.61 327.33 288.61 329.66 286.81 C 331.99 285.01 334.47 283.34 337.04 281.88 C 339.61 280.42 342.32 279.13 345.08 278.05 C 347.84 276.98 350.71 276.11 353.59 275.43 C 356.47 274.75 359.43 274.29 362.37 274.00 C 365.31 273.70 368.28 273.61 371.22 273.66 C 374.16 273.70 377.10 273.93 380.00 274.25 C 382.90 274.58 385.77 275.05 388.61 275.60 C 391.44 276.16 394.24 276.83 397.00 277.56 C 399.77 278.30 402.49 279.12 405.18 280.02 C 407.87 280.92 410.53 281.89 413.14 282.95 C 415.76 284.00 418.34 285.13 420.87 286.35 C 423.40 287.58 425.90 288.89 428.32 290.30 C 430.75 291.72 433.13 293.23 435.41 294.86 C 437.70 296.49 439.93 298.22 442.04 300.07 C 444.15 301.91 446.18 303.87 448.09 305.91 C 449.99 307.96 451.79 310.12 453.48 312.35 C 455.16 314.57 456.72 316.90 458.18 319.26 C 459.63 321.63 460.96 324.07 462.21 326.54 C 463.46 329.00 464.59 331.52 465.66 334.06 C 466.73 336.59 467.71 339.16 468.64 341.74 C 469.57 344.32 470.43 346.92 471.25 349.55 C 472.08 352.18 472.85 354.82 473.58 357.50 C 474.31 360.18 475.00 362.88 475.61 365.63 C 476.23 368.38 476.81 371.17 477.27 374.00 Z" fill="none" stroke="#FFFFFF" stroke-width="1.39" stroke-dasharray="10.8 9.1" opacity="0.84"/><path d="M 494.95 374.00 C 495.59 377.34 496.18 380.75 496.57 384.20 C 496.97 387.65 497.26 391.17 497.31 394.69 C 497.36 398.20 497.25 401.79 496.85 405.31 C 496.46 408.84 495.85 412.39 494.95 415.84 C 494.04 419.28 492.87 422.70 491.43 425.96 C 489.99 429.22 488.26 432.40 486.31 435.38 C 484.36 438.35 482.11 441.20 479.72 443.82 C 477.32 446.45 474.67 448.89 471.93 451.14 C 469.19 453.38 466.26 455.42 463.29 457.29 C 460.33 459.17 457.24 460.83 454.17 462.39 C 451.10 463.95 447.96 465.32 444.86 466.63 C 441.76 467.94 438.65 469.11 435.58 470.26 C 432.50 471.41 429.45 472.47 426.41 473.53 C 423.37 474.58 420.37 475.60 417.34 476.60 C 414.32 477.60 411.32 478.60 408.28 479.54 C 405.24 480.49 402.19 481.43 399.09 482.29 C 395.99 483.14 392.86 483.97 389.68 484.66 C 386.50 485.35 383.27 485.98 380.00 486.43 C 376.73 486.87 373.41 487.21 370.08 487.34 C 366.76 487.47 363.38 487.44 360.04 487.19 C 356.70 486.94 353.33 486.50 350.03 485.86 C 346.72 485.22 343.43 484.36 340.21 483.33 C 336.99 482.30 333.81 481.06 330.72 479.68 C 327.63 478.30 324.60 476.73 321.65 475.06 C 318.71 473.38 315.84 471.55 313.04 469.63 C 310.25 467.70 307.53 465.65 304.88 463.53 C 302.23 461.40 299.65 459.17 297.14 456.86 C 294.64 454.54 292.19 452.14 289.85 449.65 C 287.50 447.15 285.21 444.57 283.05 441.88 C 280.89 439.20 278.81 436.41 276.90 433.52 C 274.99 430.64 273.18 427.64 271.59 424.55 C 270.00 421.47 268.55 418.26 267.35 415.00 C 266.15 411.74 265.14 408.37 264.40 404.97 C 263.66 401.58 263.14 398.11 262.88 394.65 C 262.62 391.20 262.62 387.69 262.84 384.25 C 263.05 380.81 263.53 377.36 264.17 374.00 C 264.81 370.64 265.69 367.32 266.67 364.08 C 267.65 360.85 268.82 357.69 270.03 354.61 C 271.24 351.53 272.59 348.53 273.93 345.58 C 275.28 342.63 276.69 339.76 278.08 336.90 C 279.47 334.05 280.88 331.25 282.27 328.43 C 283.67 325.61 285.04 322.81 286.44 319.99 C 287.84 317.16 289.22 314.32 290.67 311.45 C 292.12 308.59 293.57 305.69 295.14 302.79 C 296.71 299.90 298.33 296.97 300.11 294.11 C 301.89 291.24 303.76 288.35 305.82 285.60 C 307.89 282.85 310.09 280.11 312.49 277.58 C 314.88 275.05 317.45 272.60 320.18 270.39 C 322.92 268.19 325.84 266.14 328.88 264.37 C 331.91 262.59 335.13 261.03 338.41 259.74 C 341.69 258.45 345.11 257.41 348.55 256.62 C 351.98 255.84 355.52 255.32 359.02 255.01 C 362.52 254.70 366.07 254.65 369.57 254.76 C 373.06 254.86 376.56 255.20 380.00 255.64 C 383.44 256.09 386.85 256.72 390.20 257.43 C 393.55 258.15 396.86 258.99 400.12 259.91 C 403.38 260.83 406.59 261.85 409.76 262.94 C 412.93 264.03 416.06 265.20 419.14 266.46 C 422.22 267.73 425.27 269.07 428.25 270.52 C 431.24 271.98 434.19 273.52 437.05 275.19 C 439.91 276.87 442.72 278.65 445.41 280.58 C 448.11 282.50 450.74 284.55 453.22 286.74 C 455.71 288.92 458.10 291.24 460.33 293.67 C 462.57 296.10 464.67 298.66 466.64 301.30 C 468.60 303.94 470.41 306.71 472.10 309.51 C 473.79 312.32 475.32 315.21 476.76 318.13 C 478.21 321.05 479.51 324.03 480.75 327.02 C 481.99 330.01 483.12 333.03 484.22 336.07 C 485.31 339.11 486.33 342.16 487.32 345.24 C 488.31 348.33 489.26 351.43 490.16 354.58 C 491.06 357.72 491.94 360.90 492.74 364.14 C 493.54 367.37 494.32 370.66 494.95 374.00 Z" fill="none" stroke="#FFFFFF" stroke-width="1.25" stroke-dasharray="9.0 10.7" opacity="0.81"/><path d="M 512.61 374.00 C 513.45 377.86 514.25 381.80 514.82 385.80 C 515.38 389.79 515.84 393.88 516.00 397.98 C 516.16 402.08 516.13 406.26 515.75 410.37 C 515.37 414.49 514.73 418.65 513.73 422.67 C 512.73 426.69 511.39 430.70 509.73 434.49 C 508.06 438.29 506.04 441.99 503.74 445.44 C 501.44 448.89 498.78 452.17 495.94 455.18 C 493.10 458.19 489.94 460.98 486.68 463.52 C 483.43 466.06 479.93 468.33 476.42 470.42 C 472.91 472.50 469.24 474.33 465.61 476.02 C 461.98 477.72 458.28 479.19 454.65 480.61 C 451.01 482.02 447.38 483.27 443.81 484.51 C 440.23 485.76 436.70 486.90 433.19 488.06 C 429.68 489.22 426.23 490.35 422.76 491.49 C 419.29 492.62 415.87 493.76 412.39 494.87 C 408.91 495.98 405.43 497.10 401.89 498.13 C 398.34 499.16 394.76 500.18 391.11 501.04 C 387.47 501.90 383.76 502.71 380.00 503.30 C 376.24 503.88 372.41 504.35 368.58 504.57 C 364.74 504.78 360.84 504.81 356.97 504.58 C 353.11 504.35 349.21 503.89 345.39 503.18 C 341.56 502.48 337.74 501.51 334.01 500.34 C 330.29 499.17 326.61 497.75 323.03 496.16 C 319.46 494.58 315.96 492.76 312.55 490.83 C 309.14 488.89 305.83 486.77 302.59 484.55 C 299.36 482.33 296.21 479.97 293.14 477.52 C 290.07 475.06 287.07 472.50 284.16 469.84 C 281.25 467.18 278.40 464.42 275.66 461.55 C 272.92 458.68 270.24 455.72 267.71 452.63 C 265.18 449.53 262.73 446.33 260.49 443.00 C 258.24 439.67 256.11 436.21 254.25 432.64 C 252.38 429.07 250.69 425.36 249.29 421.57 C 247.90 417.79 246.74 413.87 245.90 409.93 C 245.06 405.99 244.50 401.95 244.25 397.94 C 244.00 393.92 244.07 389.85 244.40 385.86 C 244.73 381.87 245.39 377.88 246.23 374.00 C 247.07 370.12 248.21 366.29 249.45 362.58 C 250.69 358.87 252.16 355.25 253.66 351.72 C 255.16 348.20 256.82 344.79 258.44 341.43 C 260.07 338.07 261.77 334.82 263.41 331.56 C 265.05 328.31 266.70 325.13 268.30 321.91 C 269.91 318.70 271.47 315.50 273.04 312.25 C 274.61 308.99 276.13 305.72 277.73 302.39 C 279.33 299.06 280.90 295.68 282.62 292.29 C 284.34 288.90 286.10 285.44 288.06 282.06 C 290.02 278.67 292.08 275.24 294.38 271.96 C 296.68 268.68 299.15 265.42 301.86 262.40 C 304.56 259.37 307.49 256.44 310.61 253.82 C 313.74 251.19 317.10 248.74 320.61 246.64 C 324.12 244.53 327.85 242.68 331.65 241.17 C 335.46 239.65 339.44 238.46 343.44 237.56 C 347.44 236.66 351.55 236.11 355.63 235.79 C 359.71 235.48 363.84 235.48 367.90 235.67 C 371.96 235.86 376.02 236.32 380.00 236.91 C 383.98 237.50 387.92 238.31 391.79 239.20 C 395.67 240.08 399.48 241.13 403.23 242.24 C 406.99 243.36 410.68 244.58 414.33 245.87 C 417.98 247.17 421.58 248.55 425.12 250.02 C 428.67 251.50 432.18 253.05 435.61 254.74 C 439.05 256.42 442.45 258.20 445.74 260.13 C 449.04 262.07 452.28 264.12 455.38 266.34 C 458.49 268.56 461.51 270.93 464.37 273.45 C 467.22 275.98 469.96 278.67 472.52 281.48 C 475.08 284.29 477.49 287.26 479.72 290.32 C 481.95 293.38 484.01 296.59 485.92 299.83 C 487.83 303.08 489.56 306.44 491.18 309.81 C 492.81 313.18 494.27 316.62 495.68 320.06 C 497.08 323.50 498.36 326.98 499.61 330.46 C 500.87 333.95 502.04 337.45 503.21 340.99 C 504.37 344.52 505.49 348.07 506.59 351.68 C 507.68 355.29 508.77 358.93 509.77 362.65 C 510.78 366.37 511.77 370.14 512.61 374.00 Z" fill="none" stroke="#FFFFFF" stroke-width="1.10" stroke-dasharray="7.2 12.3" opacity="0.77"/><path d="M 530.25 374.00 C 531.32 378.37 532.36 382.85 533.13 387.40 C 533.90 391.95 534.55 396.62 534.85 401.30 C 535.14 405.99 535.22 410.78 534.88 415.50 C 534.54 420.22 533.89 425.00 532.79 429.61 C 531.70 434.22 530.21 438.82 528.32 443.16 C 526.43 447.51 524.10 451.74 521.44 455.66 C 518.79 459.58 515.70 463.30 512.39 466.70 C 509.08 470.09 505.38 473.21 501.59 476.03 C 497.79 478.84 493.71 481.34 489.62 483.62 C 485.53 485.89 481.25 487.84 477.05 489.66 C 472.84 491.47 468.56 493.02 464.38 494.51 C 460.20 496.00 456.03 497.30 451.94 498.61 C 447.86 499.92 443.84 501.13 439.86 502.38 C 435.89 503.63 431.99 504.86 428.09 506.12 C 424.18 507.38 420.33 508.67 416.42 509.94 C 412.52 511.21 408.62 512.52 404.64 513.74 C 400.66 514.96 396.64 516.19 392.53 517.24 C 388.43 518.29 384.24 519.29 380.00 520.04 C 375.76 520.79 371.42 521.41 367.08 521.73 C 362.73 522.05 358.30 522.16 353.91 521.96 C 349.52 521.76 345.09 521.28 340.74 520.52 C 336.39 519.76 332.04 518.70 327.81 517.40 C 323.57 516.09 319.39 514.48 315.33 512.69 C 311.26 510.90 307.29 508.84 303.42 506.65 C 299.55 504.45 295.78 502.04 292.11 499.53 C 288.43 497.01 284.86 494.33 281.36 491.56 C 277.86 488.78 274.45 485.88 271.12 482.88 C 267.80 479.87 264.54 476.76 261.39 473.52 C 258.25 470.28 255.17 466.94 252.26 463.44 C 249.35 459.95 246.52 456.33 243.94 452.56 C 241.35 448.78 238.89 444.86 236.74 440.80 C 234.60 436.74 232.64 432.52 231.05 428.21 C 229.46 423.90 228.15 419.43 227.21 414.94 C 226.28 410.44 225.69 405.82 225.47 401.25 C 225.25 396.67 225.41 392.03 225.87 387.48 C 226.34 382.94 227.20 378.40 228.27 374.00 C 229.34 369.60 230.76 365.27 232.29 361.08 C 233.82 356.89 235.63 352.82 237.45 348.86 C 239.26 344.91 241.26 341.10 243.18 337.34 C 245.11 333.58 247.11 329.96 249.02 326.33 C 250.93 322.69 252.81 319.15 254.63 315.54 C 256.45 311.93 258.18 308.34 259.92 304.67 C 261.65 300.99 263.29 297.28 265.01 293.49 C 266.74 289.69 268.41 285.81 270.25 281.91 C 272.10 278.01 273.97 274.01 276.08 270.08 C 278.19 266.15 280.42 262.15 282.93 258.32 C 285.45 254.50 288.17 250.67 291.17 247.13 C 294.17 243.59 297.44 240.16 300.95 237.08 C 304.46 234.01 308.26 231.14 312.24 228.69 C 316.21 226.23 320.46 224.09 324.80 222.35 C 329.14 220.60 333.70 219.24 338.26 218.24 C 342.83 217.24 347.54 216.65 352.20 216.34 C 356.86 216.03 361.58 216.11 366.21 216.40 C 370.85 216.69 375.47 217.30 380.00 218.05 C 384.53 218.80 389.00 219.81 393.40 220.89 C 397.79 221.97 402.10 223.24 406.35 224.56 C 410.60 225.88 414.77 227.32 418.90 228.83 C 423.02 230.34 427.09 231.92 431.09 233.62 C 435.10 235.32 439.07 237.08 442.95 239.00 C 446.84 240.92 450.68 242.93 454.41 245.12 C 458.14 247.31 461.81 249.64 465.32 252.15 C 468.83 254.67 472.25 257.36 475.47 260.22 C 478.70 263.08 481.79 266.14 484.66 269.34 C 487.54 272.54 490.23 275.93 492.73 279.41 C 495.23 282.89 497.51 286.54 499.63 290.23 C 501.76 293.92 503.67 297.74 505.47 301.56 C 507.27 305.39 508.88 309.28 510.44 313.18 C 512.00 317.07 513.41 320.99 514.83 324.93 C 516.24 328.86 517.57 332.80 518.91 336.78 C 520.25 340.76 521.57 344.74 522.87 348.81 C 524.17 352.87 525.48 356.97 526.71 361.16 C 527.94 365.36 529.18 369.63 530.25 374.00 Z" fill="none" stroke="#FFFFFF" stroke-width="0.95" stroke-dasharray="5.4 13.8" opacity="0.73"/><path d="M 547.87 374.00 C 549.20 378.89 550.52 383.90 551.51 389.01 C 552.51 394.11 553.40 399.37 553.85 404.65 C 554.31 409.94 554.53 415.36 554.24 420.69 C 553.96 426.02 553.31 431.44 552.14 436.65 C 550.97 441.87 549.33 447.07 547.21 451.97 C 545.09 456.87 542.45 461.64 539.42 466.04 C 536.40 470.44 532.85 474.60 529.06 478.37 C 525.26 482.14 521.01 485.57 516.65 488.66 C 512.29 491.75 507.58 494.45 502.89 496.89 C 498.19 499.32 493.29 501.38 488.49 503.29 C 483.68 505.20 478.80 506.78 474.06 508.32 C 469.31 509.87 464.59 511.19 459.99 512.55 C 455.39 513.90 450.88 515.15 446.44 516.48 C 441.99 517.80 437.66 519.12 433.32 520.50 C 428.98 521.88 424.72 523.32 420.39 524.75 C 416.07 526.19 411.76 527.70 407.35 529.12 C 402.94 530.54 398.49 531.99 393.93 533.25 C 389.37 534.51 384.73 535.73 380.00 536.65 C 375.27 537.58 370.44 538.38 365.58 538.82 C 360.72 539.26 355.77 539.47 350.85 539.31 C 345.94 539.16 340.96 538.69 336.09 537.88 C 331.21 537.08 326.34 535.92 321.59 534.49 C 316.84 533.05 312.15 531.27 307.60 529.27 C 303.04 527.27 298.59 524.97 294.25 522.52 C 289.92 520.06 285.71 517.36 281.59 514.55 C 277.47 511.74 273.46 508.74 269.54 505.64 C 265.61 502.54 261.78 499.31 258.03 495.97 C 254.29 492.62 250.61 489.16 247.06 485.55 C 243.50 481.95 240.01 478.23 236.71 474.33 C 233.41 470.44 230.19 466.40 227.25 462.19 C 224.31 457.97 221.51 453.59 219.07 449.04 C 216.64 444.50 214.42 439.76 212.63 434.92 C 210.84 430.08 209.37 425.05 208.35 419.99 C 207.34 414.94 206.72 409.73 206.54 404.59 C 206.35 399.44 206.62 394.21 207.25 389.11 C 207.87 384.02 208.96 378.92 210.28 374.00 C 211.61 369.08 213.36 364.24 215.21 359.58 C 217.06 354.92 219.23 350.41 221.39 346.03 C 223.55 341.65 225.90 337.45 228.16 333.31 C 230.41 329.17 232.73 325.19 234.91 321.19 C 237.09 317.19 239.23 313.29 241.25 309.30 C 243.28 305.31 245.19 301.34 247.06 297.25 C 248.94 293.16 250.69 289.00 252.52 284.74 C 254.35 280.47 256.10 276.09 258.04 271.66 C 259.98 267.24 261.93 262.67 264.17 258.17 C 266.42 253.68 268.78 249.08 271.49 244.68 C 274.20 240.28 277.14 235.87 280.42 231.79 C 283.71 227.71 287.30 223.73 291.20 220.19 C 295.09 216.64 299.32 213.34 303.77 210.52 C 308.21 207.70 312.98 205.25 317.86 203.27 C 322.74 201.30 327.88 199.77 333.02 198.67 C 338.17 197.57 343.48 196.95 348.73 196.66 C 353.98 196.37 359.30 196.54 364.51 196.95 C 369.72 197.35 374.92 198.14 380.00 199.07 C 385.08 199.99 390.09 201.22 395.00 202.51 C 399.92 203.81 404.73 205.31 409.47 206.85 C 414.22 208.40 418.87 210.06 423.46 211.80 C 428.06 213.53 432.58 215.34 437.05 217.26 C 441.52 219.18 445.93 221.16 450.27 223.31 C 454.60 225.46 458.89 227.71 463.05 230.16 C 467.21 232.61 471.31 235.20 475.22 238.01 C 479.14 240.82 482.95 243.83 486.54 247.03 C 490.12 250.24 493.56 253.67 496.75 257.25 C 499.93 260.84 502.91 264.65 505.66 268.55 C 508.41 272.46 510.92 276.56 513.25 280.70 C 515.57 284.84 517.65 289.12 519.61 293.39 C 521.58 297.67 523.32 302.03 525.03 306.37 C 526.74 310.71 528.29 315.08 529.86 319.46 C 531.43 323.83 532.92 328.20 534.44 332.62 C 535.96 337.04 537.48 341.45 539.00 345.96 C 540.51 350.48 542.07 355.02 543.55 359.69 C 545.03 364.36 546.55 369.11 547.87 374.00 Z" fill="none" stroke="#FFFFFF" stroke-width="0.81" stroke-dasharray="3.7 15.4" opacity="0.69"/><path d="M 565.47 374.00 C 567.09 379.40 568.71 384.95 569.96 390.62 C 571.22 396.29 572.37 402.15 573.01 408.03 C 573.66 413.92 574.05 419.98 573.84 425.94 C 573.63 431.90 573.01 437.97 571.77 443.80 C 570.53 449.63 568.74 455.45 566.40 460.92 C 564.05 466.38 561.09 471.70 557.68 476.58 C 554.27 481.46 550.26 486.06 545.95 490.20 C 541.65 494.34 536.81 498.09 531.86 501.42 C 526.90 504.76 521.55 507.65 516.23 510.23 C 510.91 512.81 505.35 514.95 499.93 516.92 C 494.50 518.89 489.00 520.49 483.67 522.06 C 478.34 523.63 473.07 524.94 467.94 526.32 C 462.82 527.71 457.82 528.97 452.91 530.36 C 448.00 531.74 443.23 533.14 438.46 534.63 C 433.70 536.12 429.04 537.71 424.30 539.31 C 419.56 540.92 414.85 542.64 410.02 544.27 C 405.19 545.90 400.32 547.60 395.32 549.08 C 390.31 550.56 385.20 552.02 380.00 553.14 C 374.80 554.27 369.46 555.26 364.09 555.84 C 358.72 556.43 353.24 556.75 347.79 556.65 C 342.35 556.56 336.84 556.10 331.43 555.26 C 326.02 554.42 320.62 553.18 315.35 551.62 C 310.09 550.06 304.89 548.09 299.84 545.89 C 294.80 543.70 289.87 541.14 285.07 538.43 C 280.26 535.72 275.60 532.72 271.04 529.62 C 266.47 526.51 262.04 523.19 257.68 519.78 C 253.32 516.36 249.06 512.80 244.89 509.11 C 240.72 505.42 236.62 501.62 232.64 497.65 C 228.67 493.68 224.76 489.58 221.06 485.29 C 217.35 481.00 213.73 476.56 210.43 471.90 C 207.13 467.24 203.97 462.39 201.24 457.36 C 198.50 452.32 196.01 447.07 194.03 441.69 C 192.04 436.31 190.41 430.72 189.31 425.09 C 188.22 419.47 187.58 413.68 187.45 407.95 C 187.32 402.23 187.72 396.41 188.52 390.75 C 189.33 385.09 190.67 379.44 192.28 374.00 C 193.90 368.56 195.99 363.22 198.19 358.09 C 200.39 352.97 202.96 348.02 205.49 343.23 C 208.02 338.44 210.77 333.86 213.36 329.35 C 215.96 324.84 218.62 320.52 221.08 316.16 C 223.55 311.80 225.94 307.56 228.17 303.20 C 230.41 298.84 232.48 294.50 234.49 289.99 C 236.50 285.48 238.34 280.89 240.25 276.15 C 242.17 271.41 243.96 266.51 245.98 261.54 C 247.99 256.57 250.00 251.43 252.34 246.34 C 254.69 241.26 257.16 236.04 260.04 231.04 C 262.92 226.04 266.07 221.01 269.62 216.36 C 273.17 211.71 277.09 207.17 281.35 203.13 C 285.61 199.09 290.28 195.33 295.19 192.13 C 300.11 188.94 305.41 186.16 310.83 183.95 C 316.24 181.73 321.98 180.04 327.71 178.84 C 333.44 177.64 339.37 177.01 345.22 176.75 C 351.07 176.49 356.99 176.77 362.79 177.31 C 368.59 177.84 374.36 178.83 380.00 179.95 C 385.64 181.08 391.18 182.54 396.62 184.07 C 402.05 185.60 407.36 187.34 412.60 189.13 C 417.83 190.92 422.95 192.82 428.02 194.79 C 433.09 196.76 438.07 198.79 442.99 200.93 C 447.91 203.08 452.78 205.29 457.56 207.67 C 462.34 210.05 467.07 212.53 471.66 215.24 C 476.25 217.95 480.77 220.81 485.09 223.92 C 489.41 227.03 493.61 230.34 497.56 233.90 C 501.51 237.45 505.28 241.24 508.78 245.22 C 512.27 249.20 515.53 253.43 518.52 257.76 C 521.52 262.10 524.24 266.65 526.76 271.24 C 529.27 275.83 531.51 280.57 533.62 285.31 C 535.74 290.04 537.61 294.85 539.46 299.64 C 541.31 304.43 542.99 309.24 544.71 314.05 C 546.43 318.86 548.08 323.66 549.79 328.51 C 551.50 333.36 553.22 338.19 554.97 343.15 C 556.72 348.10 558.54 353.08 560.29 358.23 C 562.04 363.37 563.86 368.60 565.47 374.00 Z" fill="none" stroke="#FFFFFF" stroke-width="0.66" stroke-dasharray="1.9 17.0" opacity="0.65"/><circle cx="380.0" cy="374.0" r="7.1" fill="#FFFFFF"/></g><g fill="#FFFFFF" transform="translate(121.60 667.03) scale(0.066072 -0.066072)"><path d="M673 -23C1029 -23 1237 156 1237 418C1237 678 1020 793 799 846L660 882C539 912 406 962 406 1087C406 1200 508 1283 676 1283C837 1283 945 1209 958 1082H1217C1210 1331 998 1510 680 1510C368 1510 136 1334 136 1071C136 861 283 735 532 671L701 627C862 585 970 536 970 420C970 292 847 205 671 205C503 205 370 281 358 438H95C107 144 326 -23 673 -23Z" transform="translate(0.0 0)"/><path d="M521 -14C683 -14 800 64 867 224L869 0H1116V1118H855V463C855 301 755 207 617 207C481 207 398 297 398 447V1118H138V407C138 138 291 -14 521 -14Z" transform="translate(3310.9 0)"/><path d="M728 -20C993 -20 1190 190 1190 557C1190 929 987 1132 729 1132C530 1132 448 1012 409 933H398V1490H138V0H392V177H409C449 96 536 -20 728 -20ZM658 194C488 194 393 340 393 558C393 776 486 918 658 918C834 918 923 766 923 558C923 348 832 194 658 194Z" transform="translate(6543.8 0)"/></g><g fill="#FFFFFF" transform="translate(121.60 786.11) scale(0.066072 -0.066072)"><path d="M785 -20C1137 -20 1373 211 1414 496H1144C1110 320 966 219 788 219C546 219 371 402 371 744C371 1082 545 1271 789 1271C967 1271 1111 1170 1144 994H1413C1366 1320 1112 1510 785 1510C396 1510 103 1226 103 744C103 264 393 -20 785 -20Z" transform="translate(0.0 0)"/><path d="M521 -14C683 -14 800 64 867 224L869 0H1116V1118H855V463C855 301 755 207 617 207C481 207 398 297 398 447V1118H138V407C138 138 291 -14 521 -14Z" transform="translate(1550.0 0)"/><path d="M138 0H398V658C398 800 505 900 650 900C696 900 751 893 773 887V1126C748 1130 707 1133 678 1133C550 1133 442 1060 402 931H390V1118H138Z" transform="translate(2844.9 0)"/><path d="M138 0H398V658C398 800 505 900 650 900C696 900 751 893 773 887V1126C748 1130 707 1133 678 1133C550 1133 442 1060 402 931H390V1118H138Z" transform="translate(3698.9 0)"/><path d="M632 -23C881 -23 1055 96 1109 277L870 326C835 231 749 181 635 181C468 181 355 287 348 486H1126V568C1126 960 888 1132 615 1132C295 1132 89 896 89 552C89 202 295 -23 632 -23ZM349 663C361 812 457 928 616 928C771 928 858 823 873 663Z" transform="translate(4552.8 0)"/><path d="M398 655C398 817 498 911 637 911C773 911 855 821 855 671V0H1115V711C1115 980 963 1132 733 1132C569 1132 453 1052 387 895L384 1118H138V0H398Z" transform="translate(5804.8 0)"/><path d="M655 1118H439V1384H179V1118H20V914H179V293C179 95 298 -15 512 -15C567 -15 629 -8 686 9L645 210C620 204 574 197 550 197C471 197 439 234 439 315V914H655Z" transform="translate(7098.8 0)"/></g><g opacity="0.5"><g fill="#FFFFFF" transform="translate(181.43 990.00) scale(0.013359 -0.013359)"><path d="M657 -26C1001 -26 1198 162 1198 406C1198 684 936 774 776 818L627 859C518 889 343 944 343 1100C343 1240 471 1342 664 1342C841 1342 975 1259 992 1114H1178C1169 1339 964 1510 670 1510C382 1510 158 1343 158 1091C158 893 298 770 538 702L718 651C877 606 1013 553 1013 409C1013 250 859 144 657 144C482 144 326 221 311 390H116C133 140 334 -26 657 -26Z" transform="translate(0.0 0)"/><path d="M763 -24C1114 -24 1344 200 1344 507V1490H1154V522C1154 308 1006 152 763 152C519 152 370 308 370 522V1490H180V507C180 200 410 -24 763 -24Z" transform="translate(1846.5 0)"/><path d="M180 0H725C1076 0 1224 172 1224 397C1224 631 1061 759 922 768V782C1052 817 1166 904 1166 1095C1166 1313 1019 1490 708 1490H180ZM370 168V676H730C921 676 1041 548 1041 399C1041 270 952 168 720 168ZM370 836V1322H704C897 1322 984 1220 984 1091C984 937 858 836 698 836Z" transform="translate(3903.0 0)"/><path d="M783 -20C1088 -20 1332 166 1384 469H1194C1152 266 978 156 783 156C516 156 307 363 307 744C307 1126 515 1334 783 1334C977 1334 1152 1225 1194 1021H1384C1331 1328 1085 1510 783 1510C401 1510 122 1217 122 744C122 272 401 -20 783 -20Z" transform="translate(5775.4 0)"/><path d="M763 -24C1114 -24 1344 200 1344 507V1490H1154V522C1154 308 1006 152 763 152C519 152 370 308 370 522V1490H180V507C180 200 410 -24 763 -24Z" transform="translate(7803.9 0)"/><path d="M180 0H370V578H691C703 578 714 578 726 579L1036 0H1256L922 613C1110 679 1198 832 1198 1030C1198 1296 1038 1490 690 1490H180ZM370 747V1323H680C917 1323 1009 1207 1009 1030C1009 855 917 747 682 747Z" transform="translate(9860.4 0)"/><path d="M180 0H370V578H691C703 578 714 578 726 579L1036 0H1256L922 613C1110 679 1198 832 1198 1030C1198 1296 1038 1490 690 1490H180ZM370 747V1323H680C917 1323 1009 1207 1009 1030C1009 855 917 747 682 747Z" transform="translate(11710.9 0)"/><path d="M180 0H1097V168H370V668H1039V836H370V1322H1088V1490H180Z" transform="translate(13561.4 0)"/><path d="M180 0H371V850C371 922 364 1071 356 1262C472 1055 529 955 597 848L1137 0H1363V1490H1173V576C1173 496 1174 369 1186 225C1118 360 1050 474 1010 537L404 1490H180Z" transform="translate(15324.8 0)"/><path d="M98 1322H567V0H757V1322H1224V1490H98Z" transform="translate(17400.3 0)"/><path d="M295 -13C370 -13 430 47 430 122C430 197 370 257 295 257C220 257 160 197 160 122C160 47 220 -13 295 -13Z" transform="translate(19254.8 0)"/><path d="M98 1322H567V0H757V1322H1224V1490H98Z" transform="translate(20377.3 0)"/><path d="M784 -20C1166 -20 1444 272 1444 744C1444 1217 1166 1510 784 1510C402 1510 122 1217 122 744C122 272 402 -20 784 -20ZM784 156C516 156 307 364 307 744C307 1126 516 1334 784 1334C1050 1334 1259 1127 1259 744C1259 363 1050 156 784 156Z" transform="translate(22231.8 0)"/><path d="M180 0H370V489L585 716L1094 0H1319L716 845L1318 1490H1069L624 1009C533 911 450 813 367 706L370 980V1490H180Z" transform="translate(24330.2 0)"/><path d="M600 0H790V610L1338 1490H1119L825 1009C777 930 737 862 697 766C657 859 617 927 567 1009L272 1490H52L600 610Z" transform="translate(26238.7 0)"/><path d="M784 -20C1166 -20 1444 272 1444 744C1444 1217 1166 1510 784 1510C402 1510 122 1217 122 744C122 272 402 -20 784 -20ZM784 156C516 156 307 364 307 744C307 1126 516 1334 784 1334C1050 1334 1259 1127 1259 744C1259 363 1050 156 784 156Z" transform="translate(28161.2 0)"/></g></g></g></svg>