<svg xmlns="http://www.w3.org/2000/svg" width="760" height="1220" viewBox="0 0 760 1220"><title></title><defs><clipPath id="u8c"><path d="M 30 30 L 730 30 L 730 1030 L 380.0 1180 L 30 1030 Z"/></clipPath></defs><g clip-path="url(#u8c)"><path d="M 30 30 L 730 30 L 730 1030 L 380.0 1180 L 30 1030 Z" fill="#04070B"/><g opacity="0.9"><defs><clipPath id="hxu8"><path d="M 562.67 335.50 C 563.45 341.47 564.08 347.55 564.32 353.65 C 564.57 359.76 564.59 365.97 564.14 372.13 C 563.70 378.29 562.94 384.53 561.68 390.61 C 560.41 396.70 558.74 402.79 556.58 408.64 C 554.42 414.49 551.78 420.25 548.74 425.69 C 545.69 431.13 542.14 436.38 538.29 441.27 C 534.45 446.16 530.14 450.77 525.64 455.03 C 521.15 459.29 516.28 463.21 511.33 466.83 C 506.38 470.46 501.17 473.73 495.95 476.79 C 490.73 479.84 485.36 482.58 480.01 485.17 C 474.65 487.76 469.24 490.10 463.83 492.34 C 458.42 494.58 453.01 496.64 447.56 498.61 C 442.12 500.58 436.67 502.43 431.16 504.16 C 425.65 505.88 420.12 507.52 414.50 508.95 C 408.88 510.38 403.21 511.71 397.46 512.76 C 391.71 513.81 385.87 514.70 380.00 515.24 C 374.13 515.78 368.16 516.09 362.22 516.00 C 356.28 515.92 350.27 515.53 344.35 514.74 C 338.42 513.96 332.48 512.81 326.67 511.31 C 320.86 509.81 315.09 507.93 309.48 505.74 C 303.88 503.56 298.37 501.00 293.03 498.21 C 287.69 495.42 282.48 492.30 277.44 488.99 C 272.40 485.67 267.51 482.09 262.79 478.32 C 258.06 474.56 253.48 470.58 249.08 466.42 C 244.68 462.26 240.42 457.91 236.38 453.37 C 232.34 448.83 228.45 444.10 224.84 439.18 C 221.23 434.26 217.79 429.14 214.72 423.85 C 211.64 418.55 208.80 413.05 206.38 407.42 C 203.95 401.78 201.84 395.95 200.18 390.05 C 198.52 384.15 197.25 378.07 196.43 372.01 C 195.60 365.96 195.22 359.78 195.24 353.70 C 195.25 347.61 195.73 341.49 196.51 335.50 C 197.29 329.51 198.51 323.57 199.93 317.76 C 201.34 311.96 203.13 306.27 205.02 300.69 C 206.91 295.12 209.07 289.68 211.28 284.32 C 213.49 278.96 215.87 273.72 218.29 268.52 C 220.71 263.31 223.22 258.20 225.81 253.08 C 228.40 247.97 231.05 242.90 233.84 237.84 C 236.64 232.78 239.50 227.72 242.60 222.74 C 245.69 217.75 248.91 212.75 252.42 207.92 C 255.93 203.09 259.63 198.27 263.66 193.74 C 267.69 189.21 271.98 184.77 276.58 180.72 C 281.17 176.66 286.08 172.81 291.23 169.41 C 296.37 166.01 301.83 162.93 307.44 160.32 C 313.05 157.71 318.93 155.51 324.87 153.76 C 330.81 152.01 336.95 150.72 343.07 149.83 C 349.18 148.93 355.41 148.49 361.57 148.37 C 367.72 148.24 373.91 148.54 380.00 149.08 C 386.09 149.62 392.15 150.52 398.11 151.61 C 404.08 152.70 409.97 154.07 415.78 155.62 C 421.59 157.17 427.32 158.95 432.96 160.92 C 438.60 162.89 444.16 165.06 449.61 167.45 C 455.05 169.85 460.42 172.44 465.64 175.29 C 470.85 178.13 475.97 181.20 480.87 184.53 C 485.78 187.87 490.56 191.45 495.08 195.28 C 499.60 199.11 503.94 203.21 507.99 207.51 C 512.05 211.81 515.88 216.37 519.43 221.08 C 522.97 225.78 526.25 230.72 529.29 235.75 C 532.32 240.78 535.08 245.98 537.64 251.24 C 540.20 256.50 542.51 261.87 544.66 267.29 C 546.82 272.71 548.76 278.21 550.57 283.76 C 552.39 289.30 554.04 294.91 555.55 300.58 C 557.06 306.26 558.45 311.99 559.63 317.81 C 560.82 323.63 561.89 329.53 562.67 335.50 Z M 541.56 335.50 C 542.25 340.78 542.80 346.16 543.02 351.56 C 543.24 356.96 543.25 362.45 542.86 367.90 C 542.47 373.34 541.79 378.86 540.68 384.24 C 539.56 389.62 538.08 395.02 536.17 400.19 C 534.26 405.36 531.93 410.46 529.23 415.27 C 526.54 420.08 523.40 424.72 520.00 429.04 C 516.59 433.37 512.78 437.44 508.81 441.21 C 504.84 444.98 500.53 448.45 496.15 451.65 C 491.78 454.86 487.17 457.75 482.55 460.46 C 477.93 463.16 473.18 465.58 468.45 467.87 C 463.71 470.16 458.92 472.23 454.14 474.21 C 449.36 476.19 444.57 478.02 439.75 479.76 C 434.94 481.50 430.12 483.14 425.25 484.66 C 420.38 486.19 415.48 487.63 410.51 488.90 C 405.55 490.17 400.53 491.35 395.44 492.27 C 390.36 493.20 385.19 493.99 380.00 494.47 C 374.81 494.95 369.53 495.21 364.28 495.14 C 359.02 495.07 353.71 494.72 348.47 494.03 C 343.23 493.34 337.97 492.32 332.83 490.99 C 327.69 489.67 322.59 488.00 317.63 486.07 C 312.68 484.13 307.80 481.88 303.08 479.41 C 298.36 476.94 293.76 474.18 289.30 471.25 C 284.84 468.31 280.52 465.14 276.33 461.82 C 272.15 458.49 268.10 454.97 264.21 451.29 C 260.32 447.61 256.55 443.76 252.98 439.74 C 249.41 435.73 245.96 431.55 242.77 427.19 C 239.58 422.84 236.54 418.32 233.82 413.63 C 231.10 408.95 228.59 404.09 226.44 399.11 C 224.30 394.12 222.43 388.96 220.96 383.74 C 219.50 378.52 218.37 373.15 217.64 367.79 C 216.92 362.44 216.58 356.98 216.59 351.59 C 216.60 346.21 217.03 340.80 217.72 335.50 C 218.41 330.20 219.48 324.94 220.74 319.81 C 221.99 314.68 223.57 309.65 225.24 304.72 C 226.92 299.79 228.83 294.98 230.78 290.24 C 232.74 285.49 234.84 280.86 236.98 276.26 C 239.12 271.66 241.34 267.13 243.63 262.61 C 245.93 258.09 248.26 253.60 250.74 249.13 C 253.21 244.65 255.74 240.18 258.48 235.77 C 261.22 231.36 264.06 226.94 267.16 222.66 C 270.27 218.39 273.55 214.13 277.11 210.13 C 280.67 206.12 284.47 202.19 288.53 198.61 C 292.59 195.02 296.94 191.62 301.49 188.61 C 306.03 185.60 310.87 182.88 315.83 180.57 C 320.78 178.26 325.99 176.32 331.24 174.77 C 336.49 173.22 341.93 172.08 347.34 171.29 C 352.75 170.49 358.26 170.10 363.70 169.99 C 369.14 169.88 374.61 170.15 380.00 170.63 C 385.39 171.11 390.74 171.90 396.02 172.86 C 401.29 173.82 406.51 175.04 411.64 176.41 C 416.78 177.78 421.85 179.35 426.84 181.10 C 431.82 182.84 436.75 184.76 441.56 186.88 C 446.38 188.99 451.13 191.29 455.74 193.80 C 460.35 196.32 464.87 199.04 469.21 201.98 C 473.55 204.93 477.78 208.10 481.78 211.49 C 485.77 214.87 489.61 218.50 493.20 222.30 C 496.79 226.10 500.17 230.14 503.31 234.30 C 506.45 238.46 509.35 242.83 512.03 247.28 C 514.72 251.72 517.16 256.33 519.42 260.98 C 521.69 265.63 523.73 270.38 525.63 275.18 C 527.54 279.97 529.25 284.83 530.86 289.74 C 532.46 294.64 533.93 299.60 535.26 304.62 C 536.60 309.64 537.82 314.71 538.87 319.85 C 539.92 325.00 540.87 330.22 541.56 335.50 Z" clip-rule="evenodd"/><path d="M 498.41 335.50 C 498.92 339.37 499.33 343.31 499.49 347.27 C 499.65 351.23 499.66 355.25 499.37 359.24 C 499.08 363.24 498.59 367.28 497.77 371.22 C 496.95 375.17 495.86 379.12 494.47 382.91 C 493.07 386.70 491.36 390.44 489.38 393.97 C 487.41 397.49 485.11 400.89 482.61 404.06 C 480.12 407.23 477.32 410.22 474.41 412.98 C 471.50 415.74 468.34 418.28 465.13 420.63 C 461.93 422.99 458.55 425.11 455.16 427.09 C 451.78 429.07 448.30 430.84 444.83 432.52 C 441.36 434.20 437.85 435.72 434.34 437.17 C 430.84 438.62 427.33 439.96 423.80 441.23 C 420.27 442.51 416.74 443.71 413.17 444.83 C 409.59 445.95 406.01 447.01 402.37 447.94 C 398.72 448.87 395.05 449.73 391.32 450.41 C 387.59 451.09 383.81 451.67 380.00 452.02 C 376.19 452.37 372.33 452.56 368.48 452.51 C 364.62 452.46 360.73 452.20 356.89 451.69 C 353.05 451.19 349.19 450.44 345.43 449.47 C 341.66 448.50 337.92 447.27 334.29 445.86 C 330.65 444.44 327.08 442.79 323.62 440.98 C 320.16 439.17 316.79 437.14 313.52 435.00 C 310.25 432.85 307.08 430.52 304.02 428.08 C 300.95 425.65 297.98 423.06 295.13 420.37 C 292.28 417.67 289.52 414.85 286.90 411.91 C 284.28 408.96 281.76 405.90 279.42 402.71 C 277.08 399.52 274.85 396.20 272.86 392.77 C 270.86 389.34 269.02 385.77 267.45 382.12 C 265.88 378.47 264.51 374.68 263.43 370.86 C 262.36 367.04 261.53 363.10 261.00 359.17 C 260.47 355.24 260.22 351.24 260.23 347.30 C 260.24 343.35 260.55 339.38 261.05 335.50 C 261.56 331.62 262.35 327.76 263.27 324.00 C 264.19 320.24 265.34 316.55 266.57 312.94 C 267.80 309.32 269.20 305.80 270.63 302.32 C 272.06 298.85 273.60 295.45 275.17 292.08 C 276.74 288.70 278.37 285.39 280.05 282.08 C 281.73 278.76 283.44 275.47 285.26 272.19 C 287.07 268.91 288.92 265.63 290.93 262.40 C 292.94 259.17 295.02 255.93 297.30 252.80 C 299.57 249.66 301.97 246.54 304.58 243.61 C 307.20 240.67 309.98 237.79 312.96 235.16 C 315.94 232.54 319.12 230.04 322.45 227.84 C 325.79 225.63 329.33 223.63 332.96 221.94 C 336.60 220.25 340.41 218.83 344.26 217.69 C 348.11 216.56 352.09 215.72 356.06 215.14 C 360.02 214.55 364.06 214.27 368.05 214.19 C 372.04 214.11 376.05 214.31 380.00 214.66 C 383.95 215.01 387.88 215.59 391.74 216.29 C 395.61 217.00 399.43 217.89 403.19 218.89 C 406.96 219.90 410.68 221.05 414.33 222.33 C 417.98 223.61 421.59 225.01 425.12 226.57 C 428.65 228.12 432.13 229.80 435.51 231.64 C 438.89 233.49 442.21 235.48 445.39 237.64 C 448.57 239.80 451.67 242.12 454.60 244.60 C 457.53 247.09 460.34 249.74 462.97 252.53 C 465.60 255.32 468.08 258.27 470.38 261.33 C 472.68 264.38 474.81 267.58 476.77 270.84 C 478.74 274.10 480.53 277.47 482.19 280.88 C 483.85 284.29 485.34 287.77 486.74 291.29 C 488.14 294.80 489.40 298.36 490.57 301.96 C 491.75 305.55 492.82 309.18 493.80 312.86 C 494.78 316.54 495.68 320.26 496.45 324.03 C 497.21 327.80 497.91 331.63 498.41 335.50 Z M 484.64 335.50 C 485.09 338.92 485.45 342.40 485.59 345.90 C 485.73 349.40 485.74 352.95 485.49 356.48 C 485.24 360.01 484.80 363.58 484.08 367.07 C 483.35 370.56 482.39 374.05 481.16 377.40 C 479.92 380.75 478.41 384.05 476.66 387.17 C 474.92 390.28 472.89 393.29 470.68 396.09 C 468.48 398.89 466.01 401.53 463.43 403.97 C 460.86 406.41 458.07 408.66 455.24 410.74 C 452.40 412.81 449.42 414.69 446.42 416.44 C 443.43 418.19 440.36 419.76 437.29 421.24 C 434.22 422.73 431.12 424.06 428.02 425.35 C 424.93 426.63 421.82 427.81 418.70 428.94 C 415.58 430.07 412.47 431.13 409.31 432.12 C 406.15 433.10 402.98 434.04 399.76 434.86 C 396.55 435.68 393.30 436.45 390.00 437.05 C 386.71 437.65 383.36 438.16 380.00 438.47 C 376.64 438.78 373.22 438.95 369.82 438.90 C 366.41 438.86 362.97 438.63 359.58 438.18 C 356.18 437.73 352.78 437.08 349.45 436.22 C 346.12 435.36 342.82 434.28 339.60 433.03 C 336.39 431.77 333.24 430.31 330.18 428.71 C 327.12 427.11 324.14 425.33 321.25 423.43 C 318.36 421.53 315.56 419.47 312.85 417.32 C 310.14 415.16 307.52 412.88 305.00 410.50 C 302.48 408.12 300.04 405.62 297.72 403.02 C 295.41 400.42 293.18 397.71 291.11 394.89 C 289.04 392.07 287.08 389.14 285.32 386.11 C 283.55 383.08 281.92 379.93 280.54 376.70 C 279.15 373.47 277.94 370.13 276.99 366.75 C 276.04 363.37 275.31 359.89 274.84 356.42 C 274.37 352.95 274.15 349.41 274.16 345.92 C 274.16 342.44 274.44 338.93 274.88 335.50 C 275.33 332.07 276.03 328.66 276.84 325.34 C 277.65 322.02 278.68 318.75 279.76 315.56 C 280.84 312.37 282.08 309.25 283.35 306.18 C 284.61 303.11 285.98 300.11 287.36 297.13 C 288.75 294.15 290.19 291.22 291.67 288.29 C 293.16 285.36 294.67 282.45 296.27 279.55 C 297.87 276.66 299.51 273.76 301.29 270.90 C 303.06 268.04 304.90 265.18 306.91 262.41 C 308.92 259.64 311.05 256.89 313.35 254.29 C 315.66 251.69 318.12 249.15 320.75 246.83 C 323.39 244.51 326.20 242.30 329.14 240.36 C 332.09 238.41 335.22 236.64 338.43 235.15 C 341.64 233.65 345.02 232.39 348.42 231.39 C 351.82 230.39 355.34 229.65 358.84 229.13 C 362.35 228.62 365.92 228.37 369.44 228.30 C 372.97 228.23 376.51 228.40 380.00 228.71 C 383.49 229.02 386.96 229.53 390.38 230.15 C 393.79 230.78 397.17 231.56 400.50 232.45 C 403.82 233.34 407.11 234.36 410.34 235.49 C 413.57 236.62 416.76 237.86 419.88 239.23 C 423.00 240.60 426.07 242.09 429.06 243.72 C 432.04 245.35 434.97 247.11 437.79 249.02 C 440.60 250.93 443.33 252.98 445.92 255.17 C 448.51 257.37 451.00 259.71 453.32 262.18 C 455.65 264.64 457.84 267.25 459.87 269.95 C 461.90 272.65 463.78 275.48 465.52 278.36 C 467.26 281.24 468.84 284.22 470.31 287.23 C 471.78 290.24 473.09 293.32 474.33 296.43 C 475.56 299.53 476.68 302.68 477.72 305.86 C 478.76 309.04 479.70 312.24 480.57 315.50 C 481.43 318.75 482.23 322.03 482.91 325.36 C 483.59 328.70 484.20 332.08 484.64 335.50 Z" clip-rule="evenodd"/><path d="M 442.42 335.50 C 442.69 337.54 442.90 339.62 442.98 341.70 C 443.07 343.79 443.07 345.91 442.92 348.02 C 442.77 350.12 442.51 352.25 442.08 354.33 C 441.65 356.41 441.08 358.50 440.34 360.49 C 439.60 362.49 438.70 364.46 437.66 366.32 C 436.62 368.18 435.41 369.97 434.09 371.64 C 432.78 373.31 431.30 374.89 429.77 376.34 C 428.23 377.80 426.57 379.14 424.88 380.38 C 423.19 381.62 421.41 382.73 419.62 383.78 C 417.84 384.82 416.00 385.76 414.17 386.64 C 412.34 387.53 410.49 388.33 408.65 389.09 C 406.80 389.86 404.95 390.56 403.09 391.24 C 401.23 391.91 399.37 392.54 397.48 393.13 C 395.60 393.72 393.71 394.28 391.79 394.77 C 389.87 395.26 387.93 395.71 385.97 396.07 C 384.00 396.43 382.01 396.73 380.00 396.92 C 377.99 397.10 375.96 397.21 373.93 397.18 C 371.89 397.15 369.84 397.02 367.82 396.75 C 365.79 396.48 363.76 396.09 361.78 395.58 C 359.79 395.06 357.82 394.42 355.90 393.67 C 353.99 392.93 352.11 392.05 350.28 391.10 C 348.46 390.15 346.68 389.08 344.96 387.95 C 343.23 386.81 341.56 385.59 339.95 384.30 C 338.33 383.02 336.77 381.66 335.26 380.24 C 333.76 378.82 332.30 377.33 330.92 375.78 C 329.54 374.22 328.21 372.61 326.98 370.93 C 325.75 369.25 324.57 367.50 323.52 365.69 C 322.47 363.88 321.50 362.00 320.67 360.07 C 319.84 358.15 319.12 356.16 318.55 354.14 C 317.99 352.12 317.55 350.05 317.27 347.98 C 316.99 345.91 316.86 343.80 316.86 341.72 C 316.87 339.64 317.03 337.55 317.30 335.50 C 317.57 333.45 317.98 331.42 318.47 329.44 C 318.95 327.46 319.56 325.51 320.21 323.61 C 320.85 321.70 321.59 319.84 322.35 318.01 C 323.10 316.18 323.92 314.39 324.74 312.61 C 325.57 310.83 326.43 309.09 327.31 307.34 C 328.20 305.59 329.10 303.86 330.06 302.13 C 331.01 300.40 331.99 298.67 333.05 296.97 C 334.11 295.26 335.20 293.56 336.40 291.90 C 337.60 290.25 338.87 288.61 340.25 287.06 C 341.62 285.51 343.09 284.00 344.66 282.61 C 346.23 281.22 347.91 279.91 349.66 278.75 C 351.42 277.59 353.29 276.53 355.21 275.64 C 357.12 274.75 359.13 274.00 361.16 273.40 C 363.19 272.80 365.29 272.36 367.38 272.05 C 369.47 271.75 371.60 271.60 373.70 271.55 C 375.81 271.51 377.92 271.61 380.00 271.80 C 382.08 271.98 384.15 272.29 386.19 272.66 C 388.23 273.03 390.24 273.50 392.23 274.03 C 394.21 274.56 396.17 275.17 398.10 275.84 C 400.02 276.52 401.92 277.26 403.79 278.08 C 405.65 278.90 407.48 279.78 409.26 280.75 C 411.04 281.73 412.79 282.78 414.47 283.91 C 416.15 285.05 417.78 286.28 419.32 287.59 C 420.87 288.89 422.35 290.29 423.74 291.76 C 425.12 293.23 426.43 294.79 427.64 296.40 C 428.86 298.01 429.98 299.70 431.01 301.41 C 432.05 303.13 432.99 304.91 433.87 306.71 C 434.74 308.50 435.53 310.34 436.27 312.19 C 437.00 314.05 437.67 315.92 438.29 317.82 C 438.91 319.71 439.47 321.63 439.99 323.57 C 440.50 325.51 440.98 327.47 441.38 329.45 C 441.79 331.44 442.15 333.46 442.42 335.50 Z M 427.73 335.50 C 427.94 337.06 428.10 338.65 428.16 340.24 C 428.23 341.84 428.23 343.46 428.12 345.07 C 428.00 346.68 427.80 348.31 427.47 349.90 C 427.14 351.49 426.70 353.08 426.14 354.61 C 425.58 356.14 424.89 357.65 424.09 359.07 C 423.30 360.49 422.37 361.86 421.36 363.14 C 420.36 364.42 419.23 365.62 418.06 366.73 C 416.88 367.85 415.61 368.87 414.32 369.82 C 413.02 370.77 411.66 371.62 410.30 372.42 C 408.93 373.22 407.53 373.93 406.13 374.61 C 404.73 375.29 403.32 375.90 401.91 376.48 C 400.49 377.07 399.08 377.61 397.65 378.12 C 396.23 378.64 394.81 379.12 393.37 379.57 C 391.93 380.02 390.48 380.45 389.02 380.82 C 387.55 381.20 386.06 381.55 384.56 381.82 C 383.06 382.09 381.53 382.33 380.00 382.47 C 378.47 382.61 376.91 382.69 375.35 382.67 C 373.80 382.65 372.23 382.54 370.68 382.34 C 369.13 382.13 367.58 381.83 366.06 381.44 C 364.55 381.05 363.04 380.56 361.57 379.99 C 360.11 379.41 358.67 378.75 357.27 378.02 C 355.88 377.29 354.52 376.47 353.20 375.61 C 351.88 374.74 350.61 373.80 349.37 372.82 C 348.14 371.84 346.94 370.80 345.79 369.71 C 344.64 368.62 343.53 367.49 342.47 366.30 C 341.42 365.11 340.40 363.88 339.46 362.59 C 338.51 361.31 337.61 359.97 336.81 358.59 C 336.01 357.20 335.26 355.76 334.63 354.29 C 334.00 352.82 333.45 351.30 333.01 349.75 C 332.58 348.21 332.25 346.62 332.03 345.04 C 331.82 343.46 331.72 341.85 331.72 340.26 C 331.72 338.66 331.85 337.06 332.05 335.50 C 332.26 333.94 332.57 332.38 332.95 330.87 C 333.32 329.35 333.78 327.86 334.28 326.41 C 334.77 324.95 335.33 323.53 335.91 322.13 C 336.49 320.73 337.11 319.36 337.74 318.00 C 338.38 316.64 339.03 315.30 339.71 313.96 C 340.39 312.63 341.08 311.30 341.81 309.98 C 342.54 308.66 343.29 307.34 344.10 306.03 C 344.90 304.73 345.74 303.42 346.66 302.16 C 347.58 300.90 348.55 299.64 349.60 298.46 C 350.65 297.27 351.77 296.11 352.98 295.05 C 354.18 294.00 355.46 292.99 356.80 292.10 C 358.15 291.21 359.57 290.41 361.04 289.72 C 362.50 289.04 364.04 288.47 365.59 288.01 C 367.15 287.55 368.75 287.22 370.35 286.98 C 371.95 286.75 373.58 286.63 375.18 286.60 C 376.79 286.57 378.41 286.65 380.00 286.79 C 381.59 286.93 383.17 287.16 384.73 287.45 C 386.29 287.73 387.83 288.09 389.35 288.50 C 390.87 288.90 392.37 289.37 393.84 289.88 C 395.31 290.40 396.77 290.96 398.19 291.59 C 399.61 292.21 401.02 292.89 402.38 293.64 C 403.74 294.38 405.08 295.18 406.36 296.05 C 407.64 296.92 408.89 297.86 410.07 298.86 C 411.25 299.86 412.39 300.93 413.45 302.05 C 414.51 303.18 415.51 304.37 416.43 305.60 C 417.36 306.83 418.22 308.12 419.01 309.43 C 419.80 310.75 420.52 312.11 421.19 313.48 C 421.86 314.86 422.46 316.26 423.03 317.68 C 423.59 319.09 424.10 320.53 424.57 321.98 C 425.05 323.43 425.48 324.89 425.87 326.38 C 426.27 327.86 426.63 329.36 426.94 330.88 C 427.25 332.40 427.53 333.94 427.73 335.50 Z" clip-rule="evenodd"/></clipPath></defs><g clip-path="url(#hxu8)" stroke="#FFFFFF" stroke-width="0.6900000000000001" opacity="0.95"><line x1="971.5" y1="-879.5" x2="1473.9" y2="-458.0"/><line x1="969.3" y1="-876.9" x2="1471.6" y2="-455.4"/><line x1="967.1" y1="-874.3" x2="1469.4" y2="-452.7"/><line x1="964.9" y1="-871.6" x2="1467.2" y2="-450.1"/><line x1="962.7" y1="-869.0" x2="1465.0" y2="-447.5"/><line x1="960.4" y1="-866.3" x2="1462.8" y2="-444.8"/><line x1="958.2" y1="-863.7" x2="1460.6" y2="-442.2"/><line x1="956.0" y1="-861.0" x2="1458.3" y2="-439.5"/><line x1="953.8" y1="-858.4" x2="1456.1" y2="-436.9"/><line x1="951.6" y1="-855.8" x2="1453.9" y2="-434.2"/><line x1="949.4" y1="-853.1" x2="1451.7" y2="-431.6"/><line x1="947.1" y1="-850.5" x2="1449.5" y2="-429.0"/><line x1="944.9" y1="-847.8" x2="1447.2" y2="-426.3"/><line x1="942.7" y1="-845.2" x2="1445.0" y2="-423.7"/><line x1="940.5" y1="-842.5" x2="1442.8" y2="-421.0"/><line x1="938.3" y1="-839.9" x2="1440.6" y2="-418.4"/><line x1="936.0" y1="-837.3" x2="1438.4" y2="-415.7"/><line x1="933.8" y1="-834.6" x2="1436.2" y2="-413.1"/><line x1="931.6" y1="-832.0" x2="1433.9" y2="-410.5"/><line x1="929.4" y1="-829.3" x2="1431.7" y2="-407.8"/><line x1="927.2" y1="-826.7" x2="1429.5" y2="-405.2"/><line x1="925.0" y1="-824.0" x2="1427.3" y2="-402.5"/><line x1="922.7" y1="-821.4" x2="1425.1" y2="-399.9"/><line x1="920.5" y1="-818.8" x2="1422.9" y2="-397.2"/><line x1="918.3" y1="-816.1" x2="1420.6" y2="-394.6"/><line x1="916.1" y1="-813.5" x2="1418.4" y2="-392.0"/><line x1="913.9" y1="-810.8" x2="1416.2" y2="-389.3"/><line x1="911.7" y1="-808.2" x2="1414.0" y2="-386.7"/><line x1="909.4" y1="-805.5" x2="1411.8" y2="-384.0"/><line x1="907.2" y1="-802.9" x2="1409.5" y2="-381.4"/><line x1="905.0" y1="-800.3" x2="1407.3" y2="-378.7"/><line x1="902.8" y1="-797.6" x2="1405.1" y2="-376.1"/><line x1="900.6" y1="-795.0" x2="1402.9" y2="-373.5"/><line x1="898.3" y1="-792.3" x2="1400.7" y2="-370.8"/><line x1="896.1" y1="-789.7" x2="1398.5" y2="-368.2"/><line x1="893.9" y1="-787.0" x2="1396.2" y2="-365.5"/><line x1="891.7" y1="-784.4" x2="1394.0" y2="-362.9"/><line x1="889.5" y1="-781.8" x2="1391.8" y2="-360.2"/><line x1="887.3" y1="-779.1" x2="1389.6" y2="-357.6"/><line x1="885.0" y1="-776.5" x2="1387.4" y2="-355.0"/><line x1="882.8" y1="-773.8" x2="1385.2" y2="-352.3"/><line x1="880.6" y1="-771.2" x2="1382.9" y2="-349.7"/><line x1="878.4" y1="-768.5" x2="1380.7" y2="-347.0"/><line x1="876.2" y1="-765.9" x2="1378.5" y2="-344.4"/><line x1="874.0" y1="-763.3" x2="1376.3" y2="-341.7"/><line x1="871.7" y1="-760.6" x2="1374.1" y2="-339.1"/><line x1="869.5" y1="-758.0" x2="1371.8" y2="-336.5"/><line x1="867.3" y1="-755.3" x2="1369.6" y2="-333.8"/><line x1="865.1" y1="-752.7" x2="1367.4" y2="-331.2"/><line x1="862.9" y1="-750.0" x2="1365.2" y2="-328.5"/><line x1="860.6" y1="-747.4" x2="1363.0" y2="-325.9"/><line x1="858.4" y1="-744.8" x2="1360.8" y2="-323.2"/><line x1="856.2" y1="-742.1" x2="1358.5" y2="-320.6"/><line x1="854.0" y1="-739.5" x2="1356.3" y2="-318.0"/><line x1="851.8" y1="-736.8" x2="1354.1" y2="-315.3"/><line x1="849.6" y1="-734.2" x2="1351.9" y2="-312.7"/><line x1="847.3" y1="-731.5" x2="1349.7" y2="-310.0"/><line x1="845.1" y1="-728.9" x2="1347.5" y2="-307.4"/><line x1="842.9" y1="-726.3" x2="1345.2" y2="-304.7"/><line x1="840.7" y1="-723.6" x2="1343.0" y2="-302.1"/><line x1="838.5" y1="-721.0" x2="1340.8" y2="-299.5"/><line x1="836.3" y1="-718.3" x2="1338.6" y2="-296.8"/><line x1="834.0" y1="-715.7" x2="1336.4" y2="-294.2"/><line x1="831.8" y1="-713.0" x2="1334.1" y2="-291.5"/><line x1="829.6" y1="-710.4" x2="1331.9" y2="-288.9"/><line x1="827.4" y1="-707.8" x2="1329.7" y2="-286.2"/><line x1="825.2" y1="-705.1" x2="1327.5" y2="-283.6"/><line x1="823.0" y1="-702.5" x2="1325.3" y2="-281.0"/><line x1="820.7" y1="-699.8" x2="1323.1" y2="-278.3"/><line x1="818.5" y1="-697.2" x2="1320.8" y2="-275.7"/><line x1="816.3" y1="-694.5" x2="1318.6" y2="-273.0"/><line x1="814.1" y1="-691.9" x2="1316.4" y2="-270.4"/><line x1="811.9" y1="-689.3" x2="1314.2" y2="-267.7"/><line x1="809.6" y1="-686.6" x2="1312.0" y2="-265.1"/><line x1="807.4" y1="-684.0" x2="1309.8" y2="-262.5"/><line x1="805.2" y1="-681.3" x2="1307.5" y2="-259.8"/><line x1="803.0" y1="-678.7" x2="1305.3" y2="-257.2"/><line x1="800.8" y1="-676.0" x2="1303.1" y2="-254.5"/><line x1="798.6" y1="-673.4" x2="1300.9" y2="-251.9"/><line x1="796.3" y1="-670.8" x2="1298.7" y2="-249.2"/><line x1="794.1" y1="-668.1" x2="1296.4" y2="-246.6"/><line x1="791.9" y1="-665.5" x2="1294.2" y2="-244.0"/><line x1="789.7" y1="-662.8" x2="1292.0" y2="-241.3"/><line x1="787.5" y1="-660.2" x2="1289.8" y2="-238.7"/><line x1="785.3" y1="-657.5" x2="1287.6" y2="-236.0"/><line x1="783.0" y1="-654.9" x2="1285.4" y2="-233.4"/><line x1="780.8" y1="-652.3" x2="1283.1" y2="-230.7"/><line x1="778.6" y1="-649.6" x2="1280.9" y2="-228.1"/><line x1="776.4" y1="-647.0" x2="1278.7" y2="-225.5"/><line x1="774.2" y1="-644.3" x2="1276.5" y2="-222.8"/><line x1="771.9" y1="-641.7" x2="1274.3" y2="-220.2"/><line x1="769.7" y1="-639.0" x2="1272.1" y2="-217.5"/><line x1="767.5" y1="-636.4" x2="1269.8" y2="-214.9"/><line x1="765.3" y1="-633.8" x2="1267.6" y2="-212.2"/><line x1="763.1" y1="-631.1" x2="1265.4" y2="-209.6"/><line x1="760.9" y1="-628.5" x2="1263.2" y2="-207.0"/><line x1="758.6" y1="-625.8" x2="1261.0" y2="-204.3"/><line x1="756.4" y1="-623.2" x2="1258.7" y2="-201.7"/><line x1="754.2" y1="-620.5" x2="1256.5" y2="-199.0"/><line x1="752.0" y1="-617.9" x2="1254.3" y2="-196.4"/><line x1="749.8" y1="-615.3" x2="1252.1" y2="-193.7"/><line x1="747.6" y1="-612.6" x2="1249.9" y2="-191.1"/><line x1="745.3" y1="-610.0" x2="1247.7" y2="-188.5"/><line x1="743.1" y1="-607.3" x2="1245.4" y2="-185.8"/><line x1="740.9" y1="-604.7" x2="1243.2" y2="-183.2"/><line x1="738.7" y1="-602.0" x2="1241.0" y2="-180.5"/><line x1="736.5" y1="-599.4" x2="1238.8" y2="-177.9"/><line x1="734.2" y1="-596.8" x2="1236.6" y2="-175.2"/><line x1="732.0" y1="-594.1" x2="1234.4" y2="-172.6"/><line x1="729.8" y1="-591.5" x2="1232.1" y2="-170.0"/><line x1="727.6" y1="-588.8" x2="1229.9" y2="-167.3"/><line x1="725.4" y1="-586.2" x2="1227.7" y2="-164.7"/><line x1="723.2" y1="-583.5" x2="1225.5" y2="-162.0"/><line x1="720.9" y1="-580.9" x2="1223.3" y2="-159.4"/><line x1="718.7" y1="-578.3" x2="1221.1" y2="-156.7"/><line x1="716.5" y1="-575.6" x2="1218.8" y2="-154.1"/><line x1="714.3" y1="-573.0" x2="1216.6" y2="-151.5"/><line x1="712.1" y1="-570.3" x2="1214.4" y2="-148.8"/><line x1="709.9" y1="-567.7" x2="1212.2" y2="-146.2"/><line x1="707.6" y1="-565.0" x2="1210.0" y2="-143.5"/><line x1="705.4" y1="-562.4" x2="1207.7" y2="-140.9"/><line x1="703.2" y1="-559.8" x2="1205.5" y2="-138.2"/><line x1="701.0" y1="-557.1" x2="1203.3" y2="-135.6"/><line x1="698.8" y1="-554.5" x2="1201.1" y2="-133.0"/><line x1="696.5" y1="-551.8" x2="1198.9" y2="-130.3"/><line x1="694.3" y1="-549.2" x2="1196.7" y2="-127.7"/><line x1="692.1" y1="-546.5" x2="1194.4" y2="-125.0"/><line x1="689.9" y1="-543.9" x2="1192.2" y2="-122.4"/><line x1="687.7" y1="-541.3" x2="1190.0" y2="-119.7"/><line x1="685.5" y1="-538.6" x2="1187.8" y2="-117.1"/><line x1="683.2" y1="-536.0" x2="1185.6" y2="-114.5"/><line x1="681.0" y1="-533.3" x2="1183.4" y2="-111.8"/><line x1="678.8" y1="-530.7" x2="1181.1" y2="-109.2"/><line x1="676.6" y1="-528.0" x2="1178.9" y2="-106.5"/><line x1="674.4" y1="-525.4" x2="1176.7" y2="-103.9"/><line x1="672.2" y1="-522.8" x2="1174.5" y2="-101.2"/><line x1="669.9" y1="-520.1" x2="1172.3" y2="-98.6"/><line x1="667.7" y1="-517.5" x2="1170.0" y2="-96.0"/><line x1="665.5" y1="-514.8" x2="1167.8" y2="-93.3"/><line x1="663.3" y1="-512.2" x2="1165.6" y2="-90.7"/><line x1="661.1" y1="-509.5" x2="1163.4" y2="-88.0"/><line x1="658.8" y1="-506.9" x2="1161.2" y2="-85.4"/><line x1="656.6" y1="-504.3" x2="1159.0" y2="-82.7"/><line x1="654.4" y1="-501.6" x2="1156.7" y2="-80.1"/><line x1="652.2" y1="-499.0" x2="1154.5" y2="-77.5"/><line x1="650.0" y1="-496.3" x2="1152.3" y2="-74.8"/><line x1="647.8" y1="-493.7" x2="1150.1" y2="-72.2"/><line x1="645.5" y1="-491.0" x2="1147.9" y2="-69.5"/><line x1="643.3" y1="-488.4" x2="1145.7" y2="-66.9"/><line x1="641.1" y1="-485.8" x2="1143.4" y2="-64.2"/><line x1="638.9" y1="-483.1" x2="1141.2" y2="-61.6"/><line x1="636.7" y1="-480.5" x2="1139.0" y2="-59.0"/><line x1="634.5" y1="-477.8" x2="1136.8" y2="-56.3"/><line x1="632.2" y1="-475.2" x2="1134.6" y2="-53.7"/><line x1="630.0" y1="-472.5" x2="1132.3" y2="-51.0"/><line x1="627.8" y1="-469.9" x2="1130.1" y2="-48.4"/><line x1="625.6" y1="-467.3" x2="1127.9" y2="-45.7"/><line x1="623.4" y1="-464.6" x2="1125.7" y2="-43.1"/><line x1="621.1" y1="-462.0" x2="1123.5" y2="-40.5"/><line x1="618.9" y1="-459.3" x2="1121.3" y2="-37.8"/><line x1="616.7" y1="-456.7" x2="1119.0" y2="-35.2"/><line x1="614.5" y1="-454.0" x2="1116.8" y2="-32.5"/><line x1="612.3" y1="-451.4" x2="1114.6" y2="-29.9"/><line x1="610.1" y1="-448.8" x2="1112.4" y2="-27.2"/><line x1="607.8" y1="-446.1" x2="1110.2" y2="-24.6"/><line x1="605.6" y1="-443.5" x2="1108.0" y2="-22.0"/><line x1="603.4" y1="-440.8" x2="1105.7" y2="-19.3"/><line x1="601.2" y1="-438.2" x2="1103.5" y2="-16.7"/><line x1="599.0" y1="-435.5" x2="1101.3" y2="-14.0"/><line x1="596.8" y1="-432.9" x2="1099.1" y2="-11.4"/><line x1="594.5" y1="-430.3" x2="1096.9" y2="-8.7"/><line x1="592.3" y1="-427.6" x2="1094.6" y2="-6.1"/><line x1="590.1" y1="-425.0" x2="1092.4" y2="-3.5"/><line x1="587.9" y1="-422.3" x2="1090.2" y2="-0.8"/><line x1="585.7" y1="-419.7" x2="1088.0" y2="1.8"/><line x1="583.4" y1="-417.0" x2="1085.8" y2="4.5"/><line x1="581.2" y1="-414.4" x2="1083.6" y2="7.1"/><line x1="579.0" y1="-411.8" x2="1081.3" y2="9.8"/><line x1="576.8" y1="-409.1" x2="1079.1" y2="12.4"/><line x1="574.6" y1="-406.5" x2="1076.9" y2="15.0"/><line x1="572.4" y1="-403.8" x2="1074.7" y2="17.7"/><line x1="570.1" y1="-401.2" x2="1072.5" y2="20.3"/><line x1="567.9" y1="-398.5" x2="1070.3" y2="23.0"/><line x1="565.7" y1="-395.9" x2="1068.0" y2="25.6"/><line x1="563.5" y1="-393.3" x2="1065.8" y2="28.3"/><line x1="561.3" y1="-390.6" x2="1063.6" y2="30.9"/><line x1="559.1" y1="-388.0" x2="1061.4" y2="33.5"/><line x1="556.8" y1="-385.3" x2="1059.2" y2="36.2"/><line x1="554.6" y1="-382.7" x2="1056.9" y2="38.8"/><line x1="552.4" y1="-380.0" x2="1054.7" y2="41.5"/><line x1="550.2" y1="-377.4" x2="1052.5" y2="44.1"/><line x1="548.0" y1="-374.8" x2="1050.3" y2="46.8"/><line x1="545.7" y1="-372.1" x2="1048.1" y2="49.4"/><line x1="543.5" y1="-369.5" x2="1045.9" y2="52.0"/><line x1="541.3" y1="-366.8" x2="1043.6" y2="54.7"/><line x1="539.1" y1="-364.2" x2="1041.4" y2="57.3"/><line x1="536.9" y1="-361.5" x2="1039.2" y2="60.0"/><line x1="534.7" y1="-358.9" x2="1037.0" y2="62.6"/><line x1="532.4" y1="-356.3" x2="1034.8" y2="65.3"/><line x1="530.2" y1="-353.6" x2="1032.6" y2="67.9"/><line x1="528.0" y1="-351.0" x2="1030.3" y2="70.5"/><line x1="525.8" y1="-348.3" x2="1028.1" y2="73.2"/><line x1="523.6" y1="-345.7" x2="1025.9" y2="75.8"/><line x1="521.4" y1="-343.0" x2="1023.7" y2="78.5"/><line x1="519.1" y1="-340.4" x2="1021.5" y2="81.1"/><line x1="516.9" y1="-337.8" x2="1019.2" y2="83.8"/><line x1="514.7" y1="-335.1" x2="1017.0" y2="86.4"/><line x1="512.5" y1="-332.5" x2="1014.8" y2="89.0"/><line x1="510.3" y1="-329.8" x2="1012.6" y2="91.7"/><line x1="508.0" y1="-327.2" x2="1010.4" y2="94.3"/><line x1="505.8" y1="-324.5" x2="1008.2" y2="97.0"/><line x1="503.6" y1="-321.9" x2="1005.9" y2="99.6"/><line x1="501.4" y1="-319.3" x2="1003.7" y2="102.3"/><line x1="499.2" y1="-316.6" x2="1001.5" y2="104.9"/><line x1="497.0" y1="-314.0" x2="999.3" y2="107.5"/><line x1="494.7" y1="-311.3" x2="997.1" y2="110.2"/><line x1="492.5" y1="-308.7" x2="994.9" y2="112.8"/><line x1="490.3" y1="-306.0" x2="992.6" y2="115.5"/><line x1="488.1" y1="-303.4" x2="990.4" y2="118.1"/><line x1="485.9" y1="-300.8" x2="988.2" y2="120.8"/><line x1="483.7" y1="-298.1" x2="986.0" y2="123.4"/><line x1="481.4" y1="-295.5" x2="983.8" y2="126.0"/><line x1="479.2" y1="-292.8" x2="981.5" y2="128.7"/><line x1="477.0" y1="-290.2" x2="979.3" y2="131.3"/><line x1="474.8" y1="-287.5" x2="977.1" y2="134.0"/><line x1="472.6" y1="-284.9" x2="974.9" y2="136.6"/><line x1="470.3" y1="-282.3" x2="972.7" y2="139.3"/><line x1="468.1" y1="-279.6" x2="970.5" y2="141.9"/><line x1="465.9" y1="-277.0" x2="968.2" y2="144.5"/><line x1="463.7" y1="-274.3" x2="966.0" y2="147.2"/><line x1="461.5" y1="-271.7" x2="963.8" y2="149.8"/><line x1="459.3" y1="-269.0" x2="961.6" y2="152.5"/><line x1="457.0" y1="-266.4" x2="959.4" y2="155.1"/><line x1="454.8" y1="-263.8" x2="957.2" y2="157.8"/><line x1="452.6" y1="-261.1" x2="954.9" y2="160.4"/><line x1="450.4" y1="-258.5" x2="952.7" y2="163.0"/><line x1="448.2" y1="-255.8" x2="950.5" y2="165.7"/><line x1="446.0" y1="-253.2" x2="948.3" y2="168.3"/><line x1="443.7" y1="-250.5" x2="946.1" y2="171.0"/><line x1="441.5" y1="-247.9" x2="943.8" y2="173.6"/><line x1="439.3" y1="-245.3" x2="941.6" y2="176.3"/><line x1="437.1" y1="-242.6" x2="939.4" y2="178.9"/><line x1="434.9" y1="-240.0" x2="937.2" y2="181.5"/><line x1="432.6" y1="-237.3" x2="935.0" y2="184.2"/><line x1="430.4" y1="-234.7" x2="932.8" y2="186.8"/><line x1="428.2" y1="-232.0" x2="930.5" y2="189.5"/><line x1="426.0" y1="-229.4" x2="928.3" y2="192.1"/><line x1="423.8" y1="-226.8" x2="926.1" y2="194.8"/><line x1="421.6" y1="-224.1" x2="923.9" y2="197.4"/><line x1="419.3" y1="-221.5" x2="921.7" y2="200.0"/><line x1="417.1" y1="-218.8" x2="919.5" y2="202.7"/><line x1="414.9" y1="-216.2" x2="917.2" y2="205.3"/><line x1="412.7" y1="-213.5" x2="915.0" y2="208.0"/><line x1="410.5" y1="-210.9" x2="912.8" y2="210.6"/><line x1="408.3" y1="-208.3" x2="910.6" y2="213.3"/><line x1="406.0" y1="-205.6" x2="908.4" y2="215.9"/><line x1="403.8" y1="-203.0" x2="906.1" y2="218.5"/><line x1="401.6" y1="-200.3" x2="903.9" y2="221.2"/><line x1="399.4" y1="-197.7" x2="901.7" y2="223.8"/><line x1="397.2" y1="-195.0" x2="899.5" y2="226.5"/><line x1="395.0" y1="-192.4" x2="897.3" y2="229.1"/><line x1="392.7" y1="-189.8" x2="895.1" y2="231.8"/><line x1="390.5" y1="-187.1" x2="892.8" y2="234.4"/><line x1="388.3" y1="-184.5" x2="890.6" y2="237.0"/><line x1="386.1" y1="-181.8" x2="888.4" y2="239.7"/><line x1="383.9" y1="-179.2" x2="886.2" y2="242.3"/><line x1="381.6" y1="-176.5" x2="884.0" y2="245.0"/><line x1="379.4" y1="-173.9" x2="881.8" y2="247.6"/><line x1="377.2" y1="-171.3" x2="879.5" y2="250.3"/><line x1="375.0" y1="-168.6" x2="877.3" y2="252.9"/><line x1="372.8" y1="-166.0" x2="875.1" y2="255.5"/><line x1="370.6" y1="-163.3" x2="872.9" y2="258.2"/><line x1="368.3" y1="-160.7" x2="870.7" y2="260.8"/><line x1="366.1" y1="-158.0" x2="868.4" y2="263.5"/><line x1="363.9" y1="-155.4" x2="866.2" y2="266.1"/><line x1="361.7" y1="-152.8" x2="864.0" y2="268.8"/><line x1="359.5" y1="-150.1" x2="861.8" y2="271.4"/><line x1="357.3" y1="-147.5" x2="859.6" y2="274.0"/><line x1="355.0" y1="-144.8" x2="857.4" y2="276.7"/><line x1="352.8" y1="-142.2" x2="855.1" y2="279.3"/><line x1="350.6" y1="-139.5" x2="852.9" y2="282.0"/><line x1="348.4" y1="-136.9" x2="850.7" y2="284.6"/><line x1="346.2" y1="-134.3" x2="848.5" y2="287.3"/><line x1="343.9" y1="-131.6" x2="846.3" y2="289.9"/><line x1="341.7" y1="-129.0" x2="844.1" y2="292.5"/><line x1="339.5" y1="-126.3" x2="841.8" y2="295.2"/><line x1="337.3" y1="-123.7" x2="839.6" y2="297.8"/><line x1="335.1" y1="-121.0" x2="837.4" y2="300.5"/><line x1="332.9" y1="-118.4" x2="835.2" y2="303.1"/><line x1="330.6" y1="-115.8" x2="833.0" y2="305.8"/><line x1="328.4" y1="-113.1" x2="830.7" y2="308.4"/><line x1="326.2" y1="-110.5" x2="828.5" y2="311.0"/><line x1="324.0" y1="-107.8" x2="826.3" y2="313.7"/><line x1="321.8" y1="-105.2" x2="824.1" y2="316.3"/><line x1="319.6" y1="-102.5" x2="821.9" y2="319.0"/><line x1="317.3" y1="-99.9" x2="819.7" y2="321.6"/><line x1="315.1" y1="-97.3" x2="817.4" y2="324.3"/><line x1="312.9" y1="-94.6" x2="815.2" y2="326.9"/><line x1="310.7" y1="-92.0" x2="813.0" y2="329.5"/><line x1="308.5" y1="-89.3" x2="810.8" y2="332.2"/><line x1="306.2" y1="-86.7" x2="808.6" y2="334.8"/><line x1="304.0" y1="-84.0" x2="806.4" y2="337.5"/><line x1="301.8" y1="-81.4" x2="804.1" y2="340.1"/><line x1="299.6" y1="-78.8" x2="801.9" y2="342.8"/><line x1="297.4" y1="-76.1" x2="799.7" y2="345.4"/><line x1="295.2" y1="-73.5" x2="797.5" y2="348.0"/><line x1="292.9" y1="-70.8" x2="795.3" y2="350.7"/><line x1="290.7" y1="-68.2" x2="793.1" y2="353.3"/><line x1="288.5" y1="-65.5" x2="790.8" y2="356.0"/><line x1="286.3" y1="-62.9" x2="788.6" y2="358.6"/><line x1="284.1" y1="-60.3" x2="786.4" y2="361.3"/><line x1="281.9" y1="-57.6" x2="784.2" y2="363.9"/><line x1="279.6" y1="-55.0" x2="782.0" y2="366.5"/><line x1="277.4" y1="-52.3" x2="779.7" y2="369.2"/><line x1="275.2" y1="-49.7" x2="777.5" y2="371.8"/><line x1="273.0" y1="-47.0" x2="775.3" y2="374.5"/><line x1="270.8" y1="-44.4" x2="773.1" y2="377.1"/><line x1="268.5" y1="-41.8" x2="770.9" y2="379.8"/><line x1="266.3" y1="-39.1" x2="768.7" y2="382.4"/><line x1="264.1" y1="-36.5" x2="766.4" y2="385.0"/><line x1="261.9" y1="-33.8" x2="764.2" y2="387.7"/><line x1="259.7" y1="-31.2" x2="762.0" y2="390.3"/><line x1="257.5" y1="-28.5" x2="759.8" y2="393.0"/><line x1="255.2" y1="-25.9" x2="757.6" y2="395.6"/><line x1="253.0" y1="-23.3" x2="755.4" y2="398.3"/><line x1="250.8" y1="-20.6" x2="753.1" y2="400.9"/><line x1="248.6" y1="-18.0" x2="750.9" y2="403.5"/><line x1="246.4" y1="-15.3" x2="748.7" y2="406.2"/><line x1="244.2" y1="-12.7" x2="746.5" y2="408.8"/><line x1="241.9" y1="-10.0" x2="744.3" y2="411.5"/><line x1="239.7" y1="-7.4" x2="742.0" y2="414.1"/><line x1="237.5" y1="-4.8" x2="739.8" y2="416.8"/><line x1="235.3" y1="-2.1" x2="737.6" y2="419.4"/><line x1="233.1" y1="0.5" x2="735.4" y2="422.0"/><line x1="230.8" y1="3.2" x2="733.2" y2="424.7"/><line x1="228.6" y1="5.8" x2="731.0" y2="427.3"/><line x1="226.4" y1="8.5" x2="728.7" y2="430.0"/><line x1="224.2" y1="11.1" x2="726.5" y2="432.6"/><line x1="222.0" y1="13.7" x2="724.3" y2="435.3"/><line x1="219.8" y1="16.4" x2="722.1" y2="437.9"/><line x1="217.5" y1="19.0" x2="719.9" y2="440.5"/><line x1="215.3" y1="21.7" x2="717.7" y2="443.2"/><line x1="213.1" y1="24.3" x2="715.4" y2="445.8"/><line x1="210.9" y1="27.0" x2="713.2" y2="448.5"/><line x1="208.7" y1="29.6" x2="711.0" y2="451.1"/><line x1="206.5" y1="32.2" x2="708.8" y2="453.8"/><line x1="204.2" y1="34.9" x2="706.6" y2="456.4"/><line x1="202.0" y1="37.5" x2="704.3" y2="459.0"/><line x1="199.8" y1="40.2" x2="702.1" y2="461.7"/><line x1="197.6" y1="42.8" x2="699.9" y2="464.3"/><line x1="195.4" y1="45.5" x2="697.7" y2="467.0"/><line x1="193.1" y1="48.1" x2="695.5" y2="469.6"/><line x1="190.9" y1="50.7" x2="693.3" y2="472.3"/><line x1="188.7" y1="53.4" x2="691.0" y2="474.9"/><line x1="186.5" y1="56.0" x2="688.8" y2="477.5"/><line x1="184.3" y1="58.7" x2="686.6" y2="480.2"/><line x1="182.1" y1="61.3" x2="684.4" y2="482.8"/><line x1="179.8" y1="64.0" x2="682.2" y2="485.5"/><line x1="177.6" y1="66.6" x2="680.0" y2="488.1"/><line x1="175.4" y1="69.2" x2="677.7" y2="490.8"/><line x1="173.2" y1="71.9" x2="675.5" y2="493.4"/><line x1="171.0" y1="74.5" x2="673.3" y2="496.0"/><line x1="168.8" y1="77.2" x2="671.1" y2="498.7"/><line x1="166.5" y1="79.8" x2="668.9" y2="501.3"/><line x1="164.3" y1="82.5" x2="666.6" y2="504.0"/><line x1="162.1" y1="85.1" x2="664.4" y2="506.6"/><line x1="159.9" y1="87.7" x2="662.2" y2="509.3"/><line x1="157.7" y1="90.4" x2="660.0" y2="511.9"/><line x1="155.4" y1="93.0" x2="657.8" y2="514.5"/><line x1="153.2" y1="95.7" x2="655.6" y2="517.2"/><line x1="151.0" y1="98.3" x2="653.3" y2="519.8"/><line x1="148.8" y1="101.0" x2="651.1" y2="522.5"/><line x1="146.6" y1="103.6" x2="648.9" y2="525.1"/><line x1="144.4" y1="106.2" x2="646.7" y2="527.8"/><line x1="142.1" y1="108.9" x2="644.5" y2="530.4"/><line x1="139.9" y1="111.5" x2="642.3" y2="533.0"/><line x1="137.7" y1="114.2" x2="640.0" y2="535.7"/><line x1="135.5" y1="116.8" x2="637.8" y2="538.3"/><line x1="133.3" y1="119.5" x2="635.6" y2="541.0"/><line x1="131.1" y1="122.1" x2="633.4" y2="543.6"/><line x1="128.8" y1="124.7" x2="631.2" y2="546.3"/><line x1="126.6" y1="127.4" x2="628.9" y2="548.9"/><line x1="124.4" y1="130.0" x2="626.7" y2="551.5"/><line x1="122.2" y1="132.7" x2="624.5" y2="554.2"/><line x1="120.0" y1="135.3" x2="622.3" y2="556.8"/><line x1="117.7" y1="138.0" x2="620.1" y2="559.5"/><line x1="115.5" y1="140.6" x2="617.9" y2="562.1"/><line x1="113.3" y1="143.2" x2="615.6" y2="564.8"/><line x1="111.1" y1="145.9" x2="613.4" y2="567.4"/><line x1="108.9" y1="148.5" x2="611.2" y2="570.0"/><line x1="106.7" y1="151.2" x2="609.0" y2="572.7"/><line x1="104.4" y1="153.8" x2="606.8" y2="575.3"/><line x1="102.2" y1="156.5" x2="604.6" y2="578.0"/><line x1="100.0" y1="159.1" x2="602.3" y2="580.6"/><line x1="97.8" y1="161.7" x2="600.1" y2="583.3"/><line x1="95.6" y1="164.4" x2="597.9" y2="585.9"/><line x1="93.4" y1="167.0" x2="595.7" y2="588.5"/><line x1="91.1" y1="169.7" x2="593.5" y2="591.2"/><line x1="88.9" y1="172.3" x2="591.2" y2="593.8"/><line x1="86.7" y1="175.0" x2="589.0" y2="596.5"/><line x1="84.5" y1="177.6" x2="586.8" y2="599.1"/><line x1="82.3" y1="180.2" x2="584.6" y2="601.8"/><line x1="80.0" y1="182.9" x2="582.4" y2="604.4"/><line x1="77.8" y1="185.5" x2="580.2" y2="607.0"/><line x1="75.6" y1="188.2" x2="577.9" y2="609.7"/><line x1="73.4" y1="190.8" x2="575.7" y2="612.3"/><line x1="71.2" y1="193.5" x2="573.5" y2="615.0"/><line x1="69.0" y1="196.1" x2="571.3" y2="617.6"/><line x1="66.7" y1="198.7" x2="569.1" y2="620.3"/><line x1="64.5" y1="201.4" x2="566.9" y2="622.9"/><line x1="62.3" y1="204.0" x2="564.6" y2="625.5"/><line x1="60.1" y1="206.7" x2="562.4" y2="628.2"/><line x1="57.9" y1="209.3" x2="560.2" y2="630.8"/><line x1="55.7" y1="212.0" x2="558.0" y2="633.5"/><line x1="53.4" y1="214.6" x2="555.8" y2="636.1"/><line x1="51.2" y1="217.2" x2="553.5" y2="638.8"/><line x1="49.0" y1="219.9" x2="551.3" y2="641.4"/><line x1="46.8" y1="222.5" x2="549.1" y2="644.0"/><line x1="44.6" y1="225.2" x2="546.9" y2="646.7"/><line x1="42.3" y1="227.8" x2="544.7" y2="649.3"/><line x1="40.1" y1="230.5" x2="542.5" y2="652.0"/><line x1="37.9" y1="233.1" x2="540.2" y2="654.6"/><line x1="35.7" y1="235.7" x2="538.0" y2="657.3"/><line x1="33.5" y1="238.4" x2="535.8" y2="659.9"/><line x1="31.3" y1="241.0" x2="533.6" y2="662.5"/><line x1="29.0" y1="243.7" x2="531.4" y2="665.2"/><line x1="26.8" y1="246.3" x2="529.2" y2="667.8"/><line x1="24.6" y1="249.0" x2="526.9" y2="670.5"/><line x1="22.4" y1="251.6" x2="524.7" y2="673.1"/><line x1="20.2" y1="254.2" x2="522.5" y2="675.8"/><line x1="18.0" y1="256.9" x2="520.3" y2="678.4"/><line x1="15.7" y1="259.5" x2="518.1" y2="681.0"/><line x1="13.5" y1="262.2" x2="515.8" y2="683.7"/><line x1="11.3" y1="264.8" x2="513.6" y2="686.3"/><line x1="9.1" y1="267.5" x2="511.4" y2="689.0"/><line x1="6.9" y1="270.1" x2="509.2" y2="691.6"/><line x1="4.6" y1="272.7" x2="507.0" y2="694.3"/><line x1="2.4" y1="275.4" x2="504.8" y2="696.9"/><line x1="0.2" y1="278.0" x2="502.5" y2="699.5"/><line x1="-2.0" y1="280.7" x2="500.3" y2="702.2"/><line x1="-4.2" y1="283.3" x2="498.1" y2="704.8"/><line x1="-6.4" y1="286.0" x2="495.9" y2="707.5"/><line x1="-8.7" y1="288.6" x2="493.7" y2="710.1"/><line x1="-10.9" y1="291.2" x2="491.5" y2="712.8"/><line x1="-13.1" y1="293.9" x2="489.2" y2="715.4"/><line x1="-15.3" y1="296.5" x2="487.0" y2="718.0"/><line x1="-17.5" y1="299.2" x2="484.8" y2="720.7"/><line x1="-19.7" y1="301.8" x2="482.6" y2="723.3"/><line x1="-22.0" y1="304.5" x2="480.4" y2="726.0"/><line x1="-24.2" y1="307.1" x2="478.1" y2="728.6"/><line x1="-26.4" y1="309.7" x2="475.9" y2="731.3"/><line x1="-28.6" y1="312.4" x2="473.7" y2="733.9"/><line x1="-30.8" y1="315.0" x2="471.5" y2="736.5"/><line x1="-33.1" y1="317.7" x2="469.3" y2="739.2"/><line x1="-35.3" y1="320.3" x2="467.1" y2="741.8"/><line x1="-37.5" y1="323.0" x2="464.8" y2="744.5"/><line x1="-39.7" y1="325.6" x2="462.6" y2="747.1"/><line x1="-41.9" y1="328.2" x2="460.4" y2="749.8"/><line x1="-44.1" y1="330.9" x2="458.2" y2="752.4"/><line x1="-46.4" y1="333.5" x2="456.0" y2="755.0"/><line x1="-48.6" y1="336.2" x2="453.8" y2="757.7"/><line x1="-50.8" y1="338.8" x2="451.5" y2="760.3"/><line x1="-53.0" y1="341.5" x2="449.3" y2="763.0"/><line x1="-55.2" y1="344.1" x2="447.1" y2="765.6"/><line x1="-57.4" y1="346.7" x2="444.9" y2="768.3"/><line x1="-59.7" y1="349.4" x2="442.7" y2="770.9"/><line x1="-61.9" y1="352.0" x2="440.4" y2="773.5"/><line x1="-64.1" y1="354.7" x2="438.2" y2="776.2"/><line x1="-66.3" y1="357.3" x2="436.0" y2="778.8"/><line x1="-68.5" y1="360.0" x2="433.8" y2="781.5"/><line x1="-70.7" y1="362.6" x2="431.6" y2="784.1"/><line x1="-73.0" y1="365.2" x2="429.4" y2="786.8"/><line x1="-75.2" y1="367.9" x2="427.1" y2="789.4"/><line x1="-77.4" y1="370.5" x2="424.9" y2="792.0"/><line x1="-79.6" y1="373.2" x2="422.7" y2="794.7"/><line x1="-81.8" y1="375.8" x2="420.5" y2="797.3"/><line x1="-84.1" y1="378.5" x2="418.3" y2="800.0"/><line x1="-86.3" y1="381.1" x2="416.1" y2="802.6"/><line x1="-88.5" y1="383.7" x2="413.8" y2="805.3"/><line x1="-90.7" y1="386.4" x2="411.6" y2="807.9"/><line x1="-92.9" y1="389.0" x2="409.4" y2="810.5"/><line x1="-95.1" y1="391.7" x2="407.2" y2="813.2"/><line x1="-97.4" y1="394.3" x2="405.0" y2="815.8"/><line x1="-99.6" y1="397.0" x2="402.7" y2="818.5"/><line x1="-101.8" y1="399.6" x2="400.5" y2="821.1"/><line x1="-104.0" y1="402.2" x2="398.3" y2="823.8"/><line x1="-106.2" y1="404.9" x2="396.1" y2="826.4"/><line x1="-108.4" y1="407.5" x2="393.9" y2="829.0"/><line x1="-110.7" y1="410.2" x2="391.7" y2="831.7"/><line x1="-112.9" y1="412.8" x2="389.4" y2="834.3"/><line x1="-115.1" y1="415.5" x2="387.2" y2="837.0"/><line x1="-117.3" y1="418.1" x2="385.0" y2="839.6"/><line x1="-119.5" y1="420.7" x2="382.8" y2="842.3"/><line x1="-121.8" y1="423.4" x2="380.6" y2="844.9"/><line x1="-124.0" y1="426.0" x2="378.4" y2="847.5"/><line x1="-126.2" y1="428.7" x2="376.1" y2="850.2"/><line x1="-128.4" y1="431.3" x2="373.9" y2="852.8"/><line x1="-130.6" y1="434.0" x2="371.7" y2="855.5"/><line x1="-132.8" y1="436.6" x2="369.5" y2="858.1"/><line x1="-135.1" y1="439.2" x2="367.3" y2="860.8"/><line x1="-137.3" y1="441.9" x2="365.0" y2="863.4"/><line x1="-139.5" y1="444.5" x2="362.8" y2="866.0"/><line x1="-141.7" y1="447.2" x2="360.6" y2="868.7"/><line x1="-143.9" y1="449.8" x2="358.4" y2="871.3"/><line x1="-146.1" y1="452.5" x2="356.2" y2="874.0"/><line x1="-148.4" y1="455.1" x2="354.0" y2="876.6"/><line x1="-150.6" y1="457.7" x2="351.7" y2="879.3"/><line x1="-152.8" y1="460.4" x2="349.5" y2="881.9"/><line x1="-155.0" y1="463.0" x2="347.3" y2="884.5"/><line x1="-157.2" y1="465.7" x2="345.1" y2="887.2"/><line x1="-159.5" y1="468.3" x2="342.9" y2="889.8"/><line x1="-161.7" y1="471.0" x2="340.7" y2="892.5"/><line x1="-163.9" y1="473.6" x2="338.4" y2="895.1"/><line x1="-166.1" y1="476.2" x2="336.2" y2="897.8"/><line x1="-168.3" y1="478.9" x2="334.0" y2="900.4"/><line x1="-170.5" y1="481.5" x2="331.8" y2="903.0"/><line x1="-172.8" y1="484.2" x2="329.6" y2="905.7"/><line x1="-175.0" y1="486.8" x2="327.4" y2="908.3"/><line x1="-177.2" y1="489.5" x2="325.1" y2="911.0"/><line x1="-179.4" y1="492.1" x2="322.9" y2="913.6"/><line x1="-181.6" y1="494.7" x2="320.7" y2="916.3"/><line x1="-183.8" y1="497.4" x2="318.5" y2="918.9"/><line x1="-186.1" y1="500.0" x2="316.3" y2="921.5"/><line x1="-188.3" y1="502.7" x2="314.0" y2="924.2"/><line x1="-190.5" y1="505.3" x2="311.8" y2="926.8"/><line x1="-192.7" y1="508.0" x2="309.6" y2="929.5"/><line x1="-194.9" y1="510.6" x2="307.4" y2="932.1"/><line x1="-197.2" y1="513.2" x2="305.2" y2="934.8"/><line x1="-199.4" y1="515.9" x2="303.0" y2="937.4"/><line x1="-201.6" y1="518.5" x2="300.7" y2="940.0"/><line x1="-203.8" y1="521.2" x2="298.5" y2="942.7"/><line x1="-206.0" y1="523.8" x2="296.3" y2="945.3"/><line x1="-208.2" y1="526.5" x2="294.1" y2="948.0"/><line x1="-210.5" y1="529.1" x2="291.9" y2="950.6"/><line x1="-212.7" y1="531.7" x2="289.7" y2="953.3"/><line x1="-214.9" y1="534.4" x2="287.4" y2="955.9"/><line x1="-217.1" y1="537.0" x2="285.2" y2="958.5"/><line x1="-219.3" y1="539.7" x2="283.0" y2="961.2"/><line x1="-221.5" y1="542.3" x2="280.8" y2="963.8"/><line x1="-223.8" y1="545.0" x2="278.6" y2="966.5"/><line x1="-226.0" y1="547.6" x2="276.3" y2="969.1"/><line x1="-228.2" y1="550.2" x2="274.1" y2="971.8"/><line x1="-230.4" y1="552.9" x2="271.9" y2="974.4"/><line x1="-232.6" y1="555.5" x2="269.7" y2="977.0"/><line x1="-234.9" y1="558.2" x2="267.5" y2="979.7"/><line x1="-237.1" y1="560.8" x2="265.3" y2="982.3"/><line x1="-239.3" y1="563.5" x2="263.0" y2="985.0"/><line x1="-241.5" y1="566.1" x2="260.8" y2="987.6"/><line x1="-243.7" y1="568.7" x2="258.6" y2="990.3"/><line x1="-245.9" y1="571.4" x2="256.4" y2="992.9"/><line x1="-248.2" y1="574.0" x2="254.2" y2="995.5"/><line x1="-250.4" y1="576.7" x2="252.0" y2="998.2"/><line x1="-252.6" y1="579.3" x2="249.7" y2="1000.8"/><line x1="-254.8" y1="582.0" x2="247.5" y2="1003.5"/><line x1="-257.0" y1="584.6" x2="245.3" y2="1006.1"/><line x1="-259.2" y1="587.2" x2="243.1" y2="1008.8"/><line x1="-261.5" y1="589.9" x2="240.9" y2="1011.4"/><line x1="-263.7" y1="592.5" x2="238.6" y2="1014.0"/><line x1="-265.9" y1="595.2" x2="236.4" y2="1016.7"/><line x1="-268.1" y1="597.8" x2="234.2" y2="1019.3"/><line x1="-270.3" y1="600.5" x2="232.0" y2="1022.0"/><line x1="-272.6" y1="603.1" x2="229.8" y2="1024.6"/><line x1="-274.8" y1="605.7" x2="227.6" y2="1027.3"/><line x1="-277.0" y1="608.4" x2="225.3" y2="1029.9"/><line x1="-279.2" y1="611.0" x2="223.1" y2="1032.5"/><line x1="-281.4" y1="613.7" x2="220.9" y2="1035.2"/><line x1="-283.6" y1="616.3" x2="218.7" y2="1037.8"/><line x1="-285.9" y1="619.0" x2="216.5" y2="1040.5"/><line x1="-288.1" y1="621.6" x2="214.3" y2="1043.1"/><line x1="-290.3" y1="624.2" x2="212.0" y2="1045.8"/><line x1="-292.5" y1="626.9" x2="209.8" y2="1048.4"/><line x1="-294.7" y1="629.5" x2="207.6" y2="1051.0"/><line x1="-296.9" y1="632.2" x2="205.4" y2="1053.7"/><line x1="-299.2" y1="634.8" x2="203.2" y2="1056.3"/><line x1="-301.4" y1="637.5" x2="200.9" y2="1059.0"/><line x1="-303.6" y1="640.1" x2="198.7" y2="1061.6"/><line x1="-305.8" y1="642.7" x2="196.5" y2="1064.3"/><line x1="-308.0" y1="645.4" x2="194.3" y2="1066.9"/><line x1="-310.3" y1="648.0" x2="192.1" y2="1069.5"/><line x1="-312.5" y1="650.7" x2="189.9" y2="1072.2"/><line x1="-314.7" y1="653.3" x2="187.6" y2="1074.8"/><line x1="-316.9" y1="656.0" x2="185.4" y2="1077.5"/><line x1="-319.1" y1="658.6" x2="183.2" y2="1080.1"/><line x1="-321.3" y1="661.2" x2="181.0" y2="1082.8"/><line x1="-323.6" y1="663.9" x2="178.8" y2="1085.4"/><line x1="-325.8" y1="666.5" x2="176.6" y2="1088.0"/><line x1="-328.0" y1="669.2" x2="174.3" y2="1090.7"/><line x1="-330.2" y1="671.8" x2="172.1" y2="1093.3"/><line x1="-332.4" y1="674.5" x2="169.9" y2="1096.0"/><line x1="-334.6" y1="677.1" x2="167.7" y2="1098.6"/><line x1="-336.9" y1="679.7" x2="165.5" y2="1101.3"/><line x1="-339.1" y1="682.4" x2="163.2" y2="1103.9"/><line x1="-341.3" y1="685.0" x2="161.0" y2="1106.5"/><line x1="-343.5" y1="687.7" x2="158.8" y2="1109.2"/><line x1="-345.7" y1="690.3" x2="156.6" y2="1111.8"/><line x1="-348.0" y1="693.0" x2="154.4" y2="1114.5"/><line x1="-350.2" y1="695.6" x2="152.2" y2="1117.1"/><line x1="-352.4" y1="698.2" x2="149.9" y2="1119.8"/><line x1="-354.6" y1="700.9" x2="147.7" y2="1122.4"/><line x1="-356.8" y1="703.5" x2="145.5" y2="1125.0"/><line x1="-359.0" y1="706.2" x2="143.3" y2="1127.7"/><line x1="-361.3" y1="708.8" x2="141.1" y2="1130.3"/><line x1="-363.5" y1="711.5" x2="138.9" y2="1133.0"/><line x1="-365.7" y1="714.1" x2="136.6" y2="1135.6"/><line x1="-367.9" y1="716.7" x2="134.4" y2="1138.3"/><line x1="-370.1" y1="719.4" x2="132.2" y2="1140.9"/><line x1="-372.3" y1="722.0" x2="130.0" y2="1143.5"/><line x1="-374.6" y1="724.7" x2="127.8" y2="1146.2"/><line x1="-376.8" y1="727.3" x2="125.5" y2="1148.8"/><line x1="-379.0" y1="730.0" x2="123.3" y2="1151.5"/><line x1="-381.2" y1="732.6" x2="121.1" y2="1154.1"/><line x1="-383.4" y1="735.2" x2="118.9" y2="1156.8"/><line x1="-385.7" y1="737.9" x2="116.7" y2="1159.4"/><line x1="-387.9" y1="740.5" x2="114.5" y2="1162.0"/><line x1="-390.1" y1="743.2" x2="112.2" y2="1164.7"/><line x1="-392.3" y1="745.8" x2="110.0" y2="1167.3"/><line x1="-394.5" y1="748.5" x2="107.8" y2="1170.0"/><line x1="-396.7" y1="751.1" x2="105.6" y2="1172.6"/><line x1="-399.0" y1="753.7" x2="103.4" y2="1175.3"/><line x1="-401.2" y1="756.4" x2="101.2" y2="1177.9"/><line x1="-403.4" y1="759.0" x2="98.9" y2="1180.5"/><line x1="-405.6" y1="761.7" x2="96.7" y2="1183.2"/><line x1="-407.8" y1="764.3" x2="94.5" y2="1185.8"/><line x1="-410.0" y1="767.0" x2="92.3" y2="1188.5"/><line x1="-412.3" y1="769.6" x2="90.1" y2="1191.1"/><line x1="-414.5" y1="772.2" x2="87.8" y2="1193.8"/><line x1="-416.7" y1="774.9" x2="85.6" y2="1196.4"/><line x1="-418.9" y1="777.5" x2="83.4" y2="1199.0"/><line x1="-421.1" y1="780.2" x2="81.2" y2="1201.7"/><line x1="-423.4" y1="782.8" x2="79.0" y2="1204.3"/><line x1="-425.6" y1="785.5" x2="76.8" y2="1207.0"/><line x1="-427.8" y1="788.1" x2="74.5" y2="1209.6"/><line x1="-430.0" y1="790.7" x2="72.3" y2="1212.3"/><line x1="-432.2" y1="793.4" x2="70.1" y2="1214.9"/><line x1="-434.4" y1="796.0" x2="67.9" y2="1217.5"/><line x1="-436.7" y1="798.7" x2="65.7" y2="1220.2"/><line x1="-438.9" y1="801.3" x2="63.5" y2="1222.8"/><line x1="-441.1" y1="804.0" x2="61.2" y2="1225.5"/><line x1="-443.3" y1="806.6" x2="59.0" y2="1228.1"/><line x1="-445.5" y1="809.2" x2="56.8" y2="1230.8"/><line x1="-447.7" y1="811.9" x2="54.6" y2="1233.4"/><line x1="-450.0" y1="814.5" x2="52.4" y2="1236.0"/><line x1="-452.2" y1="817.2" x2="50.1" y2="1238.7"/><line x1="-454.4" y1="819.8" x2="47.9" y2="1241.3"/><line x1="-456.6" y1="822.5" x2="45.7" y2="1244.0"/><line x1="-458.8" y1="825.1" x2="43.5" y2="1246.6"/><line x1="-461.1" y1="827.7" x2="41.3" y2="1249.3"/><line x1="-463.3" y1="830.4" x2="39.1" y2="1251.9"/><line x1="-465.5" y1="833.0" x2="36.8" y2="1254.5"/><line x1="-467.7" y1="835.7" x2="34.6" y2="1257.2"/><line x1="-469.9" y1="838.3" x2="32.4" y2="1259.8"/><line x1="-472.1" y1="841.0" x2="30.2" y2="1262.5"/><line x1="-474.4" y1="843.6" x2="28.0" y2="1265.1"/><line x1="-476.6" y1="846.2" x2="25.8" y2="1267.8"/><line x1="-478.8" y1="848.9" x2="23.5" y2="1270.4"/><line x1="-481.0" y1="851.5" x2="21.3" y2="1273.0"/><line x1="-483.2" y1="854.2" x2="19.1" y2="1275.7"/><line x1="-485.4" y1="856.8" x2="16.9" y2="1278.3"/><line x1="-487.7" y1="859.5" x2="14.7" y2="1281.0"/><line x1="-489.9" y1="862.1" x2="12.4" y2="1283.6"/><line x1="-492.1" y1="864.7" x2="10.2" y2="1286.3"/><line x1="-494.3" y1="867.4" x2="8.0" y2="1288.9"/><line x1="-496.5" y1="870.0" x2="5.8" y2="1291.5"/><line x1="-498.7" y1="872.7" x2="3.6" y2="1294.2"/><line x1="-501.0" y1="875.3" x2="1.4" y2="1296.8"/><line x1="-503.2" y1="878.0" x2="-0.9" y2="1299.5"/><line x1="-505.4" y1="880.6" x2="-3.1" y2="1302.1"/><line x1="-507.6" y1="883.2" x2="-5.3" y2="1304.8"/><line x1="-509.8" y1="885.9" x2="-7.5" y2="1307.4"/><line x1="-512.1" y1="888.5" x2="-9.7" y2="1310.0"/><line x1="-514.3" y1="891.2" x2="-11.9" y2="1312.7"/><line x1="-516.5" y1="893.8" x2="-14.2" y2="1315.3"/><line x1="-518.7" y1="896.5" x2="-16.4" y2="1318.0"/><line x1="-520.9" y1="899.1" x2="-18.6" y2="1320.6"/><line x1="-523.1" y1="901.7" x2="-20.8" y2="1323.3"/><line x1="-525.4" y1="904.4" x2="-23.0" y2="1325.9"/><line x1="-527.6" y1="907.0" x2="-25.3" y2="1328.5"/><line x1="-529.8" y1="909.7" x2="-27.5" y2="1331.2"/><line x1="-532.0" y1="912.3" x2="-29.7" y2="1333.8"/><line x1="-534.2" y1="915.0" x2="-31.9" y2="1336.5"/><line x1="-536.4" y1="917.6" x2="-34.1" y2="1339.1"/><line x1="-538.7" y1="920.2" x2="-36.3" y2="1341.8"/><line x1="-540.9" y1="922.9" x2="-38.6" y2="1344.4"/><line x1="-543.1" y1="925.5" x2="-40.8" y2="1347.0"/><line x1="-545.3" y1="928.2" x2="-43.0" y2="1349.7"/><line x1="-547.5" y1="930.8" x2="-45.2" y2="1352.3"/><line x1="-549.8" y1="933.5" x2="-47.4" y2="1355.0"/><line x1="-552.0" y1="936.1" x2="-49.6" y2="1357.6"/><line x1="-554.2" y1="938.7" x2="-51.9" y2="1360.3"/><line x1="-556.4" y1="941.4" x2="-54.1" y2="1362.9"/><line x1="-558.6" y1="944.0" x2="-56.3" y2="1365.5"/><line x1="-560.8" y1="946.7" x2="-58.5" y2="1368.2"/><line x1="-563.1" y1="949.3" x2="-60.7" y2="1370.8"/><line x1="-565.3" y1="952.0" x2="-63.0" y2="1373.5"/><line x1="-567.5" y1="954.6" x2="-65.2" y2="1376.1"/><line x1="-569.7" y1="957.2" x2="-67.4" y2="1378.8"/><line x1="-571.9" y1="959.9" x2="-69.6" y2="1381.4"/><line x1="-574.1" y1="962.5" x2="-71.8" y2="1384.0"/><line x1="-576.4" y1="965.2" x2="-74.0" y2="1386.7"/><line x1="-578.6" y1="967.8" x2="-76.3" y2="1389.3"/><line x1="-580.8" y1="970.5" x2="-78.5" y2="1392.0"/><line x1="-583.0" y1="973.1" x2="-80.7" y2="1394.6"/><line x1="-585.2" y1="975.7" x2="-82.9" y2="1397.3"/><line x1="-587.5" y1="978.4" x2="-85.1" y2="1399.9"/><line x1="-589.7" y1="981.0" x2="-87.3" y2="1402.5"/><line x1="-591.9" y1="983.7" x2="-89.6" y2="1405.2"/><line x1="-594.1" y1="986.3" x2="-91.8" y2="1407.8"/><line x1="-596.3" y1="989.0" x2="-94.0" y2="1410.5"/><line x1="-598.5" y1="991.6" x2="-96.2" y2="1413.1"/><line x1="-600.8" y1="994.2" x2="-98.4" y2="1415.8"/><line x1="-603.0" y1="996.9" x2="-100.6" y2="1418.4"/><line x1="-605.2" y1="999.5" x2="-102.9" y2="1421.0"/><line x1="-607.4" y1="1002.2" x2="-105.1" y2="1423.7"/><line x1="-609.6" y1="1004.8" x2="-107.3" y2="1426.3"/><line x1="-611.8" y1="1007.5" x2="-109.5" y2="1429.0"/><line x1="-614.1" y1="1010.1" x2="-111.7" y2="1431.6"/><line x1="-616.3" y1="1012.7" x2="-114.0" y2="1434.3"/><line x1="-618.5" y1="1015.4" x2="-116.2" y2="1436.9"/><line x1="-620.7" y1="1018.0" x2="-118.4" y2="1439.5"/><line x1="-622.9" y1="1020.7" x2="-120.6" y2="1442.2"/><line x1="-625.2" y1="1023.3" x2="-122.8" y2="1444.8"/><line x1="-627.4" y1="1026.0" x2="-125.0" y2="1447.5"/><line x1="-629.6" y1="1028.6" x2="-127.3" y2="1450.1"/><line x1="-631.8" y1="1031.2" x2="-129.5" y2="1452.8"/><line x1="-634.0" y1="1033.9" x2="-131.7" y2="1455.4"/><line x1="-636.2" y1="1036.5" x2="-133.9" y2="1458.0"/><line x1="-638.5" y1="1039.2" x2="-136.1" y2="1460.7"/><line x1="-640.7" y1="1041.8" x2="-138.3" y2="1463.3"/><line x1="-642.9" y1="1044.5" x2="-140.6" y2="1466.0"/><line x1="-645.1" y1="1047.1" x2="-142.8" y2="1468.6"/><line x1="-647.3" y1="1049.7" x2="-145.0" y2="1471.3"/><line x1="-649.5" y1="1052.4" x2="-147.2" y2="1473.9"/><line x1="-651.8" y1="1055.0" x2="-149.4" y2="1476.5"/><line x1="-654.0" y1="1057.7" x2="-151.7" y2="1479.2"/><line x1="-656.2" y1="1060.3" x2="-153.9" y2="1481.8"/><line x1="-658.4" y1="1063.0" x2="-156.1" y2="1484.5"/><line x1="-660.6" y1="1065.6" x2="-158.3" y2="1487.1"/><line x1="-662.9" y1="1068.2" x2="-160.5" y2="1489.8"/><line x1="-665.1" y1="1070.9" x2="-162.7" y2="1492.4"/><line x1="-667.3" y1="1073.5" x2="-165.0" y2="1495.0"/><line x1="-669.5" y1="1076.2" x2="-167.2" y2="1497.7"/><line x1="-671.7" y1="1078.8" x2="-169.4" y2="1500.3"/><line x1="-673.9" y1="1081.5" x2="-171.6" y2="1503.0"/><line x1="-676.2" y1="1084.1" x2="-173.8" y2="1505.6"/><line x1="-678.4" y1="1086.7" x2="-176.0" y2="1508.3"/><line x1="-680.6" y1="1089.4" x2="-178.3" y2="1510.9"/><line x1="-682.8" y1="1092.0" x2="-180.5" y2="1513.5"/><line x1="-685.0" y1="1094.7" x2="-182.7" y2="1516.2"/><line x1="-687.2" y1="1097.3" x2="-184.9" y2="1518.8"/><line x1="-689.5" y1="1100.0" x2="-187.1" y2="1521.5"/><line x1="-691.7" y1="1102.6" x2="-189.4" y2="1524.1"/><line x1="-693.9" y1="1105.2" x2="-191.6" y2="1526.8"/><line x1="-696.1" y1="1107.9" x2="-193.8" y2="1529.4"/><line x1="-698.3" y1="1110.5" x2="-196.0" y2="1532.0"/><line x1="-700.6" y1="1113.2" x2="-198.2" y2="1534.7"/><line x1="-702.8" y1="1115.8" x2="-200.4" y2="1537.3"/><line x1="-705.0" y1="1118.5" x2="-202.7" y2="1540.0"/><line x1="-707.2" y1="1121.1" x2="-204.9" y2="1542.6"/><line x1="-709.4" y1="1123.7" x2="-207.1" y2="1545.3"/><line x1="-711.6" y1="1126.4" x2="-209.3" y2="1547.9"/></g><path d="M 527.79 335.50 C 528.42 340.33 528.93 345.25 529.13 350.19 C 529.32 355.13 529.34 360.15 528.98 365.13 C 528.62 370.12 528.00 375.16 526.98 380.09 C 525.96 385.01 524.61 389.94 522.86 394.67 C 521.12 399.41 518.98 404.07 516.52 408.47 C 514.05 412.87 511.18 417.12 508.07 421.07 C 504.95 425.03 501.47 428.75 497.83 432.20 C 494.20 435.65 490.26 438.82 486.25 441.75 C 482.25 444.69 478.03 447.33 473.81 449.81 C 469.59 452.28 465.24 454.49 460.91 456.59 C 456.58 458.69 452.20 460.58 447.82 462.39 C 443.45 464.20 439.07 465.87 434.66 467.46 C 430.26 469.06 425.85 470.56 421.39 471.95 C 416.93 473.35 412.46 474.67 407.91 475.83 C 403.37 476.99 398.78 478.07 394.12 478.91 C 389.47 479.76 384.75 480.48 380.00 480.92 C 375.25 481.36 370.42 481.60 365.62 481.54 C 360.81 481.47 355.95 481.15 351.15 480.52 C 346.36 479.88 341.55 478.96 336.85 477.74 C 332.15 476.53 327.48 475.00 322.95 473.23 C 318.41 471.47 313.96 469.40 309.64 467.14 C 305.32 464.88 301.11 462.36 297.03 459.68 C 292.95 457.00 288.99 454.09 285.17 451.05 C 281.34 448.01 277.64 444.79 274.08 441.42 C 270.52 438.06 267.07 434.53 263.80 430.86 C 260.54 427.19 257.39 423.36 254.47 419.38 C 251.55 415.40 248.77 411.26 246.28 406.98 C 243.79 402.69 241.49 398.24 239.53 393.68 C 237.57 389.13 235.86 384.41 234.52 379.63 C 233.18 374.86 232.15 369.94 231.48 365.04 C 230.81 360.14 230.51 355.15 230.52 350.22 C 230.53 345.30 230.91 340.35 231.55 335.50 C 232.18 330.65 233.16 325.84 234.31 321.15 C 235.46 316.46 236.90 311.85 238.43 307.34 C 239.96 302.83 241.71 298.43 243.50 294.09 C 245.29 289.75 247.21 285.52 249.17 281.31 C 251.13 277.10 253.16 272.96 255.25 268.82 C 257.35 264.69 259.49 260.58 261.75 256.49 C 264.02 252.40 266.33 248.30 268.83 244.27 C 271.34 240.23 273.94 236.19 276.78 232.28 C 279.62 228.37 282.62 224.48 285.88 220.81 C 289.13 217.14 292.61 213.56 296.33 210.27 C 300.04 206.99 304.02 203.88 308.18 201.13 C 312.34 198.38 316.76 195.88 321.29 193.77 C 325.83 191.66 330.59 189.88 335.40 188.47 C 340.20 187.05 345.17 186.01 350.12 185.28 C 355.07 184.55 360.11 184.20 365.09 184.10 C 370.07 184.00 375.07 184.24 380.00 184.68 C 384.93 185.12 389.83 185.84 394.65 186.72 C 399.48 187.60 404.25 188.71 408.95 189.97 C 413.65 191.22 418.28 192.66 422.85 194.26 C 427.41 195.85 431.91 197.61 436.32 199.54 C 440.72 201.48 445.07 203.58 449.28 205.88 C 453.50 208.18 457.64 210.67 461.61 213.36 C 465.58 216.06 469.44 218.96 473.10 222.06 C 476.76 225.15 480.27 228.47 483.55 231.95 C 486.84 235.43 489.93 239.12 492.80 242.93 C 495.67 246.73 498.32 250.73 500.78 254.80 C 503.24 258.86 505.47 263.07 507.54 267.33 C 509.61 271.58 511.48 275.93 513.22 280.32 C 514.96 284.70 516.53 289.15 518.00 293.64 C 519.47 298.13 520.81 302.66 522.03 307.25 C 523.25 311.84 524.37 316.48 525.33 321.19 C 526.29 325.89 527.15 330.67 527.79 335.50 Z" fill="none" stroke="#FFFFFF" stroke-width="1.0" opacity="0.85"/><path d="M 511.26 335.50 C 511.83 339.79 512.28 344.16 512.45 348.55 C 512.63 352.93 512.64 357.39 512.32 361.82 C 512.01 366.25 511.46 370.73 510.55 375.10 C 509.64 379.48 508.44 383.86 506.89 388.06 C 505.34 392.26 503.44 396.40 501.25 400.31 C 499.06 404.22 496.51 407.99 493.75 411.50 C 490.98 415.02 487.89 418.33 484.66 421.39 C 481.43 424.45 477.93 427.27 474.37 429.87 C 470.82 432.48 467.07 434.83 463.32 437.03 C 459.57 439.22 455.71 441.19 451.86 443.05 C 448.02 444.91 444.13 446.59 440.24 448.20 C 436.36 449.81 432.46 451.29 428.55 452.71 C 424.64 454.13 420.72 455.46 416.76 456.70 C 412.80 457.93 408.83 459.11 404.79 460.14 C 400.76 461.17 396.68 462.13 392.55 462.88 C 388.41 463.63 384.22 464.27 380.00 464.66 C 375.78 465.05 371.49 465.27 367.22 465.21 C 362.95 465.15 358.64 464.87 354.38 464.30 C 350.12 463.74 345.85 462.92 341.68 461.84 C 337.50 460.76 333.36 459.40 329.33 457.83 C 325.30 456.27 321.34 454.43 317.50 452.42 C 313.67 450.42 309.93 448.18 306.30 445.79 C 302.68 443.41 299.17 440.84 295.77 438.13 C 292.37 435.43 289.08 432.57 285.92 429.58 C 282.76 426.59 279.70 423.46 276.80 420.20 C 273.89 416.93 271.10 413.54 268.50 410.00 C 265.91 406.47 263.44 402.79 261.23 398.98 C 259.02 395.18 256.98 391.23 255.23 387.18 C 253.49 383.13 251.97 378.94 250.78 374.70 C 249.59 370.46 248.68 366.09 248.09 361.74 C 247.49 357.39 247.22 352.95 247.23 348.58 C 247.24 344.20 247.58 339.80 248.14 335.50 C 248.71 331.20 249.58 326.92 250.60 322.76 C 251.62 318.59 252.90 314.49 254.26 310.49 C 255.62 306.48 257.17 302.58 258.76 298.72 C 260.35 294.87 262.06 291.11 263.80 287.37 C 265.54 283.63 267.34 279.95 269.20 276.28 C 271.06 272.60 272.96 268.96 274.97 265.32 C 276.98 261.69 279.04 258.05 281.26 254.47 C 283.49 250.89 285.80 247.29 288.32 243.82 C 290.84 240.35 293.51 236.89 296.40 233.63 C 299.29 230.38 302.38 227.19 305.68 224.28 C 308.98 221.36 312.51 218.59 316.21 216.15 C 319.90 213.71 323.83 211.49 327.86 209.62 C 331.89 207.74 336.12 206.16 340.38 204.91 C 344.65 203.65 349.07 202.72 353.46 202.08 C 357.86 201.43 362.33 201.12 366.76 201.03 C 371.18 200.94 375.62 201.15 380.00 201.54 C 384.38 201.93 388.73 202.57 393.02 203.36 C 397.30 204.14 401.54 205.12 405.71 206.24 C 409.88 207.35 414.00 208.63 418.06 210.05 C 422.11 211.47 426.11 213.02 430.02 214.74 C 433.93 216.46 437.79 218.33 441.54 220.37 C 445.28 222.42 448.96 224.62 452.49 227.02 C 456.01 229.41 459.44 231.99 462.69 234.74 C 465.94 237.49 469.06 240.44 471.98 243.52 C 474.89 246.61 477.64 249.89 480.19 253.28 C 482.74 256.66 485.10 260.21 487.28 263.82 C 489.46 267.43 491.44 271.17 493.28 274.95 C 495.12 278.73 496.78 282.59 498.33 286.49 C 499.87 290.38 501.27 294.33 502.57 298.32 C 503.88 302.30 505.07 306.33 506.15 310.41 C 507.24 314.49 508.23 318.60 509.08 322.79 C 509.94 326.97 510.70 331.21 511.26 335.50 Z" fill="none" stroke="#FFFFFF" stroke-width="0.6" opacity="0.5"/><path d="M 469.96 335.50 C 470.34 338.44 470.65 341.43 470.77 344.44 C 470.89 347.45 470.90 350.50 470.68 353.54 C 470.47 356.57 470.09 359.64 469.47 362.64 C 468.85 365.64 468.02 368.64 466.96 371.52 C 465.90 374.40 464.60 377.24 463.10 379.92 C 461.60 382.59 459.85 385.18 457.95 387.59 C 456.06 389.99 453.94 392.26 451.72 394.36 C 449.51 396.46 447.11 398.39 444.68 400.18 C 442.24 401.96 439.67 403.57 437.10 405.08 C 434.53 406.58 431.89 407.93 429.25 409.21 C 426.61 410.48 423.95 411.63 421.28 412.74 C 418.62 413.84 415.95 414.86 413.27 415.83 C 410.59 416.80 407.91 417.71 405.20 418.56 C 402.48 419.41 399.76 420.21 396.99 420.92 C 394.22 421.62 391.43 422.28 388.60 422.80 C 385.77 423.31 382.89 423.75 380.00 424.02 C 377.11 424.28 374.17 424.43 371.24 424.39 C 368.32 424.35 365.36 424.16 362.44 423.77 C 359.52 423.39 356.60 422.82 353.74 422.08 C 350.87 421.34 348.03 420.41 345.27 419.34 C 342.51 418.26 339.80 417.00 337.17 415.63 C 334.54 414.25 331.98 412.72 329.50 411.09 C 327.01 409.45 324.60 407.69 322.28 405.84 C 319.95 403.98 317.69 402.02 315.53 399.97 C 313.36 397.93 311.26 395.78 309.27 393.54 C 307.28 391.31 305.37 388.98 303.59 386.56 C 301.81 384.13 300.12 381.61 298.60 379.01 C 297.09 376.40 295.69 373.69 294.50 370.92 C 293.30 368.14 292.26 365.27 291.45 362.36 C 290.63 359.46 290.00 356.47 289.60 353.48 C 289.19 350.50 289.00 347.46 289.01 344.46 C 289.02 341.46 289.25 338.45 289.64 335.50 C 290.02 332.55 290.62 329.62 291.32 326.77 C 292.02 323.91 292.90 321.10 293.83 318.36 C 294.76 315.61 295.82 312.94 296.91 310.30 C 298.00 307.65 299.17 305.08 300.36 302.51 C 301.56 299.95 302.79 297.43 304.07 294.91 C 305.34 292.40 306.65 289.90 308.02 287.41 C 309.40 284.92 310.81 282.42 312.33 279.97 C 313.86 277.51 315.44 275.05 317.17 272.67 C 318.90 270.29 320.72 267.92 322.71 265.69 C 324.69 263.46 326.81 261.27 329.07 259.28 C 331.33 257.28 333.75 255.38 336.28 253.71 C 338.81 252.03 341.50 250.52 344.27 249.23 C 347.03 247.95 349.93 246.86 352.85 246.00 C 355.78 245.14 358.80 244.51 361.81 244.06 C 364.82 243.62 367.89 243.40 370.92 243.34 C 373.95 243.28 377.00 243.43 380.00 243.70 C 383.00 243.96 385.98 244.40 388.92 244.94 C 391.86 245.48 394.76 246.15 397.62 246.92 C 400.48 247.68 403.30 248.55 406.08 249.53 C 408.86 250.50 411.60 251.56 414.28 252.74 C 416.96 253.92 419.61 255.20 422.17 256.60 C 424.74 258.00 427.26 259.51 429.68 261.16 C 432.09 262.80 434.44 264.56 436.67 266.45 C 438.90 268.33 441.03 270.35 443.03 272.47 C 445.03 274.59 446.91 276.83 448.66 279.15 C 450.41 281.47 452.02 283.90 453.52 286.38 C 455.01 288.85 456.37 291.42 457.63 294.00 C 458.89 296.59 460.03 299.24 461.09 301.91 C 462.15 304.58 463.11 307.29 464.00 310.02 C 464.90 312.75 465.71 315.51 466.45 318.30 C 467.20 321.10 467.88 323.92 468.46 326.79 C 469.05 329.65 469.57 332.56 469.96 335.50 Z" fill="none" stroke="#FFFFFF" stroke-width="1.0" opacity="0.85"/><path d="M 457.11 335.50 C 457.44 338.02 457.70 340.59 457.80 343.16 C 457.91 345.74 457.92 348.36 457.73 350.96 C 457.54 353.56 457.22 356.19 456.69 358.76 C 456.15 361.33 455.45 363.91 454.54 366.37 C 453.63 368.84 452.51 371.28 451.23 373.57 C 449.94 375.87 448.44 378.08 446.82 380.15 C 445.19 382.21 443.37 384.15 441.48 385.95 C 439.58 387.75 437.53 389.41 435.44 390.94 C 433.35 392.47 431.15 393.85 428.94 395.14 C 426.74 396.43 424.47 397.58 422.21 398.68 C 419.95 399.77 417.67 400.76 415.39 401.70 C 413.10 402.65 410.82 403.52 408.52 404.35 C 406.22 405.18 403.92 405.96 401.60 406.69 C 399.27 407.42 396.93 408.11 394.56 408.71 C 392.19 409.32 389.80 409.88 387.37 410.32 C 384.94 410.77 382.48 411.14 380.00 411.37 C 377.52 411.60 375.00 411.73 372.50 411.69 C 369.99 411.66 367.45 411.49 364.95 411.16 C 362.45 410.83 359.94 410.35 357.49 409.71 C 355.04 409.08 352.60 408.28 350.23 407.36 C 347.87 406.44 345.54 405.36 343.29 404.18 C 341.03 403.00 338.84 401.69 336.71 400.29 C 334.58 398.89 332.52 397.38 330.52 395.79 C 328.53 394.20 326.59 392.52 324.74 390.76 C 322.88 389.01 321.08 387.17 319.38 385.25 C 317.67 383.34 316.03 381.34 314.50 379.26 C 312.98 377.19 311.53 375.03 310.23 372.79 C 308.93 370.56 307.73 368.23 306.71 365.86 C 305.69 363.48 304.80 361.02 304.10 358.53 C 303.40 356.03 302.86 353.47 302.51 350.91 C 302.16 348.36 302.00 345.75 302.01 343.18 C 302.02 340.61 302.22 338.03 302.55 335.50 C 302.88 332.97 303.39 330.46 303.99 328.01 C 304.59 325.56 305.34 323.16 306.14 320.81 C 306.94 318.46 307.85 316.16 308.78 313.90 C 309.72 311.63 310.72 309.42 311.74 307.23 C 312.76 305.03 313.82 302.87 314.92 300.71 C 316.01 298.55 317.12 296.41 318.31 294.28 C 319.49 292.14 320.69 290.01 322.00 287.90 C 323.31 285.80 324.66 283.69 326.15 281.65 C 327.63 279.61 329.19 277.58 330.89 275.66 C 332.59 273.75 334.41 271.88 336.34 270.17 C 338.28 268.45 340.36 266.83 342.53 265.39 C 344.70 263.96 347.00 262.66 349.37 261.56 C 351.74 260.45 354.22 259.53 356.73 258.79 C 359.24 258.05 361.83 257.50 364.41 257.12 C 366.99 256.74 369.62 256.56 372.22 256.51 C 374.82 256.46 377.43 256.58 380.00 256.81 C 382.57 257.04 385.13 257.42 387.65 257.88 C 390.16 258.34 392.65 258.92 395.10 259.57 C 397.55 260.23 399.97 260.98 402.35 261.81 C 404.73 262.64 407.08 263.56 409.38 264.57 C 411.68 265.58 413.95 266.67 416.15 267.87 C 418.35 269.07 420.51 270.37 422.58 271.78 C 424.65 273.18 426.67 274.70 428.57 276.31 C 430.48 277.93 432.31 279.66 434.03 281.47 C 435.74 283.29 437.35 285.21 438.85 287.20 C 440.35 289.19 441.73 291.27 443.02 293.39 C 444.30 295.52 445.46 297.71 446.54 299.93 C 447.62 302.15 448.60 304.42 449.51 306.71 C 450.42 309.00 451.24 311.32 452.00 313.66 C 452.77 316.00 453.46 318.36 454.10 320.76 C 454.74 323.16 455.32 325.58 455.83 328.03 C 456.33 330.49 456.78 332.98 457.11 335.50 Z" fill="none" stroke="#FFFFFF" stroke-width="0.6" opacity="0.5"/><path d="M 413.01 335.50 C 413.18 336.58 413.32 337.68 413.38 338.79 C 413.45 339.90 413.48 341.03 413.43 342.15 C 413.37 343.27 413.25 344.41 413.04 345.52 C 412.82 346.63 412.53 347.75 412.15 348.82 C 411.76 349.88 411.28 350.93 410.73 351.92 C 410.17 352.91 409.51 353.86 408.80 354.75 C 408.09 355.63 407.29 356.45 406.46 357.21 C 405.63 357.97 404.72 358.67 403.81 359.31 C 402.89 359.94 401.93 360.51 400.96 361.05 C 400.00 361.58 399.02 362.05 398.04 362.50 C 397.06 362.94 396.07 363.35 395.09 363.74 C 394.11 364.13 393.13 364.49 392.15 364.84 C 391.17 365.19 390.19 365.52 389.20 365.83 C 388.21 366.15 387.22 366.45 386.21 366.72 C 385.20 366.99 384.18 367.25 383.15 367.45 C 382.11 367.66 381.06 367.84 380.00 367.95 C 378.94 368.07 377.86 368.14 376.79 368.14 C 375.71 368.14 374.62 368.08 373.55 367.95 C 372.47 367.81 371.39 367.61 370.34 367.34 C 369.29 367.08 368.24 366.73 367.23 366.34 C 366.21 365.94 365.22 365.47 364.25 364.97 C 363.28 364.46 362.35 363.89 361.43 363.29 C 360.52 362.68 359.64 362.03 358.78 361.35 C 357.93 360.67 357.10 359.95 356.30 359.20 C 355.50 358.45 354.73 357.66 353.99 356.85 C 353.25 356.03 352.54 355.18 351.87 354.29 C 351.21 353.41 350.58 352.48 350.01 351.53 C 349.45 350.57 348.92 349.58 348.48 348.56 C 348.03 347.54 347.64 346.48 347.34 345.41 C 347.04 344.34 346.81 343.23 346.67 342.13 C 346.52 341.03 346.47 339.91 346.49 338.80 C 346.50 337.70 346.61 336.58 346.77 335.50 C 346.94 334.42 347.18 333.34 347.46 332.30 C 347.74 331.25 348.09 330.23 348.46 329.23 C 348.82 328.23 349.23 327.25 349.65 326.29 C 350.06 325.33 350.51 324.40 350.95 323.47 C 351.39 322.53 351.84 321.62 352.31 320.70 C 352.77 319.78 353.24 318.86 353.73 317.95 C 354.22 317.03 354.72 316.11 355.26 315.19 C 355.80 314.28 356.35 313.36 356.97 312.47 C 357.58 311.58 358.23 310.68 358.94 309.84 C 359.65 309.00 360.42 308.17 361.24 307.42 C 362.06 306.67 362.94 305.95 363.87 305.32 C 364.79 304.69 365.78 304.12 366.80 303.64 C 367.82 303.16 368.89 302.76 369.97 302.45 C 371.05 302.13 372.17 301.91 373.29 301.75 C 374.40 301.60 375.54 301.54 376.65 301.53 C 377.77 301.53 378.90 301.60 380.00 301.71 C 381.10 301.83 382.20 302.01 383.28 302.22 C 384.36 302.43 385.42 302.69 386.47 302.98 C 387.52 303.27 388.55 303.60 389.57 303.96 C 390.59 304.32 391.59 304.71 392.58 305.14 C 393.56 305.57 394.53 306.04 395.48 306.55 C 396.42 307.06 397.35 307.61 398.24 308.21 C 399.12 308.81 399.99 309.45 400.81 310.15 C 401.62 310.84 402.41 311.58 403.14 312.36 C 403.87 313.14 404.56 313.97 405.19 314.82 C 405.83 315.68 406.41 316.58 406.95 317.49 C 407.49 318.40 407.98 319.35 408.43 320.30 C 408.88 321.26 409.29 322.23 409.67 323.21 C 410.06 324.19 410.40 325.18 410.73 326.18 C 411.05 327.18 411.35 328.19 411.63 329.21 C 411.91 330.23 412.18 331.26 412.41 332.31 C 412.64 333.36 412.85 334.42 413.01 335.50 Z" fill="#FFFFFF"/><path d="M 398.34 335.50 C 398.42 336.10 398.49 336.71 398.52 337.32 C 398.54 337.94 398.55 338.56 398.51 339.18 C 398.47 339.80 398.39 340.43 398.27 341.04 C 398.14 341.65 397.98 342.27 397.76 342.86 C 397.55 343.45 397.28 344.03 396.97 344.57 C 396.67 345.12 396.31 345.65 395.92 346.14 C 395.53 346.63 395.10 347.09 394.65 347.52 C 394.19 347.95 393.70 348.34 393.20 348.70 C 392.70 349.06 392.18 349.39 391.65 349.69 C 391.12 350.00 390.58 350.27 390.04 350.53 C 389.50 350.79 388.96 351.02 388.42 351.25 C 387.87 351.47 387.33 351.68 386.78 351.88 C 386.24 352.08 385.69 352.26 385.14 352.44 C 384.59 352.61 384.03 352.78 383.47 352.93 C 382.90 353.07 382.33 353.21 381.75 353.32 C 381.18 353.43 380.59 353.52 380.00 353.58 C 379.41 353.63 378.81 353.67 378.21 353.66 C 377.61 353.65 377.01 353.61 376.41 353.53 C 375.82 353.45 375.22 353.34 374.64 353.18 C 374.05 353.03 373.47 352.84 372.91 352.62 C 372.35 352.40 371.79 352.14 371.26 351.85 C 370.72 351.57 370.20 351.25 369.70 350.92 C 369.19 350.58 368.70 350.22 368.23 349.84 C 367.76 349.46 367.30 349.06 366.86 348.64 C 366.41 348.23 365.99 347.79 365.58 347.33 C 365.17 346.88 364.78 346.41 364.42 345.91 C 364.05 345.42 363.70 344.91 363.39 344.38 C 363.08 343.85 362.79 343.30 362.55 342.73 C 362.30 342.16 362.08 341.58 361.92 340.99 C 361.75 340.39 361.62 339.78 361.53 339.17 C 361.45 338.56 361.41 337.94 361.41 337.33 C 361.41 336.72 361.46 336.10 361.54 335.50 C 361.62 334.90 361.75 334.30 361.89 333.72 C 362.04 333.13 362.22 332.56 362.42 332.00 C 362.61 331.44 362.83 330.90 363.05 330.36 C 363.28 329.82 363.52 329.30 363.76 328.77 C 364.01 328.25 364.26 327.74 364.52 327.23 C 364.78 326.71 365.04 326.20 365.32 325.69 C 365.60 325.19 365.89 324.68 366.20 324.17 C 366.51 323.67 366.83 323.17 367.18 322.68 C 367.53 322.19 367.90 321.71 368.30 321.25 C 368.71 320.79 369.14 320.34 369.60 319.93 C 370.06 319.52 370.55 319.13 371.07 318.79 C 371.59 318.45 372.14 318.14 372.70 317.88 C 373.27 317.62 373.86 317.40 374.46 317.22 C 375.05 317.05 375.67 316.92 376.29 316.83 C 376.90 316.75 377.53 316.71 378.15 316.70 C 378.77 316.69 379.39 316.72 380.00 316.78 C 380.61 316.83 381.22 316.92 381.82 317.04 C 382.42 317.15 383.01 317.28 383.59 317.44 C 384.18 317.60 384.75 317.77 385.32 317.97 C 385.88 318.17 386.44 318.38 386.99 318.62 C 387.54 318.86 388.08 319.11 388.61 319.40 C 389.13 319.68 389.65 319.99 390.14 320.32 C 390.64 320.65 391.12 321.01 391.58 321.40 C 392.03 321.78 392.47 322.19 392.88 322.62 C 393.29 323.06 393.67 323.52 394.03 323.99 C 394.38 324.46 394.71 324.96 395.01 325.47 C 395.32 325.97 395.59 326.50 395.85 327.03 C 396.10 327.56 396.33 328.10 396.54 328.65 C 396.76 329.19 396.95 329.75 397.13 330.30 C 397.31 330.86 397.48 331.42 397.63 331.99 C 397.78 332.56 397.92 333.14 398.04 333.72 C 398.16 334.31 398.26 334.90 398.34 335.50 Z" fill="#04070B"/></g><line x1="121.60000000000001" y1="616" x2="638.4" y2="616" stroke="#FFFFFF" stroke-width="2.5" opacity="0.5"/><g fill="#FFFFFF" transform="translate(136.80 701.50) scale(0.081652 -0.081652)"><path d="M192 0Q154 0 122.5 19.0Q91 38 72.0 69.5Q53 101 53 139V194H185V145Q185 140 188.5 136.5Q192 133 197 133H628Q633 133 636.5 136.5Q640 140 640 145V282Q640 287 636.5 290.0Q633 293 628 293H192Q154 293 122.5 312.0Q91 331 72.0 362.5Q53 394 53 433V581Q53 619 72.0 650.5Q91 682 122.5 701.0Q154 720 192 720H634Q672 720 703.5 701.0Q735 682 754.0 650.5Q773 619 773 581V526H640V575Q640 580 636.5 583.5Q633 587 628 587H197Q192 587 188.5 583.5Q185 580 185 575V438Q185 433 188.5 430.0Q192 427 197 427H634Q672 427 703.5 408.0Q735 389 754.0 357.5Q773 326 773 287V139Q773 101 754.0 69.5Q735 38 703.5 19.0Q672 0 634 0Z" transform="translate(0.0 0)"/><path d="M193 0Q155 0 123.5 19.0Q92 38 73.0 69.5Q54 101 54 139V720H186V145Q186 140 189.5 136.5Q193 133 198 133H628Q633 133 637.0 136.5Q641 140 641 145V720H774V139Q774 101 755.0 69.5Q736 38 704.5 19.0Q673 0 635 0H193Z" transform="translate(876.0 0)"/><path d="M59 0V720H611Q649 720 680.5 701.0Q712 682 731.0 650.5Q750 619 750 581V440Q750 427 748.0 415.0Q746 403 741 392Q758 369 768.5 344.0Q779 319 779 294V139Q779 101 760.0 69.5Q741 38 709.0 19.0Q677 0 639 0H59ZM203 133H633Q638 133 642.0 136.5Q646 140 646 145V288Q646 293 642.0 296.5Q638 300 633 300H203Q198 300 194.5 296.5Q191 293 191 288V145Q191 140 194.5 136.5Q198 133 203 133ZM203 433H605Q610 433 613.0 436.5Q616 440 616 445V575Q616 580 613.0 583.5Q610 587 605 587H203Q198 587 194.5 583.5Q191 580 191 575V445Q191 440 194.5 436.5Q198 433 203 433Z" transform="translate(1754.0 0)"/></g><g fill="#FFFFFF" transform="translate(136.80 769.70) scale(0.081652 -0.081652)"><path d="M195 0Q157 0 125.5 19.0Q94 38 75.0 69.5Q56 101 56 139V581Q56 619 75.0 650.5Q94 682 125.5 701.0Q157 720 195 720H774V587H223Q207 587 197.5 578.0Q188 569 188 552V168Q188 152 197.5 142.5Q207 133 223 133H774V0Z" transform="translate(0.0 0)"/><path d="M193 0Q155 0 123.5 19.0Q92 38 73.0 69.5Q54 101 54 139V720H186V145Q186 140 189.5 136.5Q193 133 198 133H628Q633 133 637.0 136.5Q641 140 641 145V720H774V139Q774 101 755.0 69.5Q736 38 704.5 19.0Q673 0 635 0H193Z" transform="translate(872.0 0)"/><path d="M630 0 413 259H586L774 37V0ZM56 0V719H636Q674 719 706.0 700.0Q738 681 757.0 649.5Q776 618 776 580V386Q776 348 757.0 316.0Q738 284 706.0 265.5Q674 247 636 247L188 246V0ZM200 380H630Q635 380 639.0 383.0Q643 386 643 391V575Q643 580 639.0 583.5Q635 587 630 587H200Q195 587 191.5 583.5Q188 580 188 575V391Q188 386 191.5 383.0Q195 380 200 380Z" transform="translate(1750.0 0)"/><path d="M630 0 413 259H586L774 37V0ZM56 0V719H636Q674 719 706.0 700.0Q738 681 757.0 649.5Q776 618 776 580V386Q776 348 757.0 316.0Q738 284 706.0 265.5Q674 247 636 247L188 246V0ZM200 380H630Q635 380 639.0 383.0Q643 386 643 391V575Q643 580 639.0 583.5Q635 587 630 587H200Q195 587 191.5 583.5Q188 580 188 575V391Q188 386 191.5 383.0Q195 380 200 380Z" transform="translate(2625.0 0)"/><path d="M58 0V720H721V587H191V427H617V293H191V133H721V0Z" transform="translate(3500.0 0)"/><path d="M56 0V720H201L643 194V720H776V0H631L188 527V0Z" transform="translate(4316.0 0)"/><path d="M314 0V587H20V720H740V587H447V0Z" transform="translate(5198.0 0)"/></g><line x1="121.60000000000001" y1="872" x2="638.4" y2="872" stroke="#FFFFFF" stroke-width="2.5" opacity="0.5"/><g fill="#A8825A"><path d="M 380.0 912.9 A 57.0 57.0 0 0 1 380.0 1026.9 A 57.0 57.0 0 0 1 380.0 912.9 Z"/></g><g fill="#04070B"><path d="M 402.8 912.9 A 57.0 57.0 0 0 1 402.8 1026.9 A 57.0 57.0 0 0 1 402.8 912.9 Z"/></g><g opacity="0.6"><g fill="#FFFFFF" transform="translate(294.13 1079.70) scale(0.013359 -0.013359)"><path d="M862 0V1376H94V1536H1822V1376H1054V0Z" transform="translate(0.0 0)"/><path d="M871 -32Q646 -32 501.0 -1.5Q356 29 274.5 111.0Q193 193 160.5 347.0Q128 501 128 748V788Q128 992 148.0 1130.5Q168 1269 217.0 1356.0Q266 1443 350.5 1489.0Q435 1535 563.0 1551.5Q691 1568 871 1568H1274Q1454 1568 1582.0 1551.5Q1710 1535 1794.5 1489.0Q1879 1443 1928.0 1356.0Q1977 1269 1997.0 1130.5Q2017 992 2017 788V748Q2017 501 1984.5 347.0Q1952 193 1870.5 111.0Q1789 29 1644.0 -1.5Q1499 -32 1274 -32ZM871 134H1274Q1417 134 1515.0 144.0Q1613 154 1674.5 187.0Q1736 220 1768.5 287.0Q1801 354 1813.0 466.0Q1825 578 1825 748V788Q1825 964 1813.0 1078.0Q1801 1192 1768.5 1258.0Q1736 1324 1674.5 1354.5Q1613 1385 1515.0 1393.5Q1417 1402 1274 1402H871Q728 1402 630.0 1393.5Q532 1385 470.5 1354.5Q409 1324 376.5 1258.0Q344 1192 332.0 1078.0Q320 964 320 788V748Q320 578 332.0 466.0Q344 354 376.5 287.0Q409 220 470.5 187.0Q532 154 630.0 144.0Q728 134 871 134Z" transform="translate(2530.4 0)"/><path d="M192 0V1536H384V864H639L1632 1536H1920L832 784L1952 0H1664L640 704H384V0Z" transform="translate(5289.8 0)"/><path d="M992 0V640L128 1536H384L1088 784L1792 1536H2048L1184 640V0Z" transform="translate(7920.2 0)"/><path d="M871 -32Q646 -32 501.0 -1.5Q356 29 274.5 111.0Q193 193 160.5 347.0Q128 501 128 748V788Q128 992 148.0 1130.5Q168 1269 217.0 1356.0Q266 1443 350.5 1489.0Q435 1535 563.0 1551.5Q691 1568 871 1568H1274Q1454 1568 1582.0 1551.5Q1710 1535 1794.5 1489.0Q1879 1443 1928.0 1356.0Q1977 1269 1997.0 1130.5Q2017 992 2017 788V748Q2017 501 1984.5 347.0Q1952 193 1870.5 111.0Q1789 29 1644.0 -1.5Q1499 -32 1274 -32ZM871 134H1274Q1417 134 1515.0 144.0Q1613 154 1674.5 187.0Q1736 220 1768.5 287.0Q1801 354 1813.0 466.0Q1825 578 1825 748V788Q1825 964 1813.0 1078.0Q1801 1192 1768.5 1258.0Q1736 1324 1674.5 1354.5Q1613 1385 1515.0 1393.5Q1417 1402 1274 1402H871Q728 1402 630.0 1393.5Q532 1385 470.5 1354.5Q409 1324 376.5 1258.0Q344 1192 332.0 1078.0Q320 964 320 788V748Q320 578 332.0 466.0Q344 354 376.5 287.0Q409 220 470.5 187.0Q532 154 630.0 144.0Q728 134 871 134Z" transform="translate(10710.6 0)"/></g></g><path d="M 30 30 L 730 30 L 730 1030 L 380.0 1180 L 30 1030 Z" fill="none" stroke="#FFFFFF" stroke-width="7"/></g></svg>