<svg xmlns="http://www.w3.org/2000/svg" width="1000" height="1000" viewBox="0 0 1000 1000"><title>N5</title><rect width="1000" height="1000" fill="#04070B"/><circle cx="500.0" cy="500.0" r="3.40" fill="#FFFFFF" opacity="1"/><circle cx="480.8" cy="517.6" r="3.44" fill="#FFFFFF" opacity="1"/><circle cx="503.2" cy="463.4" r="3.48" fill="#FFFFFF" opacity="1"/><circle cx="527.4" cy="535.7" r="3.52" fill="#FFFFFF" opacity="1"/><circle cx="448.8" cy="490.9" r="3.56" fill="#FFFFFF" opacity="1"/><circle cx="549.1" cy="468.8" r="3.60" fill="#FFFFFF" opacity="1"/><circle cx="483.5" cy="561.5" r="3.64" fill="#FFFFFF" opacity="1"/><circle cx="468.3" cy="439.0" r="3.68" fill="#FFFFFF" opacity="1"/><circle cx="569.1" cy="525.2" r="3.72" fill="#FFFFFF" opacity="1"/><circle cx="427.9" cy="529.8" r="3.76" fill="#FFFFFF" opacity="1"/><circle cx="534.8" cy="425.5" r="3.80" fill="#FFFFFF" opacity="1"/><circle cx="525.8" cy="582.3" r="3.84" fill="#FFFFFF" opacity="1"/><circle cx="422.1" cy="454.8" r="3.88" fill="#FFFFFF" opacity="1"/><circle cx="591.6" cy="479.9" r="3.92" fill="#FFFFFF" opacity="1"/><circle cx="444.0" cy="579.6" r="3.96" fill="#FFFFFF" opacity="1"/><circle cx="487.1" cy="400.1" r="4.00" fill="#FFFFFF" opacity="1"/><circle cx="579.5" cy="567.0" r="4.04" fill="#FFFFFF" opacity="1"/><circle cx="392.9" cy="504.4" r="4.08" fill="#FFFFFF" opacity="1"/><circle cx="578.2" cy="422.2" r="4.12" fill="#FFFFFF" opacity="1"/><circle cx="494.8" cy="613.2" r="4.16" fill="#FFFFFF" opacity="1"/><circle cx="425.5" cy="410.7" r="4.20" fill="#FFFFFF" opacity="1"/><circle cx="618.1" cy="515.9" r="4.24" fill="#FFFFFF" opacity="1"/><circle cx="399.9" cy="569.6" r="4.28" fill="#FFFFFF" opacity="1"/><circle cx="527.4" cy="378.3" r="4.32" fill="#FFFFFF" opacity="1"/><circle cx="563.3" cy="610.5" r="4.36" fill="#FFFFFF" opacity="1"/><circle cx="376.1" cy="460.5" r="4.40" fill="#FFFFFF" opacity="1"/><circle cx="620.3" cy="444.4" r="4.44" fill="#FFFFFF" opacity="1"/><circle cx="447.8" cy="624.6" r="4.48" fill="#FFFFFF" opacity="1"/><circle cx="453.4" cy="370.5" r="4.52" fill="#FFFFFF" opacity="1"/><circle cx="623.9" cy="565.1" r="4.56" fill="#FFFFFF" opacity="1"/><circle cx="362.3" cy="536.3" r="4.60" fill="#FFFFFF" opacity="1"/><circle cx="578.3" cy="378.2" r="4.64" fill="#FFFFFF" opacity="1"/><circle cx="524.9" cy="645.0" r="4.68" fill="#FFFFFF" opacity="1"/><circle cx="381.9" cy="408.5" r="4.72" fill="#FFFFFF" opacity="1"/><circle cx="651.1" cy="487.5" r="4.76" fill="#FFFFFF" opacity="1"/><circle cx="395.5" cy="612.9" r="4.80" fill="#FFFFFF" opacity="1"/><circle cx="500.8" cy="344.0" r="4.84" fill="#FFFFFF" opacity="1"/><circle cx="606.3" cy="617.1" r="4.88" fill="#FFFFFF" opacity="1"/><circle cx="340.4" cy="485.2" r="4.92" fill="#FFFFFF" opacity="1"/><circle cx="629.3" cy="401.8" r="4.96" fill="#FFFFFF" opacity="1"/><circle cx="470.6" cy="661.8" r="5.00" fill="#FFFFFF" opacity="1"/><circle cx="411.3" cy="359.1" r="5.04" fill="#FFFFFF" opacity="1"/><circle cx="662.5" cy="544.5" r="5.08" fill="#FFFFFF" opacity="1"/><circle cx="348.3" cy="577.8" r="5.12" fill="#FFFFFF" opacity="1"/><circle cx="560.0" cy="338.3" r="5.16" fill="#FFFFFF" opacity="1"/><circle cx="565.8" cy="661.5" r="5.20" fill="#FFFFFF" opacity="1"/><circle cx="340.6" cy="424.5" r="5.24" fill="#FFFFFF" opacity="1"/><circle cx="670.3" cy="447.5" r="5.28" fill="#FFFFFF" opacity="1"/><circle cx="408.9" cy="655.4" r="5.32" fill="#FFFFFF" opacity="1"/><circle cx="461.8" cy="322.1" r="5.36" fill="#FFFFFF" opacity="1"/><circle cx="649.9" cy="606.5" r="5.40" fill="#FFFFFF" opacity="1"/><circle cx="315.7" cy="523.0" r="5.44" fill="#FFFFFF" opacity="1"/><circle cx="621.5" cy="357.2" r="5.48" fill="#FFFFFF" opacity="1"/><circle cx="506.9" cy="689.2" r="5.52" fill="#FFFFFF" opacity="1"/><circle cx="365.9" cy="363.9" r="5.56" fill="#FFFFFF" opacity="1"/><circle cx="692.6" cy="509.8" r="5.60" fill="#FFFFFF" opacity="1"/><circle cx="350.0" cy="623.9" r="5.64" fill="#FFFFFF" opacity="1"/><circle cx="527.1" cy="305.6" r="5.68" fill="#FFFFFF" opacity="1"/><circle cx="612.3" cy="663.1" r="5.72" fill="#FFFFFF" opacity="1"/><circle cx="305.4" cy="455.2" r="5.76" fill="#FFFFFF" opacity="1"/><circle cx="675.2" cy="400.7" r="5.80" fill="#FFFFFF" opacity="1"/><circle cx="437.3" cy="693.2" r="5.84" fill="#FFFFFF" opacity="1"/><circle cx="415.0" cy="313.7" r="5.88" fill="#FFFFFF" opacity="1"/><circle cx="690.0" cy="580.6" r="5.92" fill="#FFFFFF" opacity="1"/><circle cx="303.9" cy="569.4" r="5.96" fill="#FFFFFF" opacity="1"/><circle cx="598.4" cy="314.9" r="6.00" fill="#FFFFFF" opacity="1"/><circle cx="552.8" cy="704.5" r="6.04" fill="#FFFFFF" opacity="1"/><circle cx="321.6" cy="384.0" r="6.08" fill="#FFFFFF" opacity="1"/><circle cx="711.5" cy="464.7" r="6.12" fill="#FFFFFF" opacity="1"/><circle cx="366.9" cy="670.1" r="6.16" fill="#FFFFFF" opacity="1"/><circle cx="483.1" cy="283.1" r="6.20" fill="#FFFFFF" opacity="1"/><circle cx="660.1" cy="649.6" r="6.24" fill="#FFFFFF" opacity="1"/><circle cx="279.4" cy="497.8" r="6.28" fill="#FFFFFF" opacity="1"/><circle cx="665.3" cy="351.5" r="6.32" fill="#FFFFFF" opacity="1"/><circle cx="478.3" cy="722.6" r="6.36" fill="#FFFFFF" opacity="1"/><circle cx="364.7" cy="320.0" r="6.40" fill="#FFFFFF" opacity="1"/><circle cx="722.8" cy="541.7" r="6.44" fill="#FFFFFF" opacity="1"/><circle cx="306.3" cy="620.6" r="6.48" fill="#FFFFFF" opacity="1"/><circle cx="561.8" cy="278.8" r="6.52" fill="#FFFFFF" opacity="1"/><circle cx="604.5" cy="706.1" r="6.56" fill="#FFFFFF" opacity="1"/><circle cx="282.3" cy="418.1" r="6.60" fill="#FFFFFF" opacity="1"/><circle cx="717.2" cy="412.8" r="6.64" fill="#FFFFFF" opacity="1"/><circle cx="398.1" cy="712.3" r="6.68" fill="#FFFFFF" opacity="1"/><circle cx="431.3" cy="273.3" r="6.72" fill="#FFFFFF" opacity="1"/><circle cx="705.0" cy="621.5" r="6.76" fill="#FFFFFF" opacity="1"/><circle cx="265.4" cy="549.2" r="6.80" fill="#FFFFFF" opacity="1"/><circle cx="640.6" cy="304.1" r="6.84" fill="#FFFFFF" opacity="1"/><circle cx="528.8" cy="740.8" r="6.88" fill="#FFFFFF" opacity="1"/><circle cx="315.0" cy="341.0" r="6.92" fill="#FFFFFF" opacity="1"/><circle cx="745.2" cy="492.3" r="6.96" fill="#FFFFFF" opacity="1"/><circle cx="323.5" cy="672.3" r="7.00" fill="#FFFFFF" opacity="1"/><circle cx="513.9" cy="252.4" r="7.04" fill="#FFFFFF" opacity="1"/><circle cx="657.9" cy="693.0" r="7.08" fill="#FFFFFF" opacity="1"/><circle cx="251.8" cy="464.1" r="7.12" fill="#FFFFFF" opacity="1"/><circle cx="708.3" cy="358.1" r="7.16" fill="#FFFFFF" opacity="1"/><circle cx="442.0" cy="746.7" r="7.20" fill="#FFFFFF" opacity="1"/><circle cx="375.5" cy="277.7" r="7.24" fill="#FFFFFF" opacity="1"/><circle cx="743.2" cy="580.2" r="7.28" fill="#FFFFFF" opacity="1"/><circle cx="265.3" cy="605.7" r="7.32" fill="#FFFFFF" opacity="1"/><circle cx="602.2" cy="262.3" r="7.36" fill="#FFFFFF" opacity="1"/><circle cx="585.6" cy="745.5" r="7.40" fill="#FFFFFF" opacity="1"/><circle cx="269.9" cy="376.2" r="7.44" fill="#FFFFFF" opacity="1"/><circle cx="754.6" cy="435.5" r="7.48" fill="#FFFFFF" opacity="1"/><circle cx="355.1" cy="720.5" r="7.52" fill="#FFFFFF" opacity="1"/><circle cx="457.6" cy="238.3" r="7.56" fill="#FFFFFF" opacity="1"/><circle cx="709.0" cy="665.2" r="7.60" fill="#FFFFFF" opacity="1"/><circle cx="233.0" cy="519.5" r="7.64" fill="#FFFFFF" opacity="1"/><circle cx="684.6" cy="304.4" r="7.68" fill="#FFFFFF" opacity="1"/><circle cx="496.0" cy="770.2" r="7.72" fill="#FFFFFF" opacity="1"/><circle cx="319.6" cy="297.2" r="7.76" fill="#FFFFFF" opacity="1"/><circle cx="771.3" cy="527.8" r="7.80" fill="#FFFFFF" opacity="1"/><circle cx="280.2" cy="663.5" r="7.84" fill="#FFFFFF" opacity="1"/><circle cx="551.9" cy="229.8" r="7.88" fill="#FFFFFF" opacity="1"/><circle cx="644.9" cy="735.3" r="7.92" fill="#FFFFFF" opacity="1"/><circle cx="233.0" cy="424.0" r="7.96" fill="#FFFFFF" opacity="1"/><circle cx="749.3" cy="375.1" r="8.00" fill="#FFFFFF" opacity="1"/><circle cx="400.1" cy="761.6" r="8.04" fill="#FFFFFF" opacity="1"/><circle cx="396.5" cy="238.5" r="8.08" fill="#FFFFFF" opacity="1"/><circle cx="754.0" cy="623.4" r="8.12" fill="#FFFFFF" opacity="1"/><circle cx="228.2" cy="580.9" r="8.16" fill="#FFFFFF" opacity="1"/><circle cx="646.4" cy="255.7" r="8.20" fill="#FFFFFF" opacity="1"/><circle cx="557.3" cy="780.2" r="8.24" fill="#FFFFFF" opacity="1"/><circle cx="267.5" cy="331.4" r="8.28" fill="#FFFFFF" opacity="1"/><circle cx="786.5" cy="467.1" r="8.32" fill="#FFFFFF" opacity="1"/><circle cx="310.2" cy="718.6" r="8.36" fill="#FFFFFF" opacity="1"/><circle cx="492.2" cy="209.4" r="8.40" fill="#FFFFFF" opacity="1"/><circle cx="702.8" cy="709.9" r="8.44" fill="#FFFFFF" opacity="1"/><circle cx="207.5" cy="482.2" r="8.48" fill="#FFFFFF" opacity="1"/><circle cx="728.6" cy="314.9" r="8.52" fill="#FFFFFF" opacity="1"/><circle cx="456.3" cy="792.1" r="8.56" fill="#FFFFFF" opacity="1"/><circle cx="334.3" cy="254.2" r="8.60" fill="#FFFFFF" opacity="1"/><circle cx="789.3" cy="569.6" r="8.64" fill="#FFFFFF" opacity="1"/><circle cx="238.7" cy="644.7" r="8.68" fill="#FFFFFF" opacity="1"/><circle cx="595.3" cy="215.7" r="8.72" fill="#FFFFFF" opacity="1"/><circle cx="622.2" cy="775.0" r="8.76" fill="#FFFFFF" opacity="1"/><circle cx="223.1" cy="379.3" r="8.80" fill="#FFFFFF" opacity="1"/><circle cx="786.8" cy="401.6" r="8.84" fill="#FFFFFF" opacity="1"/><circle cx="354.5" cy="767.3" r="8.88" fill="#FFFFFF" opacity="1"/><circle cx="426.5" cy="203.5" r="8.92" fill="#FFFFFF" opacity="1"/><circle cx="755.4" cy="669.5" r="8.96" fill="#FFFFFF" opacity="1"/><circle cx="196.1" cy="547.7" r="9.00" fill="#FFFFFF" opacity="1"/><circle cx="692.6" cy="258.7" r="9.04" fill="#FFFFFF" opacity="1"/><circle cx="521.1" cy="809.1" r="9.08" fill="#FFFFFF" opacity="1"/><circle cx="274.9" cy="285.5" r="9.12" fill="#FFFFFF" opacity="1"/><circle cx="811.9" cy="506.1" r="9.16" fill="#FFFFFF" opacity="1"/><circle cx="265.1" cy="706.9" r="9.20" fill="#FFFFFF" opacity="1"/><circle cx="533.6" cy="187.6" r="9.24" fill="#FFFFFF" opacity="1"/><circle cx="686.9" cy="753.9" r="9.28" fill="#FFFFFF" opacity="1"/><circle cx="189.7" cy="438.8" r="9.32" fill="#FFFFFF" opacity="1"/><circle cx="771.1" cy="334.9" r="9.36" fill="#FFFFFF" opacity="1"/><circle cx="411.3" cy="805.8" r="9.40" fill="#FFFFFF" opacity="1"/><circle cx="358.3" cy="213.6" r="9.44" fill="#FFFFFF" opacity="1"/><circle cx="798.9" cy="615.8" r="9.48" fill="#FFFFFF" opacity="1"/><circle cx="200.4" cy="616.9" r="9.52" fill="#FFFFFF" opacity="1"/><circle cx="642.4" cy="210.5" r="9.56" fill="#FFFFFF" opacity="1"/><circle cx="590.8" cy="810.7" r="9.60" fill="#FFFFFF" opacity="1"/><circle cx="222.3" cy="331.7" r="9.64" fill="#FFFFFF" opacity="1"/><circle cx="819.5" cy="436.3" r="9.68" fill="#FFFFFF" opacity="1"/><circle cx="306.9" cy="763.6" r="9.72" fill="#FFFFFF" opacity="1"/><circle cx="464.2" cy="174.1" r="9.76" fill="#FFFFFF" opacity="1"/><circle cx="747.3" cy="716.8" r="9.80" fill="#FFFFFF" opacity="1"/><circle cx="170.2" cy="507.2" r="9.84" fill="#FFFFFF" opacity="1"/><circle cx="739.1" cy="271.2" r="9.88" fill="#FFFFFF" opacity="1"/><circle cx="478.2" cy="831.2" r="9.92" fill="#FFFFFF" opacity="1"/><circle cx="291.7" cy="240.2" r="9.96" fill="#FFFFFF" opacity="1"/><circle cx="830.1" cy="551.0" r="10.00" fill="#FFFFFF" opacity="1"/><circle cx="221.3" cy="685.9" r="10.04" fill="#FFFFFF" opacity="1"/><circle cx="580.1" cy="173.7" r="10.08" fill="#FFFFFF" opacity="1"/><circle cx="661.8" cy="795.6" r="10.12" fill="#FFFFFF" opacity="1"/><circle cx="180.1" cy="391.0" r="10.16" fill="#FFFFFF" opacity="1"/><circle cx="810.5" cy="363.8" r="10.20" fill="#FFFFFF" opacity="1"/><circle cx="362.6" cy="811.0" r="10.24" fill="#FFFFFF" opacity="1"/><circle cx="390.9" cy="176.9" r="10.28" fill="#FFFFFF" opacity="1"/><circle cx="799.6" cy="665.0" r="10.32" fill="#FFFFFF" opacity="1"/><circle cx="166.7" cy="580.9" r="10.36" fill="#FFFFFF" opacity="1"/><circle cx="691.6" cy="214.4" r="10.40" fill="#FFFFFF" opacity="1"/><circle cx="551.8" cy="841.0" r="10.44" fill="#FFFFFF" opacity="1"/><circle cx="230.7" cy="282.9" r="10.48" fill="#FFFFFF" opacity="1"/><circle cx="846.2" cy="478.1" r="10.52" fill="#FFFFFF" opacity="1"/><circle cx="258.8" cy="750.7" r="10.56" fill="#FFFFFF" opacity="1"/><circle cx="508.5" cy="151.3" r="10.60" fill="#FFFFFF" opacity="1"/><circle cx="729.9" cy="763.6" r="10.64" fill="#FFFFFF" opacity="1"/><circle cx="151.4" cy="460.8" r="10.68" fill="#FFFFFF" opacity="1"/><circle cx="784.3" cy="292.9" r="10.72" fill="#FFFFFF" opacity="1"/><circle cx="430.1" cy="845.7" r="10.76" fill="#FFFFFF" opacity="1"/><circle cx="317.5" cy="197.1" r="10.80" fill="#FFFFFF" opacity="1"/><circle cx="840.1" cy="600.4" r="10.84" fill="#FFFFFF" opacity="1"/><circle cx="180.6" cy="656.1" r="10.88" fill="#FFFFFF" opacity="1"/><circle cx="630.4" cy="168.2" r="10.92" fill="#FFFFFF" opacity="1"/><circle cx="628.3" cy="833.6" r="10.96" fill="#FFFFFF" opacity="1"/><circle cx="179.2" cy="340.2" r="11.00" fill="#FFFFFF" opacity="1"/><circle cx="845.4" cy="400.9" r="11.04" fill="#FFFFFF" opacity="1"/><circle cx="311.8" cy="807.2" r="11.08" fill="#FFFFFF" opacity="1"/><circle cx="431.1" cy="145.4" r="11.12" fill="#FFFFFF" opacity="1"/><circle cx="791.1" cy="715.4" r="11.16" fill="#FFFFFF" opacity="1"/><circle cx="138.9" cy="537.9" r="11.20" fill="#FFFFFF" opacity="1"/><circle cx="741.3" cy="227.5" r="11.24" fill="#FFFFFF" opacity="1"/><circle cx="506.2" cy="864.9" r="11.28" fill="#FFFFFF" opacity="1"/><circle cx="248.3" cy="234.5" r="11.32" fill="#FFFFFF" opacity="1"/><circle cx="865.9" cy="525.9" r="11.36" fill="#FFFFFF" opacity="1"/><circle cx="212.0" cy="728.6" r="11.40" fill="#FFFFFF" opacity="1"/><circle cx="558.0" cy="136.0" r="11.44" fill="#FFFFFF" opacity="1"/><circle cx="703.6" cy="808.4" r="11.48" fill="#FFFFFF" opacity="1"/><circle cx="140.7" cy="409.9" r="11.52" fill="#FFFFFF" opacity="1"/><circle cx="826.6" cy="323.3" r="11.56" fill="#FFFFFF" opacity="1"/><circle cx="378.2" cy="851.8" r="11.60" fill="#FFFFFF" opacity="1"/><circle cx="351.8" cy="157.5" r="11.64" fill="#FFFFFF" opacity="1"/><circle cx="841.4" cy="652.8" r="11.68" fill="#FFFFFF" opacity="1"/><circle cx="144.2" cy="618.3" r="11.72" fill="#FFFFFF" opacity="1"/><circle cx="682.9" cy="171.6" r="11.76" fill="#FFFFFF" opacity="1"/><circle cx="587.1" cy="866.6" r="11.80" fill="#FFFFFF" opacity="1"/><circle cx="187.4" cy="288.1" r="11.84" fill="#FFFFFF" opacity="1"/><circle cx="874.5" cy="445.0" r="11.88" fill="#FFFFFF" opacity="1"/><circle cx="260.4" cy="794.3" r="11.92" fill="#FFFFFF" opacity="1"/><circle cx="477.9" cy="120.3" r="11.96" fill="#FFFFFF" opacity="1"/><circle cx="773.5" cy="765.6" r="12.00" fill="#FFFFFF" opacity="1"/><circle cx="118.0" cy="488.8" r="12.04" fill="#FFFFFF" opacity="1"/><circle cx="789.9" cy="249.7" r="12.08" fill="#FFFFFF" opacity="1"/><circle cx="455.3" cy="881.3" r="12.12" fill="#FFFFFF" opacity="1"/><circle cx="274.9" cy="187.9" r="12.16" fill="#FFFFFF" opacity="1"/><circle cx="877.6" cy="578.3" r="12.20" fill="#FFFFFF" opacity="1"/><circle cx="167.9" cy="697.8" r="12.24" fill="#FFFFFF" opacity="1"/><circle cx="611.5" cy="129.0" r="12.28" fill="#FFFFFF" opacity="1"/><circle cx="668.8" cy="849.7" r="12.32" fill="#FFFFFF" opacity="1"/><circle cx="138.5" cy="355.9" r="12.36" fill="#FFFFFF" opacity="1"/><circle cx="864.7" cy="361.8" r="12.40" fill="#FFFFFF" opacity="1"/><circle cx="324.0" cy="849.0" r="12.44" fill="#FFFFFF" opacity="1"/><circle cx="393.8" cy="123.0" r="12.48" fill="#FFFFFF" opacity="1"/><circle cx="833.8" cy="706.7" r="12.52" fill="#FFFFFF" opacity="1"/><circle cx="113.4" cy="573.2" r="12.56" fill="#FFFFFF" opacity="1"/><circle cx="736.1" cy="184.2" r="12.60" fill="#FFFFFF" opacity="1"/><circle cx="539.3" cy="893.2" r="12.64" fill="#FFFFFF" opacity="1"/></svg>