<svg xmlns="http://www.w3.org/2000/svg" width="1000" height="1000" viewBox="0 0 1000 1000"><title>A7</title><rect width="1000" height="1000" fill="#04070B"/><path d="M 555.94 500.00 C 556.04 501.63 556.07 503.27 556.03 504.90 C 555.99 506.54 555.88 508.19 555.69 509.82 C 555.50 511.45 555.23 513.09 554.88 514.71 C 554.53 516.32 554.09 517.93 553.57 519.50 C 553.05 521.07 552.44 522.63 551.75 524.13 C 551.06 525.64 550.28 527.12 549.43 528.54 C 548.57 529.96 547.63 531.33 546.63 532.65 C 545.63 533.97 544.54 535.23 543.41 536.43 C 542.28 537.63 541.08 538.77 539.85 539.85 C 538.61 540.93 537.32 541.94 536.00 542.90 C 534.68 543.86 533.31 544.75 531.93 545.60 C 530.54 546.44 529.13 547.23 527.69 547.97 C 526.26 548.70 524.80 549.38 523.32 550.02 C 521.85 550.65 520.35 551.24 518.84 551.77 C 517.33 552.31 515.81 552.80 514.26 553.23 C 512.72 553.66 511.16 554.04 509.59 554.37 C 508.01 554.69 506.42 554.96 504.83 555.16 C 503.23 555.35 501.61 555.50 500.00 555.56 C 498.39 555.62 496.76 555.62 495.14 555.54 C 493.52 555.46 491.90 555.31 490.29 555.07 C 488.68 554.84 487.07 554.53 485.49 554.14 C 483.91 553.76 482.34 553.29 480.80 552.75 C 479.26 552.21 477.74 551.59 476.26 550.91 C 474.78 550.23 473.32 549.48 471.90 548.66 C 470.49 547.85 469.10 546.97 467.76 546.04 C 466.42 545.11 465.12 544.11 463.86 543.07 C 462.60 542.03 461.38 540.93 460.21 539.79 C 459.04 538.65 457.91 537.45 456.84 536.22 C 455.76 534.98 454.73 533.70 453.77 532.37 C 452.80 531.05 451.88 529.68 451.04 528.27 C 450.19 526.86 449.40 525.41 448.69 523.93 C 447.97 522.45 447.33 520.92 446.76 519.38 C 446.20 517.83 445.71 516.25 445.31 514.65 C 444.91 513.06 444.58 511.44 444.35 509.81 C 444.11 508.19 443.96 506.54 443.90 504.91 C 443.83 503.27 443.85 501.63 443.94 500.00 C 444.04 498.37 444.21 496.75 444.45 495.14 C 444.70 493.54 445.02 491.94 445.39 490.37 C 445.76 488.80 446.21 487.25 446.70 485.72 C 447.19 484.19 447.74 482.68 448.33 481.19 C 448.92 479.71 449.56 478.24 450.24 476.80 C 450.93 475.36 451.66 473.93 452.43 472.54 C 453.20 471.14 454.02 469.76 454.88 468.41 C 455.75 467.06 456.66 465.73 457.62 464.44 C 458.58 463.14 459.59 461.87 460.65 460.65 C 461.72 459.43 462.83 458.24 464.01 457.10 C 465.18 455.97 466.41 454.88 467.69 453.85 C 468.97 452.83 470.31 451.86 471.69 450.97 C 473.08 450.08 474.52 449.25 475.99 448.51 C 477.47 447.77 478.99 447.11 480.54 446.53 C 482.09 445.95 483.67 445.46 485.27 445.04 C 486.87 444.63 488.51 444.31 490.14 444.07 C 491.77 443.82 493.42 443.67 495.06 443.58 C 496.71 443.50 498.36 443.50 500.00 443.56 C 501.64 443.62 503.28 443.77 504.90 443.97 C 506.53 444.17 508.14 444.44 509.74 444.78 C 511.33 445.11 512.92 445.50 514.48 445.96 C 516.04 446.41 517.59 446.93 519.11 447.50 C 520.63 448.08 522.13 448.71 523.59 449.41 C 525.06 450.10 526.50 450.85 527.90 451.67 C 529.31 452.48 530.68 453.36 532.00 454.29 C 533.33 455.23 534.62 456.22 535.85 457.27 C 537.09 458.32 538.28 459.43 539.41 460.59 C 540.54 461.75 541.62 462.97 542.63 464.23 C 543.65 465.48 544.61 466.79 545.51 468.13 C 546.41 469.47 547.25 470.86 548.03 472.27 C 548.81 473.68 549.53 475.13 550.19 476.60 C 550.85 478.06 551.46 479.56 552.01 481.07 C 552.56 482.58 553.05 484.12 553.49 485.67 C 553.93 487.22 554.32 488.78 554.65 490.36 C 554.98 491.94 555.26 493.54 555.47 495.15 C 555.69 496.75 555.85 498.37 555.94 500.00 Z" fill="none" stroke="#FFFFFF" stroke-width="4.20"  opacity="1.00"/><path d="M 593.63 500.00 C 593.86 502.72 594.00 505.47 594.01 508.22 C 594.02 510.98 593.92 513.76 593.67 516.52 C 593.42 519.28 593.05 522.06 592.52 524.79 C 591.98 527.52 591.30 530.26 590.45 532.92 C 589.61 535.59 588.60 538.23 587.44 540.77 C 586.28 543.32 584.95 545.82 583.49 548.21 C 582.03 550.59 580.41 552.90 578.68 555.09 C 576.94 557.28 575.06 559.37 573.10 561.34 C 571.14 563.31 569.06 565.17 566.92 566.92 C 564.78 568.67 562.55 570.30 560.28 571.84 C 558.01 573.38 555.67 574.80 553.32 576.14 C 550.96 577.49 548.55 578.73 546.13 579.90 C 543.71 581.08 541.26 582.17 538.79 583.19 C 536.32 584.21 533.83 585.16 531.32 586.04 C 528.80 586.92 526.27 587.73 523.70 588.46 C 521.14 589.20 518.56 589.86 515.95 590.43 C 513.33 591.00 510.70 591.50 508.04 591.88 C 505.38 592.26 502.69 592.55 500.00 592.71 C 497.31 592.87 494.59 592.92 491.88 592.83 C 489.17 592.74 486.44 592.53 483.75 592.18 C 481.05 591.83 478.35 591.34 475.69 590.72 C 473.04 590.09 470.40 589.33 467.81 588.44 C 465.23 587.55 462.67 586.52 460.18 585.38 C 457.70 584.25 455.25 582.98 452.88 581.62 C 450.50 580.26 448.18 578.78 445.93 577.22 C 443.68 575.66 441.49 573.99 439.37 572.25 C 437.26 570.51 435.20 568.68 433.23 566.77 C 431.25 564.87 429.34 562.88 427.52 560.82 C 425.70 558.75 423.95 556.61 422.30 554.40 C 420.66 552.19 419.09 549.90 417.65 547.55 C 416.20 545.19 414.85 542.76 413.63 540.27 C 412.42 537.79 411.32 535.22 410.37 532.62 C 409.42 530.02 408.60 527.35 407.94 524.67 C 407.28 521.98 406.77 519.24 406.41 516.50 C 406.05 513.77 405.85 510.99 405.80 508.24 C 405.74 505.49 405.85 502.73 406.07 500.00 C 406.30 497.27 406.68 494.55 407.17 491.88 C 407.65 489.20 408.27 486.55 408.97 483.95 C 409.66 481.34 410.48 478.78 411.35 476.25 C 412.22 473.72 413.19 471.23 414.21 468.77 C 415.23 466.32 416.32 463.90 417.46 461.51 C 418.60 459.12 419.80 456.76 421.07 454.43 C 422.33 452.09 423.65 449.79 425.04 447.51 C 426.43 445.24 427.88 442.98 429.43 440.78 C 430.97 438.58 432.58 436.40 434.30 434.30 C 436.01 432.20 437.81 430.13 439.72 428.16 C 441.63 426.20 443.63 424.29 445.74 422.51 C 447.84 420.73 450.06 419.03 452.36 417.48 C 454.65 415.93 457.06 414.48 459.53 413.20 C 462.00 411.92 464.56 410.78 467.17 409.79 C 469.77 408.81 472.46 407.98 475.16 407.30 C 477.86 406.62 480.62 406.10 483.38 405.73 C 486.13 405.35 488.92 405.13 491.69 405.04 C 494.46 404.94 497.24 404.99 500.00 405.15 C 502.76 405.31 505.51 405.60 508.22 405.99 C 510.94 406.38 513.65 406.88 516.31 407.47 C 518.98 408.07 521.63 408.76 524.24 409.55 C 526.84 410.34 529.42 411.22 531.96 412.19 C 534.49 413.17 537.00 414.23 539.45 415.40 C 541.90 416.57 544.31 417.83 546.65 419.19 C 549.00 420.56 551.30 422.02 553.51 423.58 C 555.72 425.15 557.87 426.81 559.93 428.58 C 561.99 430.34 563.97 432.20 565.85 434.15 C 567.73 436.10 569.52 438.15 571.20 440.26 C 572.88 442.37 574.46 444.57 575.94 446.83 C 577.42 449.08 578.79 451.41 580.07 453.77 C 581.35 456.13 582.53 458.56 583.62 461.01 C 584.71 463.46 585.70 465.96 586.61 468.48 C 587.53 470.99 588.35 473.55 589.10 476.12 C 589.85 478.70 590.53 481.31 591.12 483.93 C 591.70 486.56 592.22 489.22 592.64 491.90 C 593.06 494.57 593.40 497.28 593.63 500.00 Z" fill="none" stroke="#FFFFFF" stroke-width="3.89"  opacity="0.96"/><path d="M 631.27 500.00 C 631.70 503.82 632.02 507.68 632.14 511.56 C 632.26 515.44 632.24 519.37 631.99 523.27 C 631.74 527.18 631.32 531.12 630.64 535.01 C 629.97 538.89 629.08 542.78 627.93 546.56 C 626.78 550.35 625.39 554.10 623.76 557.71 C 622.13 561.32 620.24 564.85 618.15 568.21 C 616.05 571.57 613.70 574.81 611.20 577.86 C 608.69 580.91 605.96 583.81 603.12 586.52 C 600.27 589.24 597.24 591.77 594.15 594.15 C 591.06 596.53 587.82 598.72 584.56 600.78 C 581.30 602.84 577.95 604.73 574.58 606.51 C 571.22 608.30 567.80 609.94 564.38 611.51 C 560.95 613.07 557.51 614.51 554.04 615.89 C 550.58 617.27 547.10 618.56 543.59 619.77 C 540.08 620.98 536.56 622.12 533.00 623.16 C 529.44 624.20 525.85 625.17 522.22 626.01 C 518.59 626.85 514.92 627.61 511.22 628.21 C 507.51 628.80 503.76 629.29 500.00 629.58 C 496.24 629.88 492.43 630.03 488.63 629.97 C 484.83 629.92 481.00 629.69 477.21 629.25 C 473.42 628.81 469.62 628.17 465.88 627.33 C 462.15 626.49 458.43 625.44 454.79 624.21 C 451.16 622.98 447.56 621.55 444.06 619.96 C 440.56 618.37 437.13 616.59 433.79 614.68 C 430.45 612.77 427.19 610.69 424.03 608.50 C 420.86 606.31 417.78 603.97 414.80 601.54 C 411.82 599.10 408.92 596.53 406.13 593.87 C 403.34 591.20 400.63 588.43 398.05 585.55 C 395.46 582.67 392.97 579.68 390.62 576.59 C 388.27 573.49 386.03 570.29 383.97 566.99 C 381.90 563.69 379.96 560.28 378.23 556.78 C 376.50 553.28 374.93 549.68 373.59 546.01 C 372.25 542.34 371.10 538.58 370.19 534.78 C 369.29 530.99 368.60 527.11 368.15 523.25 C 367.70 519.38 367.49 515.47 367.49 511.59 C 367.49 507.72 367.74 503.83 368.16 500.00 C 368.59 496.17 369.24 492.36 370.03 488.63 C 370.81 484.89 371.80 481.21 372.88 477.58 C 373.96 473.96 375.20 470.41 376.50 466.91 C 377.80 463.41 379.22 459.97 380.69 456.57 C 382.15 453.17 383.70 449.83 385.30 446.52 C 386.90 443.20 388.56 439.92 390.29 436.66 C 392.01 433.39 393.79 430.16 395.67 426.95 C 397.55 423.74 399.49 420.54 401.56 417.40 C 403.63 414.26 405.79 411.13 408.10 408.10 C 410.42 405.07 412.84 402.07 415.44 399.22 C 418.03 396.37 420.77 393.58 423.67 390.99 C 426.57 388.39 429.63 385.90 432.82 383.64 C 436.02 381.39 439.38 379.29 442.85 377.43 C 446.31 375.58 449.93 373.93 453.60 372.52 C 457.28 371.12 461.08 369.95 464.90 369.01 C 468.72 368.07 472.63 367.38 476.53 366.90 C 480.43 366.41 484.37 366.17 488.29 366.10 C 492.20 366.03 496.12 366.18 500.00 366.47 C 503.88 366.77 507.74 367.25 511.56 367.86 C 515.38 368.48 519.16 369.25 522.90 370.13 C 526.64 371.02 530.33 372.04 533.98 373.18 C 537.63 374.32 541.23 375.58 544.78 376.97 C 548.33 378.35 551.83 379.86 555.26 381.50 C 558.69 383.14 562.07 384.91 565.35 386.82 C 568.63 388.73 571.85 390.78 574.94 392.97 C 578.04 395.17 581.05 397.51 583.93 399.98 C 586.80 402.46 589.57 405.08 592.18 407.82 C 594.79 410.56 597.27 413.45 599.60 416.42 C 601.93 419.40 604.11 422.50 606.15 425.67 C 608.19 428.84 610.07 432.12 611.83 435.44 C 613.58 438.76 615.19 442.15 616.69 445.59 C 618.19 449.02 619.56 452.50 620.83 456.02 C 622.11 459.54 623.27 463.09 624.34 466.68 C 625.41 470.27 626.39 473.90 627.26 477.56 C 628.14 481.22 628.93 484.92 629.60 488.66 C 630.27 492.40 630.85 496.18 631.27 500.00 Z" fill="none" stroke="#FFFFFF" stroke-width="3.58"  opacity="0.92"/><path d="M 668.88 500.00 C 669.55 504.91 670.12 509.89 670.41 514.91 C 670.70 519.92 670.84 525.02 670.65 530.09 C 670.46 535.16 670.04 540.30 669.27 545.35 C 668.49 550.41 667.43 555.49 666.00 560.42 C 664.58 565.35 662.81 570.25 660.71 574.94 C 658.60 579.63 656.14 584.22 653.38 588.56 C 650.63 592.89 647.52 597.06 644.20 600.97 C 640.88 604.87 637.23 608.55 633.45 611.98 C 629.68 615.41 625.64 618.58 621.54 621.54 C 617.43 624.49 613.14 627.19 608.84 629.71 C 604.54 632.24 600.13 634.53 595.73 636.71 C 591.32 638.89 586.87 640.87 582.43 642.77 C 577.99 644.67 573.53 646.43 569.07 648.13 C 564.62 649.83 560.16 651.43 555.67 652.96 C 551.19 654.49 546.70 655.95 542.15 657.31 C 537.61 658.67 533.04 659.96 528.41 661.10 C 523.77 662.24 519.10 663.30 514.36 664.15 C 509.63 664.99 504.83 665.72 500.00 666.19 C 495.17 666.66 490.28 666.96 485.39 666.97 C 480.51 666.99 475.57 666.77 470.68 666.28 C 465.79 665.78 460.89 665.01 456.06 663.98 C 451.24 662.94 446.44 661.62 441.74 660.06 C 437.05 658.51 432.41 656.67 427.89 654.63 C 423.38 652.59 418.95 650.30 414.64 647.84 C 410.34 645.38 406.14 642.70 402.05 639.88 C 397.97 637.06 394.00 634.05 390.14 630.92 C 386.29 627.79 382.54 624.50 378.92 621.08 C 375.30 617.66 371.78 614.11 368.41 610.41 C 365.05 606.72 361.79 602.89 358.72 598.93 C 355.65 594.96 352.71 590.85 350.00 586.60 C 347.29 582.36 344.74 577.96 342.48 573.45 C 340.22 568.94 338.16 564.28 336.42 559.54 C 334.69 554.79 333.21 549.91 332.06 545.00 C 330.92 540.08 330.08 535.06 329.57 530.05 C 329.06 525.05 328.88 519.97 328.98 514.96 C 329.09 509.95 329.54 504.93 330.21 500.00 C 330.89 495.07 331.88 490.18 333.03 485.39 C 334.18 480.61 335.61 475.90 337.12 471.28 C 338.64 466.67 340.37 462.15 342.14 457.70 C 343.91 453.25 345.82 448.90 347.76 444.59 C 349.70 440.27 351.72 436.04 353.77 431.81 C 355.83 427.58 357.92 423.41 360.09 419.22 C 362.26 415.04 364.46 410.87 366.78 406.72 C 369.10 402.56 371.47 398.40 374.02 394.29 C 376.57 390.18 379.21 386.06 382.06 382.06 C 384.92 378.06 387.92 374.08 391.15 370.28 C 394.39 366.49 397.82 362.76 401.47 359.29 C 405.13 355.82 409.02 352.49 413.09 349.48 C 417.17 346.46 421.49 343.65 425.95 341.20 C 430.41 338.74 435.08 336.55 439.84 334.72 C 444.60 332.88 449.54 331.37 454.50 330.18 C 459.46 328.99 464.54 328.15 469.60 327.58 C 474.66 327.01 479.78 326.78 484.84 326.77 C 489.91 326.76 494.99 327.05 500.00 327.52 C 505.01 328.00 509.99 328.72 514.91 329.60 C 519.82 330.47 524.69 331.54 529.49 332.75 C 534.29 333.96 539.04 335.34 543.72 336.85 C 548.40 338.36 553.02 340.01 557.57 341.82 C 562.12 343.63 566.62 345.57 571.02 347.69 C 575.42 349.82 579.76 352.09 583.98 354.55 C 588.19 357.01 592.33 359.64 596.31 362.46 C 600.28 365.28 604.15 368.30 607.84 371.49 C 611.52 374.68 615.06 378.07 618.39 381.61 C 621.73 385.15 624.89 388.88 627.85 392.72 C 630.81 396.57 633.56 400.58 636.14 404.67 C 638.71 408.77 641.08 412.99 643.29 417.27 C 645.51 421.54 647.52 425.92 649.42 430.33 C 651.31 434.73 653.04 439.20 654.67 443.71 C 656.30 448.21 657.79 452.76 659.19 457.34 C 660.60 461.93 661.90 466.56 663.09 471.24 C 664.29 475.93 665.40 480.65 666.36 485.45 C 667.33 490.24 668.20 495.09 668.88 500.00 Z" fill="none" stroke="#FFFFFF" stroke-width="3.27" stroke-dasharray="26.7 16.0" opacity="0.88"/><path d="M 706.44 500.00 C 707.43 506.00 708.30 512.11 708.83 518.27 C 709.36 524.43 709.71 530.70 709.64 536.96 C 709.56 543.23 709.21 549.58 708.38 555.84 C 707.56 562.09 706.36 568.39 704.67 574.50 C 702.99 580.60 700.86 586.67 698.28 592.46 C 695.70 598.25 692.64 603.91 689.21 609.24 C 685.77 614.56 681.85 619.66 677.67 624.41 C 673.49 629.15 668.88 633.60 664.11 637.71 C 659.35 641.82 654.24 645.59 649.08 649.08 C 643.91 652.57 638.51 655.71 633.12 658.65 C 627.74 661.59 622.22 664.22 616.75 666.73 C 611.27 669.24 605.76 671.50 600.28 673.70 C 594.81 675.89 589.35 677.92 583.89 679.91 C 578.44 681.90 573.02 683.79 567.56 685.62 C 562.10 687.46 556.67 689.24 551.16 690.92 C 545.65 692.60 540.12 694.24 534.51 695.70 C 528.89 697.16 523.22 698.55 517.47 699.69 C 511.72 700.83 505.88 701.84 500.00 702.53 C 494.12 703.22 488.14 703.70 482.17 703.83 C 476.19 703.95 470.15 703.79 464.16 703.26 C 458.17 702.74 452.15 701.87 446.23 700.66 C 440.32 699.45 434.42 697.88 428.66 696.00 C 422.90 694.13 417.22 691.89 411.68 689.41 C 406.14 686.92 400.72 684.11 395.44 681.10 C 390.16 678.10 385.02 674.81 380.01 671.36 C 375.01 667.91 370.14 664.23 365.40 660.41 C 360.67 656.58 356.06 652.57 351.60 648.40 C 347.13 644.24 342.79 639.91 338.62 635.41 C 334.46 630.91 330.41 626.26 326.60 621.42 C 322.78 616.58 319.11 611.57 315.74 606.38 C 312.37 601.19 309.19 595.82 306.38 590.29 C 303.57 584.76 301.01 579.03 298.87 573.20 C 296.73 567.38 294.92 561.37 293.56 555.32 C 292.19 549.27 291.22 543.07 290.67 536.91 C 290.12 530.75 290.01 524.50 290.27 518.35 C 290.53 512.20 291.23 506.03 292.22 500.00 C 293.20 493.97 294.60 488.00 296.19 482.17 C 297.77 476.34 299.69 470.63 301.71 465.04 C 303.72 459.45 305.99 454.00 308.28 448.63 C 310.56 443.26 313.00 438.03 315.43 432.82 C 317.87 427.62 320.36 422.52 322.87 417.40 C 325.38 412.29 327.90 407.22 330.48 402.13 C 333.06 397.03 335.64 391.93 338.36 386.82 C 341.08 381.71 343.83 376.56 346.80 371.45 C 349.77 366.34 352.83 361.20 356.18 356.18 C 359.52 351.16 363.04 346.13 366.87 341.34 C 370.70 336.54 374.77 331.81 379.16 327.42 C 383.54 323.03 388.23 318.79 393.17 314.97 C 398.12 311.15 403.38 307.59 408.83 304.49 C 414.29 301.40 420.04 298.66 425.89 296.38 C 431.74 294.10 437.83 292.25 443.95 290.81 C 450.06 289.38 456.34 288.40 462.58 287.77 C 468.82 287.14 475.13 286.96 481.37 287.05 C 487.61 287.14 493.85 287.62 500.00 288.31 C 506.15 289.00 512.25 290.01 518.27 291.18 C 524.28 292.35 530.23 293.77 536.09 295.34 C 541.95 296.90 547.73 298.65 553.44 300.56 C 559.15 302.46 564.78 304.52 570.33 306.76 C 575.88 309.00 581.37 311.39 586.74 313.99 C 592.11 316.60 597.41 319.37 602.55 322.38 C 607.69 325.39 612.75 328.60 617.60 332.05 C 622.45 335.50 627.18 339.19 631.66 343.10 C 636.14 347.00 640.45 351.16 644.49 355.51 C 648.54 359.85 652.37 364.43 655.93 369.16 C 659.50 373.88 662.82 378.81 665.91 383.83 C 669.00 388.85 671.82 394.04 674.47 399.27 C 677.12 404.50 679.52 409.85 681.79 415.23 C 684.07 420.61 686.13 426.05 688.11 431.53 C 690.09 437.01 691.92 442.53 693.66 448.11 C 695.41 453.68 697.06 459.29 698.60 464.98 C 700.14 470.67 701.61 476.41 702.91 482.25 C 704.22 488.08 705.45 494.00 706.44 500.00 Z" fill="none" stroke="#FFFFFF" stroke-width="2.96" stroke-dasharray="22.9 19.3" opacity="0.84"/><path d="M 743.96 500.00 C 745.32 507.10 746.57 514.33 747.40 521.64 C 748.23 528.96 748.86 536.43 748.96 543.90 C 749.06 551.37 748.83 558.97 747.99 566.45 C 747.16 573.93 745.86 581.48 743.94 588.79 C 742.02 596.09 739.54 603.36 736.49 610.28 C 733.43 617.19 729.76 623.94 725.61 630.26 C 721.47 636.57 716.71 642.61 711.62 648.18 C 706.54 653.76 700.91 658.94 695.10 663.71 C 689.29 668.47 683.05 672.79 676.77 676.77 C 670.49 680.75 663.92 684.28 657.40 687.59 C 650.88 690.89 644.22 693.79 637.64 696.58 C 631.07 699.36 624.47 701.84 617.94 704.29 C 611.42 706.73 604.94 708.98 598.49 711.22 C 592.05 713.46 585.67 715.62 579.25 717.75 C 572.84 719.87 566.47 721.98 560.02 723.99 C 553.56 726.00 547.10 728.00 540.52 729.81 C 533.94 731.62 527.30 733.38 520.55 734.85 C 513.79 736.31 506.93 737.65 500.00 738.60 C 493.07 739.55 486.02 740.26 478.96 740.53 C 471.90 740.80 464.74 740.74 457.64 740.22 C 450.55 739.69 443.41 738.76 436.39 737.39 C 429.38 736.03 422.38 734.21 415.55 732.02 C 408.72 729.84 401.98 727.21 395.42 724.28 C 388.85 721.36 382.43 718.03 376.18 714.47 C 369.92 710.91 363.83 707.02 357.90 702.94 C 351.97 698.86 346.20 694.51 340.57 690.00 C 334.95 685.48 329.47 680.75 324.16 675.84 C 318.84 670.93 313.65 665.84 308.67 660.54 C 303.69 655.25 298.83 649.77 294.25 644.06 C 289.68 638.36 285.25 632.46 281.20 626.33 C 277.14 620.20 273.31 613.84 269.93 607.28 C 266.55 600.73 263.48 593.94 260.93 587.01 C 258.39 580.09 256.25 572.93 254.67 565.74 C 253.09 558.54 252.00 551.16 251.45 543.83 C 250.90 536.50 250.90 529.06 251.35 521.75 C 251.81 514.45 252.83 507.13 254.18 500.00 C 255.54 492.87 257.41 485.82 259.49 478.96 C 261.56 472.10 264.06 465.40 266.63 458.85 C 269.20 452.30 272.06 445.95 274.90 439.69 C 277.75 433.42 280.75 427.34 283.70 421.27 C 286.65 415.21 289.64 409.27 292.60 403.29 C 295.55 397.30 298.48 391.37 301.45 385.37 C 304.42 379.36 307.35 373.34 310.42 367.26 C 313.50 361.18 316.57 355.02 319.91 348.88 C 323.25 342.75 326.67 336.53 330.45 330.45 C 334.23 324.36 338.20 318.24 342.58 312.39 C 346.96 306.55 351.64 300.75 356.72 295.37 C 361.80 290.00 367.26 284.80 373.06 280.13 C 378.85 275.45 385.06 271.10 391.50 267.33 C 397.95 263.56 404.78 260.24 411.74 257.50 C 418.70 254.77 425.96 252.57 433.25 250.90 C 440.54 249.23 448.04 248.13 455.47 247.47 C 462.91 246.81 470.44 246.71 477.86 246.93 C 485.28 247.16 492.70 247.87 500.00 248.82 C 507.30 249.77 514.53 251.11 521.64 252.62 C 528.76 254.13 535.77 255.93 542.69 257.88 C 549.61 259.83 556.43 261.98 563.16 264.30 C 569.88 266.62 576.52 269.10 583.06 271.78 C 589.61 274.47 596.07 277.31 602.40 280.39 C 608.74 283.48 614.99 286.75 621.06 290.31 C 627.13 293.87 633.10 297.65 638.83 301.74 C 644.55 305.82 650.12 310.18 655.40 314.81 C 660.67 319.44 665.74 324.36 670.48 329.52 C 675.23 334.67 679.70 340.12 683.86 345.72 C 688.02 351.32 691.87 357.19 695.46 363.14 C 699.04 369.09 702.30 375.24 705.36 381.44 C 708.42 387.63 711.18 393.95 713.82 400.30 C 716.45 406.64 718.85 413.05 721.17 419.50 C 723.50 425.95 725.66 432.43 727.76 438.97 C 729.86 445.52 731.87 452.09 733.79 458.78 C 735.70 465.46 737.57 472.20 739.27 479.07 C 740.96 485.94 742.60 492.90 743.96 500.00 Z" fill="none" stroke="#FFFFFF" stroke-width="2.64" stroke-dasharray="19.1 22.7" opacity="0.81"/><path d="M 781.44 500.00 C 783.22 508.19 784.92 516.55 786.12 525.03 C 787.31 533.51 788.29 542.20 788.62 550.89 C 788.95 559.59 788.90 568.46 788.10 577.20 C 787.29 585.93 785.94 594.77 783.81 603.30 C 781.68 611.83 778.85 620.33 775.32 628.38 C 771.78 636.44 767.48 644.30 762.60 651.61 C 757.72 658.93 752.08 665.89 746.05 672.29 C 740.02 678.68 733.31 684.59 726.41 689.98 C 719.50 695.37 712.08 700.20 704.62 704.62 C 697.17 709.05 689.38 712.91 681.68 716.52 C 673.98 720.12 666.13 723.25 658.42 726.25 C 650.71 729.25 643.00 731.90 635.41 734.54 C 627.82 737.17 620.32 739.60 612.88 742.07 C 605.44 744.54 598.11 746.93 590.75 749.34 C 583.39 751.74 576.12 754.16 568.73 756.51 C 561.35 758.86 553.97 761.25 546.45 763.43 C 538.93 765.61 531.33 767.78 523.59 769.61 C 515.85 771.44 507.97 773.15 500.00 774.40 C 492.03 775.65 483.90 776.64 475.76 777.10 C 467.61 777.55 459.34 777.62 451.13 777.13 C 442.93 776.64 434.66 775.66 426.54 774.16 C 418.42 772.66 410.31 770.61 402.41 768.13 C 394.50 765.65 386.70 762.63 379.10 759.26 C 371.51 755.90 364.08 752.05 356.85 747.94 C 349.62 743.83 342.58 739.33 335.72 734.62 C 328.85 729.91 322.18 724.89 315.66 719.69 C 309.14 714.48 302.79 709.04 296.61 703.39 C 290.42 697.75 284.38 691.90 278.56 685.81 C 272.74 679.72 267.06 673.43 261.69 666.87 C 256.33 660.30 251.13 653.51 246.37 646.44 C 241.60 639.37 237.09 632.02 233.13 624.45 C 229.17 616.87 225.56 608.99 222.61 600.96 C 219.65 592.93 217.18 584.62 215.40 576.26 C 213.62 567.90 212.44 559.31 211.91 550.80 C 211.38 542.28 211.53 533.64 212.23 525.18 C 212.93 516.71 214.32 508.24 216.10 500.00 C 217.89 491.76 220.30 483.64 222.93 475.76 C 225.56 467.88 228.70 460.20 231.88 452.72 C 235.06 445.24 238.58 438.01 242.03 430.88 C 245.47 423.75 249.08 416.84 252.57 409.94 C 256.05 403.04 259.54 396.29 262.95 389.46 C 266.36 382.63 269.67 375.85 273.01 368.95 C 276.34 362.04 279.57 355.09 282.96 348.03 C 286.35 340.97 289.69 333.78 293.34 326.59 C 296.99 319.40 300.71 312.06 304.87 304.87 C 309.03 297.68 313.41 290.40 318.29 283.45 C 323.17 276.50 328.42 269.57 334.16 263.16 C 339.90 256.74 346.11 250.52 352.74 244.94 C 359.38 239.37 366.52 234.18 373.96 229.70 C 381.40 225.23 389.32 221.31 397.40 218.10 C 405.47 214.89 413.93 212.34 422.41 210.44 C 430.89 208.54 439.63 207.35 448.28 206.69 C 456.93 206.02 465.70 206.03 474.32 206.43 C 482.94 206.83 491.55 207.82 500.00 209.07 C 508.45 210.31 516.81 212.03 525.03 213.91 C 533.25 215.80 541.33 218.02 549.30 220.38 C 557.28 222.74 565.12 225.33 572.86 228.09 C 580.60 230.84 588.24 233.76 595.76 236.89 C 603.29 240.03 610.73 243.32 618.02 246.89 C 625.32 250.47 632.53 254.24 639.52 258.35 C 646.51 262.45 653.39 266.81 659.98 271.52 C 666.57 276.24 672.99 281.26 679.05 286.62 C 685.11 291.97 690.93 297.68 696.36 303.64 C 701.79 309.61 706.89 315.93 711.63 322.42 C 716.37 328.91 720.73 335.71 724.79 342.60 C 728.84 349.50 732.51 356.62 735.96 363.77 C 739.41 370.92 742.51 378.22 745.49 385.52 C 748.47 392.83 751.19 400.20 753.85 407.61 C 756.51 415.01 759.00 422.44 761.47 429.94 C 763.94 437.44 766.33 444.97 768.65 452.63 C 770.98 460.29 773.28 468.01 775.41 475.90 C 777.54 483.80 779.65 491.81 781.44 500.00 Z" fill="none" stroke="#FFFFFF" stroke-width="2.33" stroke-dasharray="15.3 26.0" opacity="0.77"/><path d="M 818.87 500.00 C 821.14 509.28 823.35 518.77 824.98 528.43 C 826.60 538.09 828.00 548.00 828.62 557.94 C 829.24 567.89 829.42 578.06 828.70 588.07 C 827.97 598.09 826.59 608.24 824.27 618.02 C 821.95 627.81 818.79 637.57 814.78 646.78 C 810.76 656.00 805.81 664.98 800.18 673.31 C 794.54 681.63 787.98 689.52 780.96 696.73 C 773.93 703.93 766.10 710.54 758.04 716.52 C 749.99 722.51 741.31 727.81 732.63 732.63 C 723.95 737.45 714.88 741.60 705.96 745.45 C 697.03 749.30 687.96 752.58 679.08 755.75 C 670.20 758.91 661.35 761.67 652.68 764.45 C 644.01 767.24 635.49 769.80 627.05 772.45 C 618.61 775.11 610.34 777.72 602.05 780.39 C 593.76 783.06 585.60 785.80 577.30 788.50 C 569.01 791.19 560.74 793.98 552.29 796.56 C 543.84 799.14 535.31 801.76 526.60 803.99 C 517.88 806.21 509.00 808.34 500.00 809.93 C 491.00 811.52 481.80 812.83 472.57 813.51 C 463.34 814.19 453.95 814.43 444.63 814.00 C 435.32 813.58 425.91 812.57 416.68 810.96 C 407.45 809.35 398.23 807.09 389.24 804.32 C 380.25 801.55 371.37 798.14 362.75 794.34 C 354.12 790.54 345.68 786.17 337.47 781.51 C 329.26 776.86 321.27 771.74 313.47 766.40 C 305.67 761.06 298.08 755.37 290.66 749.48 C 283.24 743.59 276.00 737.44 268.94 731.06 C 261.88 724.68 254.96 718.08 248.29 711.21 C 241.62 704.34 235.08 697.24 228.91 689.82 C 222.73 682.40 216.73 674.72 211.24 666.71 C 205.75 658.71 200.53 650.38 195.98 641.77 C 191.42 633.16 187.27 624.20 183.90 615.05 C 180.53 605.90 177.73 596.42 175.75 586.88 C 173.78 577.34 172.52 567.54 172.05 557.83 C 171.57 548.12 171.91 538.26 172.90 528.62 C 173.89 518.98 175.71 509.34 177.98 500.00 C 180.26 490.66 183.28 481.47 186.53 472.57 C 189.78 463.68 193.62 455.05 197.47 446.66 C 201.32 438.26 205.55 430.17 209.64 422.20 C 213.74 414.23 217.98 406.54 222.03 398.83 C 226.08 391.11 230.08 383.59 233.93 375.93 C 237.79 368.27 241.48 360.66 245.15 352.86 C 248.82 345.06 252.31 337.18 255.97 329.13 C 259.63 321.08 263.18 312.85 267.09 304.57 C 271.01 296.29 274.97 287.80 279.45 279.45 C 283.94 271.11 288.67 262.62 294.00 254.50 C 299.34 246.39 305.10 238.27 311.48 230.76 C 317.85 223.25 324.78 215.95 332.24 209.42 C 339.69 202.90 347.76 196.82 356.20 191.61 C 364.63 186.40 373.65 181.85 382.86 178.15 C 392.06 174.46 401.74 171.57 411.43 169.45 C 421.12 167.32 431.12 166.06 441.00 165.41 C 450.89 164.76 460.91 164.93 470.74 165.54 C 480.57 166.14 490.38 167.45 500.00 169.04 C 509.62 170.63 519.11 172.76 528.43 175.06 C 537.75 177.36 546.90 180.04 555.92 182.85 C 564.94 185.66 573.80 188.70 582.55 191.91 C 591.30 195.11 599.93 198.48 608.43 202.08 C 616.94 205.68 625.35 209.43 633.60 213.50 C 641.84 217.57 650.00 221.83 657.91 226.49 C 665.82 231.14 673.61 236.07 681.07 241.41 C 688.52 246.75 695.77 252.45 702.62 258.53 C 709.46 264.61 716.01 271.10 722.12 277.88 C 728.22 284.67 733.94 291.86 739.24 299.25 C 744.54 306.64 749.39 314.39 753.89 322.22 C 758.40 330.06 762.45 338.15 766.27 346.27 C 770.09 354.39 773.51 362.65 776.82 370.92 C 780.13 379.18 783.14 387.51 786.14 395.85 C 789.13 404.20 791.96 412.56 794.80 421.01 C 797.65 429.45 800.44 437.91 803.20 446.54 C 805.96 455.16 808.74 463.85 811.35 472.76 C 813.97 481.67 816.60 490.72 818.87 500.00 Z" fill="none" stroke="#FFFFFF" stroke-width="2.02" stroke-dasharray="11.6 29.3" opacity="0.73"/><path d="M 856.27 500.00 C 859.08 510.37 861.87 521.00 863.99 531.84 C 866.10 542.69 867.99 553.85 868.95 565.06 C 869.92 576.26 870.39 587.77 869.79 599.08 C 869.18 610.40 867.81 621.90 865.32 632.97 C 862.84 644.03 859.36 655.08 854.86 665.48 C 850.37 675.87 844.76 686.00 838.34 695.34 C 831.92 704.68 824.39 713.50 816.34 721.50 C 808.28 729.50 799.26 736.79 790.00 743.34 C 780.74 749.89 770.75 755.62 760.79 760.79 C 750.83 765.97 740.43 770.34 730.24 774.38 C 720.04 778.43 709.69 781.80 699.61 785.07 C 689.53 788.34 679.52 791.14 669.76 794.03 C 659.99 796.91 650.43 799.56 641.00 802.37 C 631.57 805.19 622.37 807.98 613.16 810.91 C 603.95 813.84 594.91 816.89 585.73 819.94 C 576.54 822.99 567.41 826.20 558.05 829.20 C 548.69 832.21 539.24 835.30 529.57 837.97 C 519.89 840.63 510.03 843.22 500.00 845.19 C 489.97 847.16 479.71 848.84 469.40 849.78 C 459.09 850.73 448.57 851.17 438.14 850.84 C 427.71 850.50 417.16 849.51 406.81 847.80 C 396.46 846.09 386.11 843.64 376.03 840.59 C 365.96 837.54 356.01 833.75 346.34 829.52 C 336.67 825.29 327.23 820.39 318.03 815.19 C 308.83 809.98 299.89 804.24 291.14 798.28 C 282.40 792.31 273.91 785.95 265.58 779.38 C 257.25 772.80 249.11 765.95 241.16 758.84 C 233.21 751.73 225.41 744.39 217.86 736.74 C 210.32 729.09 202.91 721.19 195.91 712.93 C 188.90 704.67 182.07 696.10 175.83 687.16 C 169.59 678.21 163.65 668.90 158.47 659.26 C 153.30 649.61 148.59 639.56 144.80 629.28 C 141.01 619.01 137.88 608.34 135.73 597.61 C 133.57 586.88 132.26 575.83 131.87 564.91 C 131.48 553.99 132.05 542.89 133.37 532.08 C 134.70 521.26 137.01 510.45 139.82 500.00 C 142.64 489.55 146.34 479.29 150.27 469.40 C 154.20 459.51 158.81 449.94 163.39 440.65 C 167.97 431.36 172.97 422.44 177.75 413.65 C 182.54 404.87 187.45 396.42 192.09 387.93 C 196.72 379.43 201.25 371.16 205.54 362.69 C 209.84 354.22 213.89 345.81 217.88 337.12 C 221.86 328.43 225.58 319.62 229.46 310.57 C 233.34 301.51 237.05 292.21 241.17 282.82 C 245.29 273.42 249.43 263.73 254.19 254.19 C 258.95 244.65 263.97 234.89 269.71 225.56 C 275.46 216.22 281.70 206.86 288.67 198.19 C 295.64 189.53 303.28 181.09 311.53 173.57 C 319.79 166.05 328.79 159.04 338.22 153.06 C 347.65 147.07 357.78 141.86 368.12 137.67 C 378.47 133.48 389.38 130.24 400.30 127.91 C 411.22 125.57 422.50 124.25 433.64 123.64 C 444.78 123.03 456.07 123.40 467.13 124.25 C 478.19 125.10 489.21 126.78 500.00 128.75 C 510.79 130.72 521.42 133.31 531.84 136.07 C 542.26 138.82 552.48 141.99 562.55 145.28 C 572.61 148.56 582.48 152.09 592.24 155.77 C 601.99 159.45 611.59 163.28 621.07 167.35 C 630.55 171.43 639.93 175.64 649.12 180.20 C 658.32 184.76 667.42 189.53 676.25 194.73 C 685.08 199.93 693.77 205.43 702.08 211.40 C 710.39 217.37 718.48 223.74 726.10 230.55 C 733.71 237.35 741.00 244.62 747.76 252.24 C 754.53 259.85 760.85 267.93 766.69 276.22 C 772.53 284.51 777.85 293.21 782.78 301.99 C 787.72 310.78 792.12 319.86 796.29 328.94 C 800.46 338.02 804.17 347.26 807.79 356.47 C 811.42 365.69 814.71 374.96 818.04 384.24 C 821.37 393.53 824.53 402.80 827.76 412.18 C 830.99 421.55 834.20 430.93 837.43 440.50 C 840.65 450.08 843.95 459.72 847.09 469.63 C 850.23 479.55 853.45 489.63 856.27 500.00 Z" fill="none" stroke="#FFFFFF" stroke-width="1.71" stroke-dasharray="7.8 32.7" opacity="0.69"/><path d="M 893.62 500.00 C 897.04 511.46 900.48 523.23 903.15 535.27 C 905.81 547.31 908.25 559.73 909.62 572.23 C 910.99 584.72 911.81 597.58 911.37 610.23 C 910.93 622.88 909.61 635.76 906.98 648.13 C 904.34 660.50 900.56 672.86 895.58 684.46 C 890.60 696.06 884.31 707.35 877.08 717.71 C 869.85 728.07 861.33 737.82 852.19 746.61 C 843.06 755.39 832.79 763.34 822.28 770.42 C 811.77 777.51 800.41 783.63 789.11 789.11 C 777.82 794.59 766.03 799.13 754.51 803.32 C 743.00 807.50 731.33 810.89 720.02 814.22 C 708.71 817.54 697.52 820.33 686.64 823.27 C 675.76 826.20 665.16 828.89 654.74 831.83 C 644.31 834.77 634.20 837.73 624.08 840.90 C 613.95 844.06 604.07 847.43 594.01 850.84 C 583.95 854.25 573.97 857.90 563.72 861.35 C 553.47 864.81 543.13 868.42 532.51 871.56 C 521.89 874.69 511.04 877.79 500.00 880.18 C 488.96 882.58 477.63 884.67 466.24 885.91 C 454.85 887.15 443.20 887.84 431.65 887.63 C 420.10 887.43 408.40 886.46 396.92 884.68 C 385.45 882.90 373.97 880.26 362.80 876.95 C 351.63 873.63 340.60 869.47 329.89 864.80 C 319.18 860.14 308.71 854.72 298.53 848.96 C 288.34 843.21 278.44 836.85 268.75 830.25 C 259.07 823.66 249.65 816.63 240.41 809.37 C 231.16 802.12 222.12 794.56 213.27 786.73 C 204.41 778.90 195.71 770.83 187.28 762.41 C 178.84 753.98 170.54 745.30 162.68 736.19 C 154.83 727.09 147.14 717.65 140.13 707.77 C 133.12 697.89 126.42 687.59 120.62 676.91 C 114.82 666.22 109.54 655.06 105.32 643.65 C 101.10 632.24 97.64 620.37 95.32 608.43 C 92.99 596.50 91.65 584.20 91.37 572.05 C 91.09 559.91 91.93 547.56 93.64 535.55 C 95.35 523.54 98.20 511.55 101.62 500.00 C 105.04 488.45 109.49 477.13 114.16 466.24 C 118.83 455.36 124.29 444.86 129.65 434.70 C 135.02 424.53 140.84 414.82 146.36 405.24 C 151.87 395.67 157.50 386.50 162.74 377.25 C 167.98 368.00 173.04 359.00 177.78 349.75 C 182.52 340.49 186.92 331.28 191.19 321.71 C 195.46 312.14 199.36 302.40 203.42 292.33 C 207.49 282.27 211.30 271.88 215.57 261.34 C 219.85 250.79 224.11 239.87 229.08 229.08 C 234.06 218.30 239.31 207.21 245.42 196.61 C 251.53 186.00 258.21 175.32 265.75 165.45 C 273.28 155.58 281.59 145.94 290.64 137.37 C 299.68 128.81 309.60 120.82 320.02 114.04 C 330.45 107.25 341.70 101.36 353.20 96.66 C 364.70 91.96 376.86 88.37 389.02 85.82 C 401.19 83.28 413.78 81.93 426.19 81.39 C 438.60 80.84 451.18 81.44 463.48 82.57 C 475.78 83.70 488.04 85.79 500.00 88.18 C 511.96 90.58 523.73 93.68 535.26 96.93 C 546.79 100.17 558.07 103.87 569.18 107.66 C 580.29 111.45 591.16 115.50 601.91 119.67 C 612.66 123.84 623.23 128.15 633.68 132.71 C 644.13 137.27 654.46 141.95 664.60 147.01 C 674.74 152.07 684.79 157.33 694.53 163.07 C 704.26 168.82 713.86 174.89 723.03 181.49 C 732.19 188.08 741.12 195.13 749.49 202.66 C 757.87 210.20 765.88 218.26 773.30 226.70 C 780.71 235.15 787.62 244.12 793.98 253.32 C 800.34 262.52 806.11 272.18 811.45 281.92 C 816.79 291.66 821.53 301.72 826.03 311.77 C 830.52 321.81 834.50 332.03 838.42 342.19 C 842.34 352.36 845.90 362.56 849.55 372.77 C 853.21 382.98 856.70 393.16 860.33 403.45 C 863.96 413.74 867.62 424.01 871.33 434.52 C 875.05 445.04 878.91 455.61 882.62 466.52 C 886.34 477.44 890.20 488.54 893.62 500.00 Z" fill="none" stroke="#FFFFFF" stroke-width="1.40" stroke-dasharray="4.0 36.0" opacity="0.65"/><circle cx="500" cy="500" r="15.0" fill="#FFFFFF"/></svg>